{"glyphs":{"0":{"ha":828,"x_min":28,"x_max":799,"o":"m 799 515 q 769 277 799 378 q 688 110 740 176 q 565 13 636 44 q 411 -19 494 -19 q 260 13 331 -19 q 138 110 190 44 q 57 277 86 176 q 28 515 28 378 q 57 755 28 654 q 138 922 86 856 q 260 1019 190 988 q 411 1051 331 1051 q 565 1019 494 1051 q 688 922 636 988 q 769 755 740 856 q 799 515 799 654 m 604 515 q 588 699 604 626 q 546 815 572 772 q 484 874 519 857 q 411 892 449 892 q 341 874 375 892 q 281 815 307 857 q 238 699 254 772 q 222 515 222 626 q 238 333 222 406 q 281 218 254 261 q 341 158 307 175 q 411 142 375 142 q 484 158 449 142 q 546 218 519 175 q 588 333 572 261 q 604 515 604 406 z "},"1":{"ha":828,"x_min":103,"x_max":746,"o":"m 567 1039 l 567 154 l 746 154 l 746 0 l 174 0 l 174 154 l 376 154 l 376 719 l 382 810 l 213 656 l 103 781 l 403 1039 l 567 1039 z "},"2":{"ha":828,"x_min":51,"x_max":775,"o":"m 436 1056 q 569 1033 508 1056 q 672 972 629 1011 q 740 876 715 932 q 764 754 764 821 q 744 649 763 700 q 696 553 725 599 q 630 464 667 507 q 554 381 593 421 l 339 164 q 392 173 367 171 q 442 175 418 175 l 775 175 l 775 0 l 51 0 l 51 111 l 400 454 q 525 601 479 533 q 571 750 571 669 q 531 859 571 822 q 424 896 492 896 q 325 862 365 896 q 268 782 285 828 q 260 750 263 767 q 257 713 258 733 l 75 743 q 197 979 100 903 q 436 1056 293 1056 z "},"3":{"ha":828,"x_min":42,"x_max":781,"o":"m 443 1056 q 576 1032 517 1054 q 677 972 635 1010 q 742 885 719 935 q 763 776 764 835 q 718 633 763 688 q 607 546 674 578 q 740 451 699 511 q 781 299 781 390 q 749 158 779 219 q 668 56 718 97 q 552 -6 618 15 q 413 -26 486 -26 q 274 -7 333 -26 q 169 49 214 13 q 93 140 124 86 q 42 261 63 193 l 211 328 q 238 261 219 294 q 282 201 256 228 q 340 157 308 174 q 410 140 372 140 q 490 153 456 140 q 547 188 524 167 q 581 238 569 210 q 592 294 592 265 q 584 361 592 331 q 551 413 576 392 q 478 447 526 435 q 349 458 431 458 l 349 597 q 462 610 418 599 q 531 641 506 621 q 565 688 556 661 q 575 749 575 715 q 538 856 576 821 q 432 892 500 892 q 357 878 388 892 q 306 840 326 864 q 274 784 286 817 q 256 714 263 751 q 166 730 211 721 q 75 746 121 739 q 201 981 106 906 q 443 1056 296 1056 z "},"4":{"ha":828,"x_min":28,"x_max":818,"o":"m 688 408 l 818 408 l 818 251 l 688 251 l 688 0 l 519 0 l 519 251 l 28 251 l 28 407 q 268 728 150 567 q 508 1049 386 889 l 688 1049 l 688 408 m 519 729 q 520 764 519 739 q 522 817 521 789 l 217 406 l 519 406 l 519 729 z "},"5":{"ha":828,"x_min":63,"x_max":768,"o":"m 732 868 l 342 868 l 307 665 q 369 673 339 671 q 426 675 399 675 q 574 650 510 675 q 681 581 638 625 q 746 478 724 538 q 768 350 768 419 q 738 197 768 267 q 656 78 708 128 q 531 2 603 29 q 375 -25 458 -25 q 197 13 279 -25 q 63 100 115 50 l 160 242 q 264 171 208 201 q 386 140 319 140 q 532 195 482 140 q 582 342 582 250 q 533 472 582 425 q 389 517 485 519 q 313 506 350 514 q 238 485 275 499 l 121 519 q 174 847 153 721 q 207 1039 196 972 l 732 1039 l 732 868 z "},"6":{"ha":828,"x_min":49,"x_max":788,"o":"m 475 646 q 592 626 536 646 q 692 567 649 607 q 761 468 735 528 q 788 329 788 408 q 760 191 788 256 q 685 78 733 126 q 567 1 636 29 q 414 -26 497 -26 q 262 1 329 -26 q 147 76 194 28 q 74 194 100 125 q 49 347 49 264 q 81 497 49 418 q 172 660 113 576 l 454 1040 l 688 1040 q 533 848 608 943 q 382 656 458 753 l 347 622 l 363 629 q 475 646 411 646 m 232 319 q 281 181 232 231 q 411 131 331 131 q 485 144 451 131 q 546 182 519 157 q 587 242 572 207 q 601 318 601 276 q 549 456 601 410 q 413 501 497 501 q 281 452 329 501 q 232 319 232 403 z "},"7":{"ha":828,"x_min":74,"x_max":774,"o":"m 774 1032 l 774 896 l 353 0 l 140 0 q 323 374 229 193 q 506 747 417 556 q 517 769 510 754 q 532 796 525 785 l 532 797 l 533 799 l 539 810 q 540 811 539 811 l 540 813 q 569 861 556 843 l 74 861 l 74 1032 l 774 1032 z "},"8":{"ha":828,"x_min":49,"x_max":786,"o":"m 417 -26 q 268 -5 336 -26 q 151 56 200 17 q 76 153 103 96 q 49 283 49 211 q 90 439 49 372 q 224 542 132 506 q 121 637 157 578 q 85 771 85 696 q 110 888 85 835 q 178 978 135 940 q 283 1036 222 1015 q 417 1057 344 1057 q 552 1036 490 1057 q 658 978 614 1015 q 728 888 703 940 q 753 771 753 835 q 716 636 753 696 q 611 542 679 576 q 744 439 703 506 q 786 283 786 372 q 759 153 786 211 q 683 56 732 96 q 567 -5 635 17 q 417 -26 499 -26 m 417 610 q 486 624 457 610 q 533 662 515 639 q 560 713 551 685 q 568 768 568 742 q 530 869 568 828 q 417 910 492 910 q 305 869 342 910 q 268 768 268 828 q 276 713 268 742 q 302 662 285 685 q 348 624 319 639 q 417 610 376 610 m 417 126 q 548 170 500 126 q 596 286 596 214 q 547 415 596 369 q 417 460 497 460 q 289 415 336 460 q 242 286 242 369 q 288 170 242 214 q 417 126 333 126 z "},"9":{"ha":828,"x_min":69,"x_max":776,"o":"m 361 415 q 253 434 306 415 q 160 491 201 453 q 94 585 119 529 q 69 717 69 642 q 96 850 69 788 q 169 958 122 913 q 283 1031 217 1004 q 428 1058 349 1058 q 573 1033 508 1058 q 683 961 638 1007 q 752 851 728 915 q 776 711 776 788 q 763 615 776 663 q 728 520 750 567 q 681 431 707 474 q 631 349 656 388 l 401 0 l 179 0 l 479 413 q 511 446 499 433 q 526 461 524 458 l 497 444 q 433 421 467 426 q 361 415 399 415 m 597 729 q 549 858 597 813 q 425 903 501 903 q 301 855 346 903 q 257 731 257 807 q 300 605 257 646 q 424 564 343 564 q 553 609 508 564 q 597 729 597 654 z "}," ":{"ha":315,"x_min":0,"x_max":0,"o":""},"!":{"ha":514,"x_min":154,"x_max":360,"o":"m 324 294 l 190 294 l 161 863 l 154 1056 l 360 1056 l 353 863 l 324 294 m 360 -19 l 157 -19 l 157 178 l 360 178 l 360 -19 z "},"\"":{"ha":799,"x_min":121,"x_max":676,"o":"m 128 890 l 121 1083 l 329 1083 l 322 890 l 282 592 l 168 592 l 128 890 m 475 890 l 468 1083 l 676 1083 l 669 890 l 629 592 l 515 592 l 475 890 z "},"#":{"ha":818,"x_min":54,"x_max":771,"o":"m 172 301 l 54 301 l 54 433 l 188 433 l 211 624 l 86 624 l 86 757 l 228 757 l 263 1024 l 393 1024 l 360 757 l 515 757 l 550 1024 l 682 1024 l 650 757 l 771 757 l 771 624 l 633 624 l 610 433 l 739 433 l 739 301 l 594 301 l 558 0 l 422 0 l 460 301 l 306 301 l 268 0 l 133 0 l 172 301 m 475 433 l 499 624 l 343 624 l 319 433 l 475 433 z "},"$":{"ha":874,"x_min":74,"x_max":794,"o":"m 383 1 q 216 42 296 8 q 74 143 136 76 l 183 276 q 277 207 224 235 q 383 169 331 179 l 383 440 l 311 468 q 239 508 275 485 q 174 562 203 531 q 126 634 144 593 q 108 729 108 675 q 128 828 108 782 q 183 911 147 875 q 270 971 219 947 q 383 1003 321 994 l 383 1149 l 513 1149 l 513 1004 q 642 967 579 994 q 756 889 704 940 l 651 768 q 513 842 590 825 l 513 572 l 590 543 q 671 502 633 524 q 735 451 708 481 q 778 385 763 422 q 794 294 794 347 q 717 101 794 174 q 513 7 639 29 l 513 -142 l 383 -142 l 383 1 m 285 736 q 313 673 285 703 q 383 628 340 643 l 383 840 q 313 801 340 829 q 285 736 285 774 m 618 281 q 590 343 618 322 q 513 386 563 364 l 513 175 q 587 208 556 186 q 618 281 618 229 z "},"%":{"ha":1249,"x_min":53,"x_max":1197,"o":"m 53 790 q 122 976 53 911 q 301 1042 192 1042 q 402 1026 356 1042 q 483 981 449 1011 q 536 905 517 950 q 556 800 556 860 l 556 782 q 536 674 556 721 q 483 596 517 628 q 402 548 449 564 q 301 532 356 532 q 122 594 192 532 q 53 778 53 657 l 53 790 m 867 1035 l 1031 1035 l 364 0 l 193 0 l 867 1035 m 401 797 q 377 903 401 872 q 306 935 353 935 q 228 904 254 935 q 201 803 201 874 l 200 779 q 224 673 200 704 q 301 642 249 642 q 377 673 354 642 q 400 779 400 704 l 401 797 m 697 278 q 766 464 697 400 q 944 528 835 528 q 1044 513 999 528 q 1124 467 1090 497 q 1178 392 1158 438 q 1197 288 1197 347 l 1197 269 q 1178 163 1197 210 q 1124 85 1158 117 q 1044 37 1090 53 q 944 21 999 21 q 766 83 835 21 q 697 265 697 144 l 697 278 m 1044 285 q 1020 390 1044 360 q 949 421 996 421 q 871 391 897 421 q 844 290 844 361 l 843 267 q 867 161 843 192 q 944 131 892 131 q 1020 161 997 131 q 1043 267 1043 192 l 1044 285 z "},"&":{"ha":989,"x_min":43,"x_max":974,"o":"m 49 267 q 102 453 43 379 q 256 574 161 526 q 190 678 211 628 q 167 783 168 728 q 185 894 164 846 q 243 974 206 942 q 331 1024 281 1007 q 440 1042 382 1040 q 635 989 563 1047 q 713 825 708 931 q 699 733 715 774 q 654 660 683 693 q 585 599 625 626 q 499 549 544 572 l 706 315 q 767 514 758 411 l 915 518 q 877 350 908 431 q 801 203 846 269 l 974 13 l 758 13 l 692 85 q 570 14 639 40 q 425 -15 501 -12 q 49 267 57 -31 m 421 633 q 514 706 474 663 q 553 813 554 750 q 521 894 551 865 q 449 922 490 924 q 367 891 399 919 q 339 800 336 863 q 358 723 340 760 q 408 650 376 686 l 421 633 m 339 485 q 253 407 286 450 q 222 296 219 364 q 278 160 225 208 q 432 117 331 113 q 528 135 485 118 q 608 181 571 151 l 339 485 z "},"'":{"ha":451,"x_min":121,"x_max":329,"o":"m 128 890 l 121 1083 l 329 1083 l 322 890 l 282 592 l 168 592 l 128 890 z "},"(":{"ha":525,"x_min":118,"x_max":453,"o":"m 325 -225 q 172 110 226 -64 q 118 494 118 285 q 172 877 118 703 q 325 1213 226 1051 l 453 1158 q 324 838 365 1003 q 283 494 283 674 q 324 149 283 313 q 453 -171 365 -15 l 325 -225 z "},")":{"ha":525,"x_min":72,"x_max":407,"o":"m 72 -171 q 201 149 160 -15 q 242 494 242 313 q 201 838 242 674 q 72 1158 160 1003 l 199 1213 q 353 877 299 1051 q 407 494 407 703 q 352 110 407 285 q 199 -225 297 -64 l 72 -171 z "},"*":{"ha":703,"x_min":68,"x_max":635,"o":"m 142 644 l 233 803 l 68 876 l 101 979 l 279 939 l 297 1122 l 407 1122 l 424 939 l 601 979 l 635 876 l 468 803 l 561 644 l 474 581 l 351 719 l 229 581 l 142 644 z "},"+":{"ha":818,"x_min":53,"x_max":765,"o":"m 333 447 l 53 447 l 53 592 l 333 592 l 333 888 l 485 888 l 485 592 l 765 592 l 765 447 l 485 447 l 485 151 l 333 151 l 333 447 z "},",":{"ha":340,"x_min":26,"x_max":286,"o":"m 83 176 l 286 176 l 183 -114 l 26 -114 l 83 176 z "},"-":{"ha":628,"x_min":68,"x_max":561,"o":"m 68 592 l 561 592 l 561 446 l 68 446 l 68 592 z "},".":{"ha":382,"x_min":90,"x_max":293,"o":"m 293 -19 l 90 -19 l 90 178 l 293 178 l 293 -19 z "},"/":{"ha":539,"x_min":19,"x_max":500,"o":"m 364 1188 l 500 1188 l 156 -183 l 19 -183 l 364 1188 z "},":":{"ha":400,"x_min":99,"x_max":301,"o":"m 301 639 l 99 639 l 99 836 l 301 836 l 301 639 m 301 79 l 99 79 l 99 276 l 301 276 l 301 79 z "},";":{"ha":400,"x_min":42,"x_max":301,"o":"m 301 639 l 99 639 l 99 836 l 301 836 l 301 639 m 99 276 l 301 276 l 199 -14 l 42 -14 l 99 276 z "},"<":{"ha":744,"x_min":53,"x_max":594,"o":"m 53 417 l 53 571 l 594 951 l 594 769 l 214 496 l 594 228 l 594 36 l 53 417 z "},"=":{"ha":818,"x_min":53,"x_max":765,"o":"m 53 772 l 765 772 l 765 626 l 53 626 l 53 772 m 53 413 l 765 413 l 765 267 l 53 267 l 53 413 z "},">":{"ha":744,"x_min":149,"x_max":690,"o":"m 149 36 l 149 228 l 529 496 l 149 769 l 149 951 l 690 571 l 690 417 l 149 36 z "},"?":{"ha":714,"x_min":42,"x_max":650,"o":"m 263 292 q 262 442 251 382 q 294 542 272 501 q 347 610 317 583 q 403 663 376 638 q 447 719 429 689 q 465 793 465 749 q 439 884 465 847 q 354 921 413 921 q 258 881 296 921 q 215 757 221 840 l 42 757 q 78 911 47 849 q 155 1011 110 974 q 254 1063 200 1049 q 360 1075 308 1078 q 474 1053 421 1072 q 567 1001 528 1035 q 628 918 606 967 q 650 807 650 869 q 630 686 650 732 q 581 610 610 640 q 519 555 551 579 q 460 499 486 531 q 422 419 435 467 q 419 292 410 371 l 263 292 m 442 -19 l 239 -19 l 239 178 l 442 178 l 442 -19 z "},"@":{"ha":1399,"x_min":78,"x_max":1321,"o":"m 664 -264 q 440 -228 546 -264 q 253 -119 333 -192 q 125 65 172 -46 q 78 322 78 175 q 133 618 78 485 q 284 847 189 751 q 506 993 379 942 q 774 1044 632 1044 q 1000 1004 899 1044 q 1173 891 1101 964 q 1283 717 1244 818 q 1321 494 1321 615 q 1289 307 1321 388 q 1207 173 1257 226 q 1095 92 1157 119 q 974 65 1033 65 q 858 96 907 65 q 797 185 808 126 l 794 185 q 707 108 761 138 q 604 79 653 79 q 457 142 513 79 q 401 313 401 204 q 425 450 401 382 q 490 572 449 518 q 590 660 532 626 q 715 693 647 693 q 836 615 799 693 l 839 615 l 861 681 l 988 681 l 919 342 q 994 193 883 193 q 1065 214 1031 193 q 1128 273 1100 235 q 1172 365 1156 311 q 1189 488 1189 419 q 1164 653 1189 575 q 1086 791 1139 732 q 952 884 1033 850 q 757 918 871 918 q 558 876 656 918 q 385 758 461 835 q 263 572 308 681 q 217 328 217 463 q 253 124 217 211 q 353 -21 290 38 q 501 -108 417 -79 q 681 -137 586 -137 q 809 -119 744 -137 q 924 -74 874 -101 l 969 -187 q 823 -246 899 -228 q 664 -264 747 -264 m 647 208 q 702 226 675 208 q 763 286 729 244 l 803 508 q 721 560 772 560 q 653 537 683 560 q 601 479 622 514 q 567 403 579 444 q 556 324 556 361 q 581 237 556 265 q 647 208 607 208 z "},"A":{"ha":890,"x_min":-6,"x_max":896,"o":"m 608 264 l 275 264 l 203 0 l -6 0 l 324 1028 l 565 1028 l 896 0 l 681 0 l 608 264 m 564 424 l 533 536 q 488 703 510 617 q 443 872 467 789 l 438 872 q 396 702 418 788 q 350 536 374 617 l 319 424 l 564 424 z "},"B":{"ha":946,"x_min":126,"x_max":892,"o":"m 126 1028 l 467 1028 q 614 1015 546 1028 q 732 974 682 1003 q 810 896 782 944 q 839 775 839 847 q 829 706 839 740 q 801 640 819 671 q 758 587 783 610 q 699 553 732 564 l 699 546 q 837 467 782 526 q 892 303 892 407 q 861 168 892 225 q 777 74 831 111 q 651 18 724 36 q 493 0 578 0 l 126 0 l 126 1028 m 451 610 q 595 646 551 610 q 639 744 639 682 q 593 842 639 813 q 454 871 547 871 l 332 871 l 332 610 l 451 610 m 475 158 q 636 197 581 158 q 692 315 692 235 q 638 424 692 390 q 475 457 583 457 l 332 457 l 332 158 l 475 158 z "},"C":{"ha":913,"x_min":75,"x_max":874,"o":"m 546 -19 q 363 15 449 -19 q 213 117 276 50 q 112 282 149 183 q 75 510 75 381 q 113 737 75 638 q 217 906 151 836 q 369 1011 282 975 q 553 1047 456 1047 q 728 1008 653 1047 q 854 915 804 968 l 746 785 q 661 847 707 822 q 557 871 615 871 q 449 847 499 871 q 363 776 399 822 q 306 665 326 731 q 285 517 285 600 q 358 253 285 349 q 553 158 431 158 q 672 187 619 158 q 765 260 724 215 l 874 132 q 546 -19 747 -19 z "},"D":{"ha":992,"x_min":126,"x_max":917,"o":"m 126 1028 l 408 1028 q 620 997 526 1028 q 780 903 714 967 q 881 744 846 840 q 917 518 917 649 q 881 292 917 389 q 781 130 846 194 q 625 33 717 65 q 419 0 533 0 l 126 0 l 126 1028 m 396 165 q 624 248 540 165 q 707 518 707 331 q 685 678 707 613 q 624 785 664 744 q 526 845 583 826 q 396 864 468 864 l 332 864 l 332 165 l 396 165 z "},"E":{"ha":854,"x_min":126,"x_max":772,"o":"m 126 1028 l 757 1028 l 757 857 l 332 857 l 332 619 l 693 619 l 693 447 l 332 447 l 332 172 l 772 172 l 772 0 l 126 0 l 126 1028 z "},"F":{"ha":813,"x_min":126,"x_max":760,"o":"m 126 1028 l 760 1028 l 760 857 l 332 857 l 332 589 l 697 589 l 697 417 l 332 417 l 332 0 l 126 0 l 126 1028 z "},"G":{"ha":996,"x_min":75,"x_max":901,"o":"m 568 -19 q 372 15 463 -19 q 216 117 282 50 q 113 282 150 183 q 75 510 75 381 q 114 737 75 638 q 219 906 153 836 q 376 1011 286 975 q 568 1047 467 1047 q 758 1007 679 1047 q 886 915 836 967 l 776 785 q 692 846 739 821 q 575 871 646 871 q 458 847 511 871 q 366 776 404 822 q 306 665 328 731 q 285 517 285 600 q 361 253 285 349 q 589 158 438 158 q 661 168 626 158 q 718 197 696 178 l 718 400 l 536 400 l 536 568 l 901 568 l 901 104 q 763 17 849 53 q 568 -19 676 -19 z "},"H":{"ha":1051,"x_min":126,"x_max":925,"o":"m 126 1028 l 332 1028 l 332 624 l 721 624 l 721 1028 l 925 1028 l 925 0 l 721 0 l 721 444 l 332 444 l 332 0 l 126 0 l 126 1028 z "},"I":{"ha":458,"x_min":126,"x_max":332,"o":"m 126 1028 l 332 1028 l 332 0 l 126 0 l 126 1028 z "},"J":{"ha":789,"x_min":31,"x_max":668,"o":"m 350 -19 q 160 25 238 -19 q 31 161 83 69 l 172 265 q 242 183 203 207 q 325 158 281 158 q 428 200 393 158 q 463 349 463 242 l 463 1028 l 668 1028 l 668 332 q 649 196 668 260 q 592 84 631 132 q 493 8 553 36 q 350 -19 433 -19 z "},"K":{"ha":953,"x_min":126,"x_max":958,"o":"m 126 1028 l 332 1028 l 332 582 l 336 582 l 676 1028 l 903 1028 l 589 624 l 958 0 l 732 0 l 467 461 l 332 289 l 332 0 l 126 0 l 126 1028 z "},"L":{"ha":801,"x_min":126,"x_max":749,"o":"m 126 1028 l 332 1028 l 332 172 l 749 172 l 749 0 l 126 0 l 126 1028 z "},"M":{"ha":1186,"x_min":126,"x_max":1060,"o":"m 126 1028 l 354 1028 l 529 547 q 561 449 546 499 q 592 349 576 399 l 599 349 q 630 449 615 399 q 661 547 644 499 l 832 1028 l 1060 1028 l 1060 0 l 872 0 l 872 429 q 874 509 872 465 q 881 598 876 553 q 889 687 885 643 q 897 767 893 731 l 892 767 l 808 525 l 650 93 l 532 93 l 372 525 l 290 767 l 285 767 q 294 687 289 731 q 302 598 299 643 q 308 509 306 553 q 311 429 311 465 l 311 0 l 126 0 l 126 1028 z "},"N":{"ha":1040,"x_min":126,"x_max":913,"o":"m 126 1028 l 336 1028 l 635 481 l 738 258 l 744 258 q 727 435 736 339 q 718 618 718 531 l 718 1028 l 913 1028 l 913 0 l 704 0 l 407 550 l 303 771 l 296 771 q 312 594 303 688 q 321 413 321 501 l 321 0 l 126 0 l 126 1028 z "},"O":{"ha":1069,"x_min":75,"x_max":994,"o":"m 535 -19 q 349 17 433 -19 q 203 124 264 54 q 108 294 142 194 q 75 518 75 393 q 108 742 75 643 q 203 908 142 840 q 349 1012 264 976 q 535 1047 433 1047 q 722 1011 638 1047 q 867 908 806 975 q 961 742 928 840 q 994 518 994 643 q 961 294 994 393 q 867 124 928 194 q 722 17 806 54 q 535 -19 638 -19 m 535 158 q 638 184 592 158 q 717 256 685 210 q 767 369 750 303 q 785 518 785 436 q 719 778 785 686 q 535 871 653 871 q 351 778 417 871 q 285 518 285 686 q 302 369 285 436 q 352 256 319 303 q 431 184 385 210 q 535 158 478 158 z "},"P":{"ha":926,"x_min":126,"x_max":867,"o":"m 126 1028 l 464 1028 q 622 1012 549 1028 q 750 958 696 996 q 835 859 804 921 q 867 706 867 797 q 835 553 867 618 q 751 447 804 489 q 625 385 697 406 q 469 365 553 365 l 332 365 l 332 0 l 126 0 l 126 1028 m 456 528 q 665 706 665 528 q 611 831 665 797 q 449 865 557 865 l 332 865 l 332 528 l 456 528 z "},"Q":{"ha":1069,"x_min":75,"x_max":1014,"o":"m 629 -10 q 582 -17 606 -14 q 535 -19 558 -19 q 349 17 433 -19 q 203 124 264 54 q 108 294 142 194 q 75 518 75 393 q 108 742 75 643 q 203 908 142 840 q 349 1012 264 976 q 535 1047 433 1047 q 722 1011 638 1047 q 867 908 806 975 q 961 742 928 840 q 994 518 994 643 q 945 249 994 363 q 808 68 896 136 l 1014 -176 l 760 -176 l 629 -10 m 535 158 q 638 184 592 158 q 717 256 685 210 q 767 369 750 303 q 785 518 785 436 q 719 778 785 686 q 535 871 653 871 q 351 778 417 871 q 285 518 285 686 q 302 369 285 436 q 352 256 319 303 q 431 184 385 210 q 535 158 478 158 z "},"R":{"ha":947,"x_min":126,"x_max":915,"o":"m 686 0 l 475 389 l 332 389 l 332 0 l 126 0 l 126 1028 l 485 1028 q 637 1013 567 1028 q 759 961 707 997 q 841 865 811 925 q 871 717 871 806 q 817 527 871 599 q 675 421 764 456 l 915 0 l 686 0 m 332 551 l 465 551 q 617 592 565 551 q 669 717 669 633 q 617 833 669 800 q 465 865 565 865 l 332 865 l 332 551 z "},"S":{"ha":867,"x_min":58,"x_max":811,"o":"m 433 -19 q 231 19 329 -19 q 58 131 133 58 l 176 272 q 301 190 232 221 q 438 158 369 158 q 560 190 518 158 q 601 276 601 222 q 590 325 601 306 q 559 360 579 344 q 510 388 539 375 q 447 415 482 400 l 310 474 q 233 515 271 490 q 167 572 196 539 q 119 650 138 606 q 101 750 101 694 q 128 867 101 813 q 201 962 154 922 q 314 1024 249 1001 q 457 1047 379 1047 q 633 1013 549 1047 q 779 915 717 979 l 675 786 q 574 849 626 826 q 457 871 521 871 q 349 842 389 871 q 308 763 308 814 q 322 717 308 736 q 356 682 335 697 q 407 653 378 667 q 469 628 436 640 l 604 571 q 756 468 700 532 q 811 292 811 404 q 785 172 811 229 q 711 73 760 115 q 592 6 663 31 q 433 -19 522 -19 z "},"T":{"ha":868,"x_min":42,"x_max":828,"o":"m 331 857 l 42 857 l 42 1028 l 828 1028 l 828 857 l 536 857 l 536 0 l 331 0 l 331 857 z "},"U":{"ha":1039,"x_min":121,"x_max":918,"o":"m 521 -19 q 353 8 428 -19 q 227 93 279 35 q 148 243 175 151 q 121 463 121 335 l 121 1028 l 326 1028 l 326 444 q 340 309 326 364 q 378 221 353 254 q 439 173 403 188 q 521 158 475 158 q 603 173 567 158 q 667 221 640 188 q 707 309 693 254 q 721 444 721 364 l 721 1028 l 918 1028 l 918 463 q 892 243 918 335 q 814 93 865 151 q 689 8 763 35 q 521 -19 615 -19 z "},"V":{"ha":858,"x_min":-7,"x_max":867,"o":"m -7 1028 l 208 1028 l 344 528 q 387 362 368 440 q 431 196 406 283 l 438 196 q 481 362 461 283 q 525 528 501 440 l 658 1028 l 867 1028 l 551 0 l 307 0 l -7 1028 z "},"W":{"ha":1271,"x_min":25,"x_max":1243,"o":"m 25 1028 l 235 1028 l 317 526 q 340 363 328 443 q 364 199 353 282 l 369 199 q 401 364 385 282 q 435 526 418 446 l 554 1028 l 729 1028 l 849 526 q 881 365 865 447 q 914 199 897 282 l 921 199 q 944 364 932 282 q 967 526 956 446 l 1047 1028 l 1243 1028 l 1053 0 l 797 0 l 682 508 q 658 629 669 571 q 638 746 647 688 l 632 746 q 610 629 621 688 q 588 508 600 571 l 475 0 l 224 0 l 25 1028 z "},"X":{"ha":871,"x_min":19,"x_max":851,"o":"m 308 531 l 38 1028 l 265 1028 l 368 817 q 403 742 386 781 q 444 654 421 703 l 451 654 q 487 742 471 703 q 519 817 503 781 l 617 1028 l 833 1028 l 563 521 l 851 0 l 624 0 l 508 228 q 470 309 489 268 q 428 397 451 350 l 422 397 q 385 309 403 350 q 347 228 367 268 l 238 0 l 19 0 l 308 531 z "},"Y":{"ha":807,"x_min":-8,"x_max":815,"o":"m 300 376 l -8 1028 l 210 1028 l 313 778 q 356 665 335 719 q 401 550 378 610 l 407 550 q 453 665 431 610 q 499 778 476 719 l 601 1028 l 815 1028 l 506 376 l 506 0 l 300 0 l 300 376 z "},"Z":{"ha":851,"x_min":60,"x_max":796,"o":"m 60 124 l 539 857 l 106 857 l 106 1028 l 790 1028 l 790 906 l 313 172 l 796 172 l 796 0 l 60 0 l 60 124 z "},"[":{"ha":525,"x_min":140,"x_max":458,"o":"m 140 1185 l 458 1185 l 458 1076 l 293 1076 l 293 -60 l 458 -60 l 458 -171 l 140 -171 l 140 1185 z "},"\\":{"ha":539,"x_min":39,"x_max":519,"o":"m 39 1188 l 174 1188 l 519 -183 l 383 -183 l 39 1188 z "},"]":{"ha":525,"x_min":67,"x_max":385,"o":"m 67 -60 l 232 -60 l 232 1076 l 67 1076 l 67 1185 l 385 1185 l 385 -171 l 67 -171 l 67 -60 z "},"^":{"ha":703,"x_min":58,"x_max":649,"o":"m 289 1025 l 418 1025 l 649 589 l 489 589 l 353 846 l 221 589 l 58 590 l 289 1025 z "},"_":{"ha":788,"x_min":19,"x_max":769,"o":"m 19 24 l 769 24 l 769 -96 l 19 -96 l 19 24 z "},"`":{"ha":869,"x_min":153,"x_max":531,"o":"m 153 1147 l 293 1283 l 531 1001 l 429 903 l 153 1147 z "},"a":{"ha":821,"x_min":64,"x_max":722,"o":"m 301 -14 q 134 48 197 -14 q 71 211 71 110 q 170 423 64 354 q 518 499 276 492 q 500 597 524 547 q 386 633 475 633 q 273 614 332 633 q 161 560 214 594 l 100 706 q 248 771 164 744 q 424 797 332 797 q 722 454 722 797 l 722 0 l 556 0 l 540 79 l 536 79 q 427 11 486 36 q 301 -14 368 -14 m 364 142 q 445 162 408 143 q 518 217 482 181 l 518 374 q 447 367 482 371 q 378 358 411 364 q 284 318 311 349 q 258 246 257 288 q 290 169 260 197 q 364 142 319 142 z "},"b":{"ha":894,"x_min":110,"x_max":831,"o":"m 500 -19 q 394 7 447 -19 q 292 82 340 33 l 288 82 l 269 0 l 110 0 l 110 1108 l 313 1108 l 313 829 l 308 704 q 410 772 354 746 q 524 797 465 797 q 653 769 596 797 q 749 689 710 740 q 810 565 789 638 q 831 403 831 492 q 803 224 831 303 q 729 92 775 146 q 624 9 683 38 q 500 -19 564 -19 m 454 149 q 573 209 525 149 q 621 399 621 269 q 584 570 621 511 q 467 629 547 629 q 390 609 426 629 q 313 549 353 589 l 313 207 q 385 162 349 175 q 454 149 422 149 z "},"c":{"ha":732,"x_min":61,"x_max":694,"o":"m 440 -19 q 290 8 360 -19 q 170 88 221 36 q 90 216 119 140 q 61 388 61 292 q 94 561 61 485 q 181 690 126 638 q 307 769 235 742 q 458 797 379 797 q 586 772 531 797 q 685 711 642 747 l 588 579 q 530 617 558 604 q 468 631 501 631 q 324 565 379 631 q 269 388 269 500 q 281 300 269 343 q 315 223 292 257 q 376 168 339 189 q 463 147 413 147 q 543 165 504 147 q 614 210 582 182 l 694 75 q 573 3 639 26 q 440 -19 507 -19 z "},"d":{"ha":894,"x_min":65,"x_max":785,"o":"m 383 -19 q 252 8 311 -19 q 151 89 193 36 q 88 217 110 142 q 65 388 65 292 q 92 559 65 483 q 165 688 119 635 q 270 769 211 740 q 392 797 329 797 q 503 774 458 797 q 589 713 547 751 l 581 835 l 581 1108 l 785 1108 l 785 0 l 619 0 l 603 81 l 599 81 q 501 10 556 39 q 383 -19 446 -19 m 436 149 q 512 167 476 149 q 581 229 547 185 l 581 571 q 508 616 544 603 q 436 629 472 629 q 323 568 371 629 q 275 390 275 507 q 436 149 275 149 z "},"e":{"ha":807,"x_min":61,"x_max":749,"o":"m 447 -19 q 296 8 367 -19 q 173 88 225 36 q 91 216 121 140 q 61 388 61 292 q 92 558 61 482 q 173 687 122 633 q 289 769 224 740 q 424 797 354 797 q 565 769 504 797 q 666 692 625 742 q 728 574 707 642 q 749 425 749 506 q 746 372 749 397 q 739 332 743 346 l 260 332 q 330 187 272 236 q 475 138 388 138 q 566 151 524 138 q 650 192 608 165 l 719 67 q 592 3 661 26 q 447 -19 522 -19 m 574 467 q 538 592 574 546 q 426 639 501 639 q 316 595 364 639 q 257 467 268 551 l 574 467 z "},"f":{"ha":517,"x_min":40,"x_max":563,"o":"m 525 950 q 484 962 506 957 q 443 967 463 967 q 373 939 397 967 q 349 844 349 911 l 349 778 l 494 778 l 494 617 l 349 617 l 349 0 l 144 0 l 144 617 l 40 617 l 40 768 l 144 776 l 144 840 q 159 954 144 901 q 206 1045 174 1007 q 290 1106 239 1083 q 415 1128 342 1128 q 498 1119 460 1128 q 563 1100 536 1111 l 525 950 z "},"g":{"ha":829,"x_min":58,"x_max":806,"o":"m 383 -337 q 256 -326 315 -337 q 152 -289 196 -314 q 83 -226 108 -264 q 58 -137 58 -189 q 88 -48 58 -89 q 169 24 117 -7 l 169 31 q 119 81 139 50 q 99 161 99 113 q 124 244 99 206 q 185 307 150 282 l 185 313 q 113 394 144 342 q 82 515 82 447 q 108 637 82 585 q 177 725 133 689 q 277 779 221 761 q 396 797 333 797 q 458 792 428 797 q 513 778 489 786 l 793 778 l 793 628 l 660 628 q 685 577 675 608 q 696 510 696 546 q 672 395 696 444 q 608 313 649 346 q 513 263 568 279 q 396 246 458 246 q 347 251 372 246 q 296 264 321 256 q 271 235 279 250 q 263 197 263 221 q 288 149 263 165 q 385 133 314 133 l 517 133 q 733 88 660 133 q 806 -61 806 43 q 776 -170 806 -119 q 692 -258 747 -221 q 560 -317 638 -296 q 383 -337 482 -337 m 396 372 q 482 408 447 372 q 517 515 517 444 q 483 622 517 586 q 396 658 449 658 q 308 622 343 658 q 274 515 274 586 q 309 408 274 444 q 396 372 344 372 m 414 -208 q 556 -175 501 -208 q 611 -96 611 -142 q 578 -40 611 -54 q 482 -26 544 -26 l 388 -26 q 326 -24 351 -26 q 279 -15 300 -21 q 228 -106 228 -57 q 277 -181 228 -154 q 414 -208 326 -208 z "},"h":{"ha":889,"x_min":110,"x_max":789,"o":"m 110 1108 l 313 1108 l 313 829 l 304 683 q 410 763 351 728 q 549 797 469 797 q 732 715 675 797 q 789 485 789 632 l 789 0 l 585 0 l 585 460 q 559 587 585 551 q 475 622 533 622 q 392 600 426 622 q 313 535 357 578 l 313 0 l 110 0 l 110 1108 z "},"i":{"ha":383,"x_min":90,"x_max":294,"o":"m 90 0 l 90 778 l 293 778 l 293 0 l 90 0 m 294 903 l 92 903 l 92 1100 l 294 1100 l 294 903 z "},"j":{"ha":403,"x_min":-75,"x_max":315,"o":"m 315 903 l 113 903 l 113 1100 l 315 1100 l 315 903 m 56 -318 q -20 -312 11 -318 q -75 -297 -51 -306 l -39 -146 q 25 -157 8 -157 q 93 -124 75 -157 q 111 -25 111 -92 l 111 778 l 315 778 l 315 -19 q 302 -136 315 -82 q 259 -231 289 -190 q 179 -295 229 -272 q 56 -318 129 -318 z "},"k":{"ha":840,"x_min":110,"x_max":831,"o":"m 110 1108 l 308 1108 l 308 442 l 314 442 l 583 778 l 806 778 l 536 460 l 831 0 l 610 0 l 421 322 l 308 194 l 308 0 l 110 0 l 110 1108 z "},"l":{"ha":438,"x_min":110,"x_max":313,"o":"m 110 0 l 110 1108 l 313 1108 l 313 0 l 110 0 z "},"m":{"ha":1339,"x_min":110,"x_max":1238,"o":"m 110 778 l 276 778 l 290 674 l 296 674 q 401 761 344 725 q 535 797 458 797 q 669 763 618 797 q 749 661 721 728 q 860 758 801 719 q 996 797 919 797 q 1180 715 1122 797 q 1238 485 1238 632 l 1238 0 l 1033 0 l 1033 460 q 1007 587 1033 551 q 925 622 981 622 q 775 535 858 622 l 775 0 l 571 0 l 571 460 q 544 587 571 551 q 463 622 518 622 q 313 535 396 622 l 313 0 l 110 0 l 110 778 z "},"n":{"ha":890,"x_min":110,"x_max":789,"o":"m 110 778 l 276 778 l 290 675 l 296 675 q 408 761 347 725 q 549 797 469 797 q 732 715 675 797 q 789 485 789 632 l 789 0 l 585 0 l 585 460 q 559 587 585 551 q 475 622 533 622 q 392 600 426 622 q 313 535 357 578 l 313 0 l 110 0 l 110 778 z "},"o":{"ha":869,"x_min":61,"x_max":808,"o":"m 435 -19 q 294 8 363 -19 q 175 88 226 36 q 92 216 124 140 q 61 388 61 292 q 92 561 61 485 q 175 690 124 638 q 294 769 226 742 q 435 797 363 797 q 576 769 508 797 q 694 690 643 742 q 777 561 746 638 q 808 388 808 485 q 777 216 808 292 q 694 88 746 140 q 576 8 643 36 q 435 -19 508 -19 m 435 147 q 557 213 514 147 q 600 388 600 278 q 557 565 600 500 q 435 631 514 631 q 313 565 356 631 q 269 388 269 500 q 313 213 269 278 q 435 147 356 147 z "},"p":{"ha":894,"x_min":110,"x_max":831,"o":"m 110 778 l 276 778 l 290 697 l 296 697 q 403 768 344 739 q 525 797 463 797 q 653 769 597 797 q 749 689 710 740 q 810 565 789 638 q 831 401 831 492 q 803 223 831 301 q 729 91 775 144 q 624 9 683 38 q 500 -19 564 -19 q 400 3 449 -19 q 307 65 351 25 l 313 -62 l 313 -299 l 110 -299 l 110 778 m 454 149 q 573 209 525 149 q 621 399 621 269 q 584 570 621 511 q 467 629 547 629 q 390 609 426 629 q 313 549 353 589 l 313 207 q 386 162 350 175 q 454 149 422 149 z "},"q":{"ha":894,"x_min":65,"x_max":785,"o":"m 581 -51 l 589 74 q 495 7 549 33 q 383 -19 442 -19 q 252 8 311 -19 q 151 89 193 36 q 88 217 110 142 q 65 388 65 292 q 92 559 65 483 q 165 688 119 635 q 270 769 211 740 q 392 797 329 797 q 507 774 458 797 q 603 701 556 750 l 608 701 l 625 778 l 785 778 l 785 -299 l 581 -299 l 581 -51 m 436 149 q 512 167 476 149 q 581 229 547 185 l 581 571 q 508 616 544 603 q 436 629 472 629 q 323 568 371 629 q 275 390 275 507 q 436 149 275 149 z "},"r":{"ha":606,"x_min":110,"x_max":608,"o":"m 110 778 l 276 778 l 290 640 l 296 640 q 397 757 339 717 q 517 797 454 797 q 569 792 549 797 q 608 781 590 788 l 572 604 q 534 614 553 611 q 492 617 515 617 q 396 583 446 617 q 313 464 346 549 l 313 0 l 110 0 l 110 778 z "},"s":{"ha":688,"x_min":36,"x_max":642,"o":"m 332 -19 q 174 11 253 -19 q 36 90 94 42 l 129 218 q 233 156 182 178 q 338 133 283 133 q 423 156 396 133 q 450 215 450 179 q 436 253 450 238 q 399 283 422 269 q 347 308 376 296 q 288 332 318 319 q 213 365 250 346 q 144 410 175 383 q 94 474 114 438 q 75 558 75 510 q 96 655 75 611 q 154 731 117 699 q 245 780 192 763 q 364 797 299 797 q 516 767 451 797 q 629 701 581 738 l 538 578 q 455 626 496 607 q 369 644 414 644 q 292 624 317 644 q 267 569 267 603 q 280 533 267 549 q 315 506 293 518 q 366 483 338 493 q 425 461 394 472 q 502 428 464 446 q 572 383 540 410 q 622 319 603 357 q 642 226 642 281 q 622 131 642 175 q 563 53 601 86 q 466 0 524 19 q 332 -19 408 -19 z "},"t":{"ha":583,"x_min":29,"x_max":558,"o":"m 394 -19 q 276 1 325 -19 q 197 60 228 22 q 153 153 167 99 q 139 272 139 207 l 139 617 l 29 617 l 29 768 l 149 778 l 172 986 l 343 986 l 343 778 l 535 778 l 535 617 l 343 617 l 343 272 q 449 142 343 142 q 489 147 468 142 q 525 158 510 151 l 558 10 q 486 -10 526 -1 q 394 -19 446 -19 z "},"u":{"ha":885,"x_min":101,"x_max":776,"o":"m 340 -19 q 158 63 214 -19 q 101 292 101 144 l 101 778 l 306 778 l 306 318 q 331 191 306 226 q 414 156 356 156 q 497 178 463 156 q 572 253 532 200 l 572 778 l 776 778 l 776 0 l 610 0 l 594 111 l 589 111 q 480 16 539 51 q 340 -19 421 -19 z "},"v":{"ha":800,"x_min":19,"x_max":781,"o":"m 19 778 l 225 778 l 339 390 q 370 273 354 332 q 401 154 386 214 l 408 154 q 440 273 424 214 q 471 390 456 332 l 585 778 l 781 778 l 521 0 l 285 0 l 19 778 z "},"w":{"ha":1199,"x_min":38,"x_max":1160,"o":"m 38 778 l 242 778 l 326 393 q 346 280 338 335 q 365 167 354 225 l 371 167 q 393 281 382 225 q 419 393 404 338 l 513 778 l 694 778 l 792 393 q 817 280 806 335 q 840 167 828 225 l 847 167 q 867 280 858 225 q 886 393 875 335 l 971 778 l 1160 778 l 968 0 l 728 0 l 646 339 q 623 449 633 394 q 601 565 613 503 l 594 565 q 574 448 583 503 q 551 339 564 393 l 472 0 l 239 0 l 38 778 z "},"x":{"ha":781,"x_min":22,"x_max":758,"o":"m 265 406 l 38 778 l 257 778 l 335 639 q 369 573 353 606 q 404 508 386 540 l 410 508 q 438 574 424 540 q 467 639 453 607 l 532 778 l 743 778 l 515 382 l 758 0 l 539 0 l 453 142 q 415 211 433 176 q 378 279 397 246 l 371 279 q 338 212 354 246 q 306 142 322 178 l 233 0 l 22 0 l 265 406 z "},"y":{"ha":797,"x_min":18,"x_max":778,"o":"m 413 -312 l 211 -312 l 319 -4 l 18 778 l 224 778 l 347 417 q 381 310 365 364 q 413 197 396 256 l 419 197 q 447 307 433 251 q 475 417 461 363 l 582 778 l 778 778 l 508 -22 l 413 -312 z "},"z":{"ha":710,"x_min":57,"x_max":671,"o":"m 57 110 l 404 617 l 96 617 l 96 778 l 660 778 l 660 668 l 311 161 l 671 161 l 671 0 l 57 0 l 57 110 z "},"{":{"ha":525,"x_min":50,"x_max":458,"o":"m 368 -171 q 219 -123 267 -171 q 171 50 171 -75 q 173 126 171 92 q 178 193 175 161 q 183 258 181 225 q 185 328 185 290 q 178 371 185 350 q 156 408 172 392 q 115 435 140 425 q 50 447 89 446 l 50 568 q 115 578 89 568 q 156 606 140 589 q 178 644 172 622 q 185 686 185 665 q 183 756 185 724 q 178 822 181 789 q 173 888 175 854 q 171 964 171 922 q 183 1070 171 1028 q 219 1138 194 1113 q 280 1174 243 1164 q 368 1185 317 1185 l 458 1185 l 458 1076 l 426 1076 q 354 1051 372 1076 q 336 956 336 1026 q 340 828 336 889 q 343 692 343 767 q 317 565 343 604 q 232 511 290 525 l 232 504 q 317 451 290 490 q 343 324 343 411 q 340 188 343 249 q 336 60 336 126 q 354 -35 336 -11 q 426 -60 372 -60 l 458 -60 l 458 -171 l 368 -171 z "},"|":{"ha":411,"x_min":140,"x_max":272,"o":"m 140 1192 l 272 1192 l 272 -194 l 140 -194 l 140 1192 z "},"}":{"ha":525,"x_min":67,"x_max":474,"o":"m 67 -60 l 99 -60 q 170 -35 151 -60 q 189 60 189 -11 q 185 188 189 126 q 182 324 182 249 q 208 451 182 411 q 293 504 235 490 l 293 511 q 208 565 235 525 q 182 692 182 604 q 185 828 182 767 q 189 956 189 889 q 170 1051 189 1026 q 99 1076 151 1076 l 67 1076 l 67 1185 l 157 1185 q 245 1174 208 1185 q 306 1138 282 1164 q 342 1070 331 1113 q 354 964 354 1028 q 352 888 354 922 q 347 822 350 854 q 341 756 343 789 q 339 686 339 724 q 345 644 339 665 q 367 606 351 622 q 409 578 383 589 q 474 568 435 568 l 474 447 q 409 435 435 446 q 367 408 383 425 q 345 371 351 392 q 339 328 339 350 q 341 258 339 290 q 347 193 343 225 q 352 126 350 161 q 354 50 354 92 q 307 -123 354 -75 q 157 -171 260 -171 l 67 -171 l 67 -60 z "},"~":{"ha":818,"x_min":49,"x_max":769,"o":"m 544 386 q 460 406 496 386 q 392 448 424 425 q 333 490 361 471 q 271 508 304 508 q 156 417 206 508 l 49 497 q 160 619 103 585 q 275 654 217 654 q 359 635 322 654 q 427 594 396 617 q 487 551 458 571 q 547 532 515 532 q 663 622 613 532 l 769 542 q 660 422 717 457 q 544 386 603 386 z "},"¡":{"ha":514,"x_min":154,"x_max":360,"o":"m 154 797 l 357 797 l 357 600 l 154 600 l 154 797 m 324 483 l 353 -85 l 360 -278 l 154 -278 l 161 -85 l 190 483 l 324 483 z "},"¤":{"ha":818,"x_min":35,"x_max":785,"o":"m 35 243 l 132 342 q 78 518 78 415 q 131 696 78 622 l 35 794 l 136 897 l 246 789 q 324 822 282 810 q 410 833 365 833 q 494 822 453 833 q 572 789 536 810 l 682 897 l 785 794 l 686 696 q 742 518 742 624 q 726 422 742 465 q 686 342 711 378 l 785 243 l 682 139 l 572 250 q 493 217 535 228 q 410 207 451 207 q 246 250 318 207 l 136 139 l 35 243 m 410 350 q 516 396 472 350 q 560 518 560 442 q 516 642 560 596 q 410 689 472 689 q 303 642 347 689 q 260 518 260 596 q 303 396 260 442 q 410 350 347 350 z "},"¥":{"ha":969,"x_min":26,"x_max":949,"o":"m 390 201 l 114 201 l 114 306 l 390 306 l 390 392 l 114 392 l 114 497 l 339 497 l 26 1019 l 249 1019 q 308 899 281 956 q 363 790 336 842 q 404 703 383 746 q 442 627 425 661 q 471 571 460 593 q 483 544 482 549 l 493 544 q 506 571 494 549 q 534 627 517 593 q 572 703 551 661 q 614 790 593 746 q 726 1019 664 893 l 949 1019 l 632 497 l 857 497 l 857 392 l 585 392 l 585 306 l 857 306 l 857 201 l 585 201 l 585 -8 l 390 -8 l 390 201 z "},"§":{"ha":1389,"x_min":340,"x_max":1047,"o":"m 943 907 q 855 942 908 926 q 726 957 801 957 q 615 931 654 957 q 576 868 576 904 q 623 798 576 824 q 757 747 669 772 q 874 706 821 728 q 966 652 928 683 q 1026 579 1004 621 q 1047 481 1047 538 q 1019 369 1047 418 q 944 286 990 319 q 988 231 967 268 q 1010 142 1010 193 q 979 28 1010 75 q 900 -50 949 -19 q 791 -95 851 -81 q 671 -110 731 -110 q 521 -94 596 -110 q 388 -40 446 -79 l 431 89 q 528 45 465 68 q 669 22 590 22 q 784 49 742 22 q 826 122 826 76 q 785 193 826 164 q 643 253 744 222 q 522 295 578 272 q 426 349 467 318 q 363 420 386 379 q 340 517 340 461 q 369 618 340 565 q 461 707 399 671 q 418 767 436 728 q 400 847 400 806 q 425 949 400 904 q 494 1024 450 993 q 599 1072 538 1056 q 732 1089 660 1089 q 867 1075 804 1089 q 979 1036 929 1061 l 943 907 m 558 647 q 500 553 500 613 q 532 484 500 515 q 653 424 564 453 q 767 383 719 400 q 839 354 815 367 q 875 395 863 369 q 888 449 888 421 q 851 520 888 492 q 764 570 815 549 q 656 609 713 592 q 558 647 600 626 z "},"¨":{"ha":869,"x_min":165,"x_max":704,"o":"m 268 904 q 194 934 224 904 q 165 1007 165 964 q 194 1081 165 1051 q 268 1111 224 1111 q 343 1081 314 1111 q 372 1007 372 1051 q 343 934 372 964 q 268 904 314 904 m 601 904 q 526 934 556 904 q 497 1007 497 964 q 526 1081 497 1051 q 601 1111 556 1111 q 675 1081 646 1111 q 704 1007 704 1051 q 675 934 704 964 q 601 904 646 904 z "},"«":{"ha":735,"x_min":51,"x_max":671,"o":"m 51 371 l 51 426 l 292 704 l 383 626 l 194 397 l 386 167 l 293 92 l 51 371 m 336 371 l 336 426 l 576 704 l 668 626 l 479 397 l 671 167 l 578 92 l 336 371 z "},"°":{"ha":561,"x_min":63,"x_max":500,"o":"m 281 640 q 197 656 236 640 q 127 701 157 672 q 80 771 97 731 q 63 860 63 811 q 80 949 63 908 q 127 1018 97 989 q 197 1064 157 1047 q 281 1081 236 1081 q 367 1064 326 1081 q 436 1018 407 1047 q 483 949 465 989 q 500 860 500 908 q 483 771 500 811 q 436 701 465 731 q 367 656 407 672 q 281 640 326 640 m 281 742 q 360 774 329 742 q 390 860 390 807 q 360 946 390 913 q 281 979 329 979 q 202 946 232 979 q 172 860 172 913 q 202 774 172 807 q 281 742 232 742 z "},"±":{"ha":1389,"x_min":201,"x_max":1199,"o":"m 1188 636 l 765 636 l 765 285 l 624 285 l 624 636 l 201 636 l 201 776 l 624 776 l 624 1128 l 765 1128 l 765 776 l 1188 776 l 1188 636 m 1199 154 l 1199 13 l 201 13 l 201 154 l 1199 154 z "},"²":{"ha":589,"x_min":47,"x_max":521,"o":"m 74 682 q 274 865 199 788 q 349 1003 349 942 q 323 1080 349 1051 q 251 1108 297 1108 q 190 1087 218 1108 q 135 1031 161 1065 l 47 1108 q 275 1232 139 1232 q 435 1180 375 1232 q 496 1028 496 1128 q 481 952 496 989 q 442 878 467 915 q 385 804 418 842 q 315 726 353 767 l 521 726 l 521 600 l 74 600 l 74 682 z "},"³":{"ha":589,"x_min":47,"x_max":524,"o":"m 290 581 q 149 613 211 581 q 47 704 86 646 l 140 776 q 276 696 194 696 q 345 718 317 696 q 374 781 374 740 q 215 869 374 869 l 215 957 q 315 979 279 957 q 351 1043 351 1001 q 328 1097 351 1078 q 265 1117 306 1117 q 208 1098 235 1117 q 158 1051 181 1079 l 72 1129 q 169 1206 119 1181 q 290 1232 219 1232 q 370 1220 332 1232 q 438 1187 408 1208 q 483 1134 467 1165 q 500 1064 500 1103 q 475 978 500 1013 q 406 919 450 943 q 489 865 454 901 q 524 769 524 828 q 505 692 524 726 q 454 632 486 657 q 380 594 422 607 q 290 581 338 581 z "},"´":{"ha":869,"x_min":339,"x_max":715,"o":"m 339 1001 l 576 1283 l 715 1147 l 440 903 l 339 1001 z "},"¶":{"ha":1389,"x_min":326,"x_max":988,"o":"m 614 417 l 604 417 q 521 434 568 417 q 431 488 474 451 q 359 580 389 524 q 328 715 329 636 q 346 843 326 779 q 417 958 365 907 q 556 1042 468 1010 q 779 1075 644 1075 q 901 1071 850 1075 q 988 1060 953 1067 l 988 -78 l 857 -78 l 857 946 l 744 946 l 744 -78 l 614 -78 l 614 417 z "},"·":{"ha":764,"x_min":281,"x_max":483,"o":"m 483 418 l 281 418 l 281 615 l 483 615 l 483 418 z "},"¸":{"ha":869,"x_min":269,"x_max":582,"o":"m 269 -286 q 398 -265 363 -281 q 433 -214 433 -249 q 408 -172 433 -189 q 313 -144 383 -156 l 386 6 l 508 6 l 464 -97 q 552 -137 522 -111 q 582 -212 582 -164 q 505 -328 582 -292 q 285 -372 428 -365 l 269 -286 z "},"¹":{"ha":589,"x_min":125,"x_max":415,"o":"m 263 1054 l 125 1054 l 125 1147 q 221 1172 185 1157 q 294 1214 257 1188 l 415 1214 l 415 600 l 263 600 l 263 1054 z "},"»":{"ha":735,"x_min":72,"x_max":692,"o":"m 692 424 l 692 368 l 451 90 l 360 168 l 549 397 l 357 628 l 450 703 l 692 424 m 407 424 l 407 368 l 167 90 l 75 168 l 264 397 l 72 628 l 165 703 l 407 424 z "},"¼":{"ha":1263,"x_min":81,"x_max":1239,"o":"m 971 1047 l 413 -19 l 290 -19 l 849 1047 l 971 1047 m 218 414 l 218 868 l 81 868 l 81 963 q 176 988 140 972 q 250 1028 213 1003 l 369 1028 l 369 414 l 218 414 m 1239 144 l 1147 144 l 1147 0 l 1014 0 l 1014 144 l 732 144 l 732 219 l 964 614 l 1147 614 l 1147 244 l 1239 244 l 1239 144 m 1014 244 l 1014 322 l 1022 503 l 1015 503 l 875 244 l 1014 244 z "},"½":{"ha":1317,"x_min":81,"x_max":1247,"o":"m 822 1047 l 943 1047 l 385 -19 l 264 -19 l 822 1047 m 218 868 l 81 868 l 81 963 q 176 988 140 972 q 250 1028 213 1003 l 369 1028 l 369 414 l 218 414 l 218 868 m 800 82 q 1001 265 925 188 q 1076 403 1076 343 q 1050 481 1076 453 q 979 508 1024 508 q 917 487 946 508 q 861 429 888 465 l 775 508 q 1001 633 867 633 q 1162 581 1101 633 q 1222 428 1222 528 q 1208 353 1222 390 q 1169 278 1194 315 q 1112 204 1144 242 q 1042 128 1079 167 l 1247 128 l 1247 0 l 800 0 l 800 82 z "},"¾":{"ha":1279,"x_min":42,"x_max":1256,"o":"m 67 943 q 165 1022 114 996 q 286 1047 215 1047 q 366 1035 328 1047 q 433 1002 404 1024 q 479 949 463 981 q 496 879 496 918 q 471 793 496 828 q 401 735 446 758 q 484 678 450 715 q 518 583 518 642 q 499 507 518 542 q 449 447 481 472 q 375 409 417 422 q 286 396 333 396 q 144 428 207 396 q 42 518 81 460 l 135 592 q 271 511 193 511 q 342 533 313 511 q 371 594 371 554 q 211 683 371 683 l 211 772 q 311 794 275 772 q 347 857 347 817 q 324 912 347 892 q 261 932 300 932 q 203 913 229 932 q 154 867 176 894 l 67 943 m 1011 1047 l 453 -19 l 332 -19 l 892 1047 l 1011 1047 m 1256 144 l 1164 144 l 1164 0 l 1029 0 l 1029 144 l 749 144 l 749 219 l 979 614 l 1164 614 l 1164 244 l 1256 244 l 1256 144 m 1029 244 l 1029 322 l 1039 503 l 1032 503 l 889 244 l 1029 244 z "},"¿":{"ha":715,"x_min":69,"x_max":678,"o":"m 278 600 l 278 797 l 481 797 l 481 600 l 278 600 m 457 486 q 458 336 468 396 q 425 235 447 276 q 373 167 403 194 q 317 115 343 140 q 272 59 290 89 q 254 -15 254 29 q 281 -106 254 -69 q 365 -143 307 -143 q 461 -103 424 -143 q 504 21 499 -62 l 678 21 q 641 -133 672 -71 q 565 -233 610 -196 q 465 -285 519 -271 q 360 -297 411 -300 q 245 -276 299 -294 q 153 -223 192 -257 q 92 -140 114 -189 q 69 -29 69 -92 q 90 92 69 46 q 139 168 110 138 q 201 223 168 199 q 259 279 233 247 q 298 359 285 311 q 300 486 311 407 l 457 486 z "},"×":{"ha":1389,"x_min":239,"x_max":1153,"o":"m 1053 71 l 696 428 l 339 71 l 239 171 l 596 528 l 239 885 l 339 985 l 696 628 l 1053 985 l 1153 885 l 796 528 l 1153 171 l 1053 71 z "},"÷":{"ha":1389,"x_min":201,"x_max":1188,"o":"m 574 876 q 609 961 574 925 q 694 997 644 997 q 780 961 744 997 q 815 876 815 925 q 780 791 815 826 q 694 756 744 756 q 609 791 644 756 q 574 876 574 826 m 1188 597 l 1188 456 l 201 456 l 201 597 l 1188 597 m 574 176 q 609 262 574 226 q 694 297 644 297 q 780 262 744 297 q 815 176 815 226 q 780 92 815 128 q 694 56 744 56 q 609 92 644 56 q 574 176 574 128 z "},"ˇ":{"ha":1389,"x_min":286,"x_max":1103,"o":"m 1103 772 l 696 174 l 286 774 l 496 774 l 694 460 l 883 772 l 1103 772 z "},"˙":{"ha":1389,"x_min":553,"x_max":833,"o":"m 694 390 q 638 401 664 390 q 592 432 611 413 q 563 476 574 451 q 553 529 553 501 q 563 585 553 558 q 590 632 572 611 q 635 665 608 653 q 694 676 661 676 q 797 633 761 676 q 833 529 833 589 q 797 431 833 471 q 694 389 761 390 l 694 390 z "},"‘":{"ha":351,"x_min":92,"x_max":290,"o":"m 93 979 q 106 1063 92 1024 q 146 1134 119 1103 q 210 1186 172 1165 q 290 1213 247 1207 l 290 1121 q 218 1068 238 1101 q 199 981 199 1035 l 288 981 l 288 778 l 93 778 l 93 979 z "},"’":{"ha":351,"x_min":65,"x_max":265,"o":"m 263 1014 q 251 930 265 969 q 210 859 236 890 q 147 808 183 828 q 65 781 110 788 l 65 872 q 137 926 117 892 q 157 1013 157 960 l 68 1013 l 68 1215 l 263 1215 l 263 1014 z "},"“":{"ha":642,"x_min":118,"x_max":592,"o":"m 119 974 q 132 1058 118 1018 q 173 1128 146 1097 q 237 1181 200 1160 q 317 1207 274 1201 l 317 1115 q 244 1063 264 1096 q 225 975 225 1029 l 314 975 l 314 772 l 119 772 l 119 974 m 394 974 q 407 1058 393 1018 q 447 1128 421 1097 q 511 1181 474 1160 q 592 1207 549 1201 l 592 1115 q 519 1063 539 1096 q 500 975 500 1029 l 589 975 l 589 772 l 394 772 l 394 974 z "},"”":{"ha":638,"x_min":90,"x_max":565,"o":"m 563 1007 q 551 922 565 961 q 510 851 536 882 q 447 801 483 821 q 365 774 410 781 l 365 865 q 437 919 417 885 q 457 1006 457 953 l 368 1006 l 368 1208 l 563 1208 l 563 1007 m 288 1007 q 276 923 290 963 q 235 852 261 883 q 172 801 208 821 q 90 774 135 781 l 90 865 q 162 919 142 885 q 182 1006 182 953 l 93 1006 l 93 1208 l 288 1208 l 288 1007 z "},"†":{"ha":1389,"x_min":350,"x_max":1039,"o":"m 772 749 l 1039 763 l 1039 600 l 772 614 l 788 -79 l 601 -79 l 617 614 l 350 600 l 350 763 l 617 749 l 601 1072 l 788 1072 l 772 749 z "},"‡":{"ha":1389,"x_min":350,"x_max":1039,"o":"m 772 771 l 1039 783 l 1039 621 l 772 635 l 774 363 l 1039 376 l 1039 214 l 772 228 l 788 -79 l 601 -79 l 617 228 l 350 214 l 350 376 l 617 363 l 617 635 l 350 621 l 350 783 l 617 771 l 601 1072 l 788 1072 l 772 771 z "},"‥":{"ha":1389,"x_min":246,"x_max":1143,"o":"m 449 429 l 246 429 l 246 626 l 449 626 l 449 429 m 1143 429 l 940 429 l 940 626 l 1143 626 l 1143 429 z "},"…":{"ha":1389,"x_min":131,"x_max":1258,"o":"m 1258 429 l 1056 429 l 1056 626 l 1258 626 l 1258 429 m 796 429 l 593 429 l 593 626 l 796 626 l 796 429 m 333 429 l 131 429 l 131 626 l 333 626 l 333 429 z "},"‰":{"ha":1389,"x_min":42,"x_max":1347,"o":"m 706 1049 l 799 1049 l 254 -19 l 161 -19 l 706 1049 m 42 728 q 54 851 42 793 q 90 952 67 908 q 149 1021 114 996 q 228 1046 183 1046 q 312 1017 278 1046 q 367 944 346 989 q 396 842 388 899 q 404 732 404 786 q 389 590 404 650 q 349 492 374 531 q 292 435 324 454 q 226 417 260 417 q 141 444 176 417 q 84 515 106 471 q 52 615 63 558 q 42 728 42 671 m 289 728 q 286 815 289 774 q 276 886 283 856 q 256 934 269 917 q 222 951 243 951 q 172 890 188 951 q 157 732 157 829 q 171 569 157 628 q 225 511 185 511 q 276 572 264 511 q 289 728 289 633 m 557 303 q 569 426 557 368 q 606 527 582 483 q 664 596 629 571 q 743 621 699 621 q 827 592 793 621 q 882 519 861 564 q 911 417 903 474 q 919 307 919 361 q 904 165 919 225 q 864 67 889 106 q 807 10 839 29 q 742 -8 775 -8 q 656 19 692 -8 q 599 90 621 46 q 567 190 578 135 q 557 303 557 246 m 985 303 q 997 426 985 368 q 1033 527 1010 483 q 1092 596 1057 571 q 1171 621 1126 621 q 1255 592 1221 621 q 1310 519 1289 564 q 1339 417 1331 474 q 1347 307 1347 361 q 1332 165 1347 225 q 1292 67 1317 106 q 1235 10 1267 29 q 1169 -8 1203 -8 q 1084 19 1119 -8 q 1027 90 1049 46 q 995 190 1006 135 q 985 303 985 246 m 804 304 q 801 391 804 350 q 792 462 799 432 q 772 509 785 492 q 738 526 758 526 q 688 467 703 526 q 672 307 672 407 q 686 146 672 206 q 740 86 700 86 q 792 147 779 86 q 804 304 804 208 m 1232 304 q 1229 391 1232 350 q 1219 462 1226 432 q 1199 509 1213 492 q 1165 526 1186 526 q 1115 467 1129 526 q 1100 307 1100 407 q 1114 147 1100 207 q 1168 86 1128 86 q 1219 147 1207 86 q 1232 304 1232 208 z "},"′":{"ha":451,"x_min":129,"x_max":364,"o":"m 161 1083 l 364 1082 l 331 899 l 263 638 l 129 639 l 161 1083 z "},"″":{"ha":799,"x_min":129,"x_max":711,"o":"m 161 1083 l 364 1082 l 331 899 l 263 638 l 129 639 l 161 1083 m 507 1083 l 711 1082 l 678 899 l 610 638 l 476 639 l 507 1083 z "},"‹":{"ha":451,"x_min":54,"x_max":389,"o":"m 54 371 l 54 426 l 294 704 l 386 626 l 197 397 l 389 167 l 296 92 l 54 371 z "},"›":{"ha":451,"x_min":67,"x_max":401,"o":"m 401 422 l 401 367 l 161 89 l 69 167 l 258 396 l 67 626 l 160 701 l 401 422 z "},"※":{"ha":1353,"x_min":160,"x_max":1208,"o":"m 1090 -10 q 883 200 985 94 q 676 414 782 306 q 468 200 572 306 q 263 -10 364 94 q 212 37 235 14 q 165 83 189 60 l 589 501 q 376 710 483 606 q 165 919 269 815 q 211 969 189 943 q 253 1018 233 994 l 671 589 l 1094 1018 q 1139 969 1118 994 q 1183 919 1160 943 l 764 501 q 974 292 869 397 q 1188 83 1079 188 l 1090 -10 m 671 760 q 626 771 649 760 q 586 799 604 782 q 558 840 568 817 q 547 889 547 864 q 557 936 547 914 q 584 976 567 958 q 624 1003 601 993 q 671 1013 646 1013 q 719 1003 696 1013 q 761 976 743 993 q 790 936 779 958 q 800 889 800 914 q 790 840 800 864 q 763 799 781 817 q 722 771 744 782 q 671 760 699 760 m 289 372 q 240 383 264 372 q 199 411 217 393 q 171 451 182 429 q 160 496 160 474 q 171 544 160 521 q 199 586 182 568 q 240 615 217 604 q 289 625 264 625 q 335 615 313 625 q 374 586 357 604 q 402 544 392 568 q 413 496 413 521 q 403 451 413 474 q 376 411 393 429 q 336 383 358 393 q 289 372 314 372 m 1085 378 q 998 412 1035 378 q 961 496 961 446 q 998 588 961 550 q 1085 625 1035 625 q 1172 588 1135 625 q 1208 496 1208 550 q 1172 412 1208 446 q 1085 378 1135 378 m 671 -25 q 627 -15 649 -25 q 589 11 606 -6 q 563 51 572 28 q 553 99 553 74 q 587 185 553 149 q 671 222 621 222 q 719 213 696 222 q 761 185 743 203 q 790 146 779 168 q 800 99 800 124 q 763 11 800 47 q 671 -25 725 -25 z "},"₩":{"ha":1254,"x_min":56,"x_max":1193,"o":"m 1193 464 l 1054 464 l 975 -1 l 774 -1 l 743 151 q 713 301 729 218 q 681 464 696 383 l 567 464 q 535 301 551 383 q 506 151 519 218 l 475 -1 l 281 -1 l 197 464 l 56 464 l 56 571 l 178 571 l 96 1032 l 278 1032 l 342 571 l 467 571 q 488 676 474 607 q 524 844 503 744 l 550 971 l 711 971 l 736 844 q 772 676 757 744 q 793 571 786 607 l 919 571 l 979 1032 l 1149 1032 l 1071 571 l 1193 571 l 1193 464 m 660 571 l 625 761 l 586 571 l 660 571 m 393 199 q 396 210 394 201 q 400 231 397 218 q 421 335 404 254 q 435 407 428 375 q 447 464 442 439 l 356 464 q 372 340 358 438 q 383 256 379 292 q 390 199 388 221 l 393 199 m 813 464 q 822 415 818 439 q 832 369 826 392 q 847 290 840 325 q 865 199 854 254 l 871 199 q 881 286 874 221 q 903 464 889 351 l 813 464 z "},"℃":{"ha":1389,"x_min":39,"x_max":1358,"o":"m 260 642 q 174 658 214 642 q 103 704 133 675 q 56 774 74 733 q 39 863 39 815 q 56 951 39 911 q 103 1021 74 992 q 174 1067 133 1050 q 260 1083 214 1083 q 345 1067 306 1083 q 415 1021 385 1050 q 462 951 444 992 q 479 863 479 911 q 462 774 479 815 q 415 704 444 733 q 345 658 385 675 q 260 642 306 642 m 1035 -19 q 848 15 935 -19 q 697 117 761 50 q 595 282 632 183 q 558 510 558 381 q 597 738 558 638 q 700 908 635 839 q 853 1014 765 978 q 1040 1050 940 1050 q 1213 1010 1138 1050 q 1340 918 1289 971 l 1226 790 q 1144 850 1188 829 q 1043 871 1101 871 q 933 847 983 871 q 847 776 883 822 q 790 665 810 731 q 769 518 769 600 q 842 255 769 350 q 1038 160 915 160 q 1153 186 1104 160 q 1243 257 1203 213 l 1358 132 q 1035 -19 1232 -19 m 260 743 q 339 776 308 743 q 369 863 369 810 q 339 949 369 915 q 260 982 308 982 q 181 949 211 982 q 150 863 150 915 q 181 776 150 810 q 260 743 211 743 z "},"℉":{"ha":1389,"x_min":67,"x_max":1331,"o":"m 288 642 q 201 658 242 642 q 131 704 161 675 q 84 774 101 733 q 67 863 67 815 q 84 951 67 911 q 131 1021 101 992 q 201 1067 161 1050 q 288 1083 242 1083 q 373 1067 333 1083 q 442 1021 413 1050 q 490 951 472 992 q 507 863 507 911 q 490 774 507 815 q 442 704 472 733 q 373 658 413 675 q 288 642 333 642 m 694 1032 l 1331 1032 l 1331 858 l 900 858 l 900 590 l 1267 590 l 1267 418 l 900 418 l 900 0 l 694 0 l 694 1032 m 288 743 q 367 776 336 743 q 397 863 397 810 q 367 949 397 915 q 288 982 336 982 q 208 949 239 982 q 178 863 178 915 q 208 776 178 810 q 288 743 239 743 z "},"№":{"ha":1492,"x_min":78,"x_max":1467,"o":"m 151 -19 q 118 -17 128 -19 q 93 -11 108 -15 l 78 147 q 124 160 110 147 q 138 214 138 174 l 138 1001 l 361 1001 q 491 683 428 842 q 617 360 554 524 l 672 224 l 679 224 q 665 356 671 296 q 656 466 660 415 q 651 561 653 517 q 650 649 650 606 l 650 828 q 690 972 650 924 q 818 1021 731 1021 q 852 1019 842 1021 q 878 1013 863 1018 l 893 856 q 846 842 860 856 q 832 788 832 828 l 832 0 l 608 0 q 478 322 542 164 q 353 643 415 479 l 297 778 l 290 778 q 304 647 299 706 q 313 536 310 588 q 318 440 317 485 q 319 353 319 396 l 319 174 q 280 29 319 78 q 151 -19 240 -19 m 1211 426 q 1114 444 1160 426 q 1033 494 1068 461 q 976 576 997 528 q 956 686 956 624 q 976 798 956 749 q 1033 881 997 847 q 1114 931 1068 914 q 1211 949 1160 949 q 1309 931 1263 949 q 1390 881 1356 914 q 1446 798 1425 847 q 1467 686 1467 749 q 1446 576 1467 624 q 1390 494 1425 528 q 1309 444 1356 461 q 1211 426 1263 426 m 1211 553 q 1281 586 1256 553 q 1307 686 1307 619 q 1281 790 1307 757 q 1211 822 1256 822 q 1141 790 1167 822 q 1115 686 1115 757 q 1141 586 1115 619 q 1211 553 1167 553 m 1006 322 l 1417 322 l 1417 211 l 1006 211 l 1006 322 z "},"℡":{"ha":1389,"x_min":35,"x_max":1361,"o":"m 178 882 l 35 882 l 35 1032 l 483 1032 l 483 882 l 340 882 l 340 0 l 178 0 l 178 882 m 544 829 l 907 829 l 907 692 l 707 692 l 707 489 l 854 489 l 854 361 l 707 361 l 707 138 l 922 138 l 922 0 l 544 0 l 544 829 m 1003 829 l 1165 829 l 1165 146 l 1361 146 l 1361 0 l 1003 0 l 1003 829 z "},"™":{"ha":1056,"x_min":6,"x_max":1017,"o":"m 147 942 l 6 942 l 6 1065 l 426 1065 l 426 942 l 283 942 l 283 572 l 147 572 l 147 942 m 496 1065 l 650 1065 l 715 903 l 753 792 l 760 792 l 797 903 l 860 1065 l 1017 1065 l 1017 572 l 892 572 l 892 740 l 907 918 l 901 918 l 804 646 l 707 646 l 611 918 l 604 918 l 621 740 l 621 572 l 496 572 l 496 1065 z "},"Å":{"ha":1389,"x_min":242,"x_max":1147,"o":"m 857 264 l 525 264 l 453 0 l 242 0 l 560 992 q 488 1060 514 1018 q 463 1161 463 1103 q 526 1306 463 1253 q 690 1358 589 1358 q 782 1344 740 1358 q 854 1305 824 1331 q 901 1242 885 1279 q 918 1161 918 1206 q 894 1064 918 1106 q 826 996 869 1022 l 1147 0 l 929 0 l 857 264 m 690 1257 q 617 1228 646 1257 q 588 1150 588 1199 q 617 1069 588 1097 q 690 1042 646 1042 q 763 1069 733 1042 q 793 1150 793 1097 q 763 1228 793 1199 q 690 1257 733 1257 m 814 424 l 783 538 q 738 703 760 617 q 693 872 717 789 l 686 872 q 645 703 667 789 q 600 538 624 617 l 569 424 l 814 424 z "},"Ⅰ":{"ha":1389,"x_min":590,"x_max":799,"o":"m 590 1032 l 799 1032 l 799 0 l 590 0 l 590 1032 z "},"Ⅱ":{"ha":1389,"x_min":361,"x_max":1028,"o":"m 361 1032 l 568 1032 l 568 0 l 361 0 l 361 1032 m 821 1032 l 1028 1032 l 1028 0 l 821 0 l 821 1032 z "},"Ⅲ":{"ha":1389,"x_min":131,"x_max":1258,"o":"m 131 1032 l 339 1032 l 339 0 l 131 0 l 131 1032 m 590 1032 l 799 1032 l 799 0 l 590 0 l 590 1032 m 1051 1032 l 1258 1032 l 1258 0 l 1051 0 l 1051 1032 z "},"Ⅳ":{"ha":1389,"x_min":160,"x_max":1363,"o":"m 160 1032 l 368 1032 l 368 0 l 160 0 l 160 1032 m 485 1032 l 703 1032 l 839 531 q 881 364 863 443 q 925 197 900 285 l 932 197 q 976 364 957 285 q 1019 531 996 443 l 1153 1032 l 1363 1032 l 1047 0 l 801 0 l 485 1032 z "},"Ⅴ":{"ha":1389,"x_min":256,"x_max":1133,"o":"m 256 1032 l 474 1032 l 610 531 q 651 364 632 443 q 696 197 671 285 l 703 197 q 747 364 728 285 q 790 531 767 443 l 924 1032 l 1133 1032 l 818 0 l 571 0 l 256 1032 z "},"Ⅵ":{"ha":1389,"x_min":25,"x_max":1228,"o":"m 25 1032 l 243 1032 l 379 531 q 421 364 401 443 q 465 197 440 285 l 472 197 q 517 364 497 285 q 560 531 536 443 l 693 1032 l 903 1032 l 588 0 l 340 0 l 25 1032 m 1021 1032 l 1228 1032 l 1228 0 l 1021 0 l 1021 1032 z "},"Ⅶ":{"ha":1389,"x_min":19,"x_max":1332,"o":"m 19 1032 l 236 1032 l 318 531 q 347 364 333 443 q 379 197 360 285 l 386 197 q 419 364 406 285 q 446 531 432 443 l 526 1032 l 736 1032 l 511 0 l 244 0 l 19 1032 m 792 1032 l 1000 1032 l 1000 0 l 792 0 l 792 1032 m 1124 1032 l 1332 1032 l 1332 0 l 1124 0 l 1124 1032 z "},"Ⅷ":{"ha":1389,"x_min":17,"x_max":1324,"o":"m 17 1032 l 193 1032 l 257 531 q 280 364 269 443 q 303 197 290 285 l 310 197 q 333 364 322 285 q 356 531 344 443 l 418 1032 l 585 1032 l 406 0 l 207 0 l 17 1032 m 651 1032 l 817 1032 l 817 0 l 651 0 l 651 1032 m 904 1032 l 1071 1032 l 1071 0 l 904 0 l 904 1032 m 1158 1032 l 1324 1032 l 1324 0 l 1158 0 l 1158 1032 z "},"Ⅸ":{"ha":1389,"x_min":154,"x_max":1342,"o":"m 154 1032 l 361 1032 l 361 0 l 154 0 l 154 1032 m 796 532 l 524 1032 l 754 1032 l 857 818 q 892 744 875 782 q 933 657 910 706 l 940 657 q 976 744 960 706 q 1007 818 992 782 l 1104 1032 l 1324 1032 l 1053 522 l 1342 0 l 1113 0 l 996 229 q 958 308 976 268 q 918 396 939 349 l 913 396 q 874 308 892 349 q 838 229 856 268 l 728 0 l 508 0 l 796 532 z "},"Ⅹ":{"ha":1389,"x_min":278,"x_max":1111,"o":"m 565 532 l 293 1032 l 524 1032 l 626 818 q 663 744 646 782 q 703 657 681 706 l 710 657 q 745 744 729 706 q 778 818 761 782 l 875 1032 l 1093 1032 l 822 522 l 1111 0 l 882 0 l 767 229 q 688 396 729 303 l 682 396 q 644 308 663 349 q 607 229 625 268 l 497 0 l 278 0 l 565 532 z "},"ⅰ":{"ha":1389,"x_min":572,"x_max":818,"o":"m 694 906 q 607 937 642 906 q 572 1017 572 968 q 607 1098 572 1067 q 694 1129 642 1129 q 783 1098 747 1129 q 818 1017 818 1067 q 783 937 818 968 q 694 906 747 906 m 592 779 l 799 779 l 799 0 l 592 0 l 592 779 z "},"ⅱ":{"ha":1389,"x_min":361,"x_max":1029,"o":"m 483 906 q 396 937 431 906 q 361 1017 361 968 q 396 1098 361 1067 q 483 1129 431 1129 q 571 1098 536 1129 q 606 1017 606 1067 q 571 937 606 968 q 483 906 536 906 m 907 906 q 819 937 854 906 q 785 1017 785 968 q 819 1098 785 1067 q 907 1129 854 1129 q 994 1098 960 1129 q 1029 1017 1029 1067 q 994 937 1029 968 q 907 906 960 906 m 381 779 l 586 779 l 586 0 l 381 0 l 381 779 m 804 779 l 1010 779 l 1010 0 l 804 0 l 804 779 z "},"ⅲ":{"ha":1389,"x_min":149,"x_max":1242,"o":"m 271 906 q 183 937 218 906 q 149 1017 149 968 q 183 1098 149 1067 q 271 1129 218 1129 q 358 1098 324 1129 q 393 1017 393 1067 q 358 937 393 968 q 271 906 324 906 m 694 906 q 607 937 642 906 q 572 1017 572 968 q 607 1098 572 1067 q 694 1129 642 1129 q 783 1098 747 1129 q 818 1017 818 1067 q 783 937 818 968 q 694 906 747 906 m 1119 906 q 1031 937 1065 906 q 996 1017 996 968 q 1031 1098 996 1067 q 1119 1129 1065 1129 q 1207 1098 1172 1129 q 1242 1017 1242 1067 q 1207 937 1242 968 q 1119 906 1172 906 m 168 779 l 374 779 l 374 0 l 168 0 l 168 779 m 592 779 l 799 779 l 799 0 l 592 0 l 592 779 m 1015 779 l 1222 779 l 1222 0 l 1015 0 l 1015 779 z "},"ⅳ":{"ha":1389,"x_min":172,"x_max":1289,"o":"m 294 906 q 207 937 242 906 q 172 1017 172 968 q 207 1098 172 1067 q 294 1129 242 1129 q 382 1098 347 1129 q 417 1017 417 1067 q 382 937 417 968 q 294 906 347 906 m 190 779 l 397 779 l 397 0 l 190 0 l 190 779 m 525 779 l 732 779 l 846 392 q 877 274 861 333 q 908 156 893 215 l 914 156 q 946 274 929 215 q 978 392 963 333 l 1090 779 l 1289 779 l 1031 0 l 792 0 l 525 779 z "},"ⅴ":{"ha":1389,"x_min":313,"x_max":1078,"o":"m 313 779 l 519 779 l 633 392 q 665 274 649 333 q 697 156 681 215 l 703 156 q 735 274 718 215 q 767 392 751 333 l 879 779 l 1078 779 l 818 0 l 581 0 l 313 779 z "},"ⅵ":{"ha":1389,"x_min":101,"x_max":1218,"o":"m 1096 906 q 1008 937 1043 906 q 974 1017 974 968 q 1008 1098 974 1067 q 1096 1129 1043 1129 q 1183 1098 1149 1129 q 1218 1017 1218 1067 q 1183 937 1218 968 q 1096 906 1149 906 m 101 779 l 307 779 l 421 392 q 453 274 436 333 q 485 156 469 215 l 490 156 q 522 274 506 215 q 554 392 539 333 l 667 779 l 865 779 l 606 0 l 368 0 l 101 779 m 993 779 l 1199 779 l 1199 0 l 993 0 l 993 779 z "},"ⅶ":{"ha":1389,"x_min":14,"x_max":1326,"o":"m 863 906 q 775 937 810 906 q 740 1017 740 968 q 775 1098 740 1067 q 863 1129 810 1129 q 951 1098 915 1129 q 986 1017 986 1067 q 951 937 986 968 q 863 906 915 906 m 1204 906 q 1116 937 1150 906 q 1082 1017 1082 968 q 1116 1098 1082 1067 q 1204 1129 1150 1129 q 1292 1098 1257 1129 q 1326 1017 1326 1067 q 1292 937 1326 968 q 1204 906 1257 906 m 14 779 l 221 779 l 303 392 q 328 274 314 333 q 356 156 342 215 l 361 156 q 389 274 376 215 q 413 392 401 333 l 497 779 l 694 779 l 478 0 l 239 0 l 14 779 m 760 779 l 967 779 l 967 0 l 760 0 l 760 779 m 1100 779 l 1307 779 l 1307 0 l 1100 0 l 1100 779 z "},"ⅷ":{"ha":1389,"x_min":21,"x_max":1347,"o":"m 726 906 q 653 937 682 906 q 625 1017 625 968 q 653 1098 625 1067 q 726 1129 682 1129 q 800 1098 771 1129 q 829 1017 829 1067 q 800 937 829 968 q 726 906 771 906 m 986 906 q 913 937 942 906 q 885 1017 885 968 q 913 1098 885 1067 q 986 1129 942 1129 q 1059 1098 1031 1129 q 1088 1017 1088 1067 q 1059 937 1088 968 q 986 906 1031 906 m 1246 906 q 1173 937 1201 906 q 1144 1017 1144 968 q 1173 1098 1144 1067 q 1246 1129 1201 1129 q 1319 1098 1290 1129 q 1347 1017 1347 1067 q 1319 937 1347 968 q 1246 906 1290 906 m 21 779 l 207 779 l 264 392 q 283 274 275 333 q 301 156 292 215 l 307 156 q 325 274 318 215 q 343 392 332 333 l 401 779 l 579 779 l 404 0 l 204 0 l 21 779 m 644 779 l 810 779 l 810 0 l 644 0 l 644 779 m 904 779 l 1068 779 l 1068 0 l 904 0 l 904 779 m 1164 779 l 1328 779 l 1328 0 l 1164 0 l 1164 779 z "},"ⅸ":{"ha":1389,"x_min":181,"x_max":1276,"o":"m 303 906 q 215 937 250 906 q 181 1017 181 968 q 215 1098 181 1067 q 303 1129 250 1129 q 390 1098 356 1129 q 425 1017 425 1067 q 390 937 425 968 q 303 906 356 906 m 200 779 l 406 779 l 406 0 l 200 0 l 200 779 m 781 406 l 553 779 l 772 779 l 850 642 q 885 576 868 610 q 921 510 903 542 l 926 510 q 956 576 942 542 q 983 642 969 610 l 1049 779 l 1261 779 l 1033 383 l 1276 0 l 1056 0 l 968 143 q 932 211 950 176 q 894 279 914 246 l 888 279 q 854 212 871 246 q 822 143 838 178 l 749 0 l 536 0 l 781 406 z "},"ⅹ":{"ha":1389,"x_min":325,"x_max":1064,"o":"m 569 406 l 340 779 l 561 779 l 639 642 q 674 576 657 610 q 708 510 690 542 l 714 510 q 744 576 729 542 q 772 642 758 610 l 836 779 l 1050 779 l 822 383 l 1064 0 l 843 0 l 757 143 q 719 211 738 176 q 682 279 701 246 l 675 279 q 642 212 658 246 q 610 143 626 178 l 538 0 l 325 0 l 569 406 z "},"←":{"ha":1389,"x_min":49,"x_max":1333,"o":"m 351 457 q 446 372 396 424 q 536 267 496 319 l 411 197 q 331 289 375 243 q 240 378 288 335 q 144 459 193 421 q 49 528 96 497 q 144 597 96 558 q 240 678 193 635 q 331 767 288 721 q 411 858 375 813 l 536 789 q 446 684 496 736 q 351 599 396 632 l 1333 599 l 1333 457 l 351 457 z "},"↑":{"ha":1389,"x_min":364,"x_max":1025,"o":"m 624 871 q 538 776 590 826 q 433 686 486 726 l 364 811 q 456 891 410 847 q 544 982 501 935 q 626 1078 588 1029 q 694 1174 664 1126 q 763 1078 725 1126 q 844 982 801 1029 q 933 891 888 935 q 1025 811 979 847 l 956 686 q 851 776 903 726 q 765 871 799 826 l 765 -111 l 624 -111 l 624 871 z "},"→":{"ha":1389,"x_min":56,"x_max":1340,"o":"m 56 599 l 1038 599 q 943 684 993 632 q 853 789 893 736 l 978 858 q 1058 767 1014 813 q 1149 678 1101 721 q 1244 597 1196 635 q 1340 528 1293 558 q 1244 459 1293 497 q 1149 378 1196 421 q 1058 289 1101 335 q 978 197 1014 243 l 853 267 q 943 372 893 319 q 1038 457 993 424 l 56 457 l 56 599 z "},"↓":{"ha":1389,"x_min":364,"x_max":1025,"o":"m 765 185 q 851 279 799 229 q 956 369 903 329 l 1025 244 q 933 165 979 208 q 844 74 888 121 q 763 -22 801 26 q 694 -118 725 -71 q 626 -22 664 -71 q 544 74 588 26 q 456 165 501 121 q 364 244 410 208 l 433 369 q 538 279 486 329 q 624 185 590 229 l 624 1167 l 765 1167 l 765 185 z "},"↔":{"ha":1389,"x_min":49,"x_max":1340,"o":"m 351 457 q 446 372 396 424 q 536 267 496 319 l 411 197 q 331 289 375 243 q 240 378 288 335 q 144 459 193 421 q 49 528 96 497 q 144 597 96 558 q 240 678 193 635 q 331 767 288 721 q 411 858 375 813 l 536 789 q 446 684 496 736 q 351 599 396 632 l 1038 599 q 943 684 993 632 q 853 789 893 736 l 978 858 q 1058 767 1014 813 q 1149 678 1101 721 q 1244 597 1196 635 q 1340 528 1293 558 q 1244 459 1293 497 q 1149 378 1196 421 q 1058 289 1101 335 q 978 197 1014 243 l 853 267 q 943 372 893 319 q 1038 457 993 424 l 351 457 z "},"↕":{"ha":1389,"x_min":364,"x_max":1025,"o":"m 765 185 q 851 279 799 229 q 956 369 903 329 l 1025 244 q 933 165 979 208 q 844 74 888 121 q 763 -22 801 26 q 694 -118 725 -71 q 626 -22 664 -71 q 544 74 588 26 q 456 165 501 121 q 364 244 410 208 l 433 369 q 538 279 486 329 q 624 185 590 229 l 624 871 q 538 776 590 826 q 433 686 486 726 l 364 811 q 456 891 410 847 q 544 982 501 935 q 626 1078 588 1029 q 694 1174 664 1126 q 763 1078 725 1126 q 844 982 801 1029 q 933 891 888 935 q 1025 811 979 847 l 956 686 q 851 776 903 726 q 765 871 799 826 l 765 185 z "},"↖":{"ha":1389,"x_min":238,"x_max":1196,"o":"m 403 719 q 410 594 411 667 q 397 456 408 521 l 260 494 q 267 742 274 613 q 238 985 260 872 q 397 962 313 969 q 565 954 481 954 q 728 963 651 954 l 767 825 q 690 815 731 818 q 611 813 650 813 q 553 815 581 813 q 503 819 526 817 l 1196 125 l 1097 26 l 403 719 z "},"↗":{"ha":1389,"x_min":193,"x_max":1151,"o":"m 886 819 q 835 815 863 817 q 778 813 808 813 q 699 815 739 813 q 622 825 658 818 l 661 963 q 824 954 739 954 q 992 962 908 954 q 1151 985 1076 969 q 1133 869 1140 931 q 1123 743 1126 807 q 1121 616 1119 679 q 1129 494 1122 553 l 992 456 q 979 594 981 521 q 986 719 978 667 l 292 26 l 193 125 l 886 819 z "},"↘":{"ha":1389,"x_min":193,"x_max":1151,"o":"m 986 336 q 979 462 978 389 q 992 600 981 535 l 1129 561 q 1122 313 1115 443 q 1151 71 1129 182 q 992 94 1076 86 q 824 101 908 101 q 661 93 739 101 l 622 231 q 699 240 658 238 q 778 243 739 243 q 835 241 808 243 q 886 236 863 239 l 193 931 l 292 1029 l 986 336 z "},"↙":{"ha":1389,"x_min":238,"x_max":1196,"o":"m 503 236 q 553 241 526 239 q 611 243 581 243 q 690 240 650 243 q 767 231 731 238 l 728 93 q 565 101 651 101 q 397 94 481 101 q 238 71 313 86 q 267 313 260 183 q 260 561 274 443 l 397 600 q 410 462 408 535 q 403 336 411 389 l 1097 1029 l 1196 931 l 503 236 z "},"⇒":{"ha":1389,"x_min":56,"x_max":1358,"o":"m 994 404 q 1128 526 1050 467 q 994 649 1050 586 l 56 649 l 56 789 l 874 789 q 816 864 843 825 q 769 938 789 903 l 890 1007 q 987 869 932 938 q 1103 738 1042 800 q 1231 621 1165 675 q 1358 526 1296 567 q 1231 432 1296 486 q 1103 315 1165 378 q 987 184 1042 253 q 890 46 932 115 l 769 115 q 816 189 789 150 q 874 264 843 228 l 56 264 l 56 404 l 994 404 z "},"⇔":{"ha":1389,"x_min":31,"x_max":1358,"o":"m 558 938 q 516 864 540 903 q 464 789 492 825 l 925 789 q 873 864 897 825 q 831 938 849 903 l 953 1007 q 1038 869 990 938 q 1138 738 1085 800 q 1248 621 1192 675 q 1358 526 1304 567 q 1248 432 1304 486 q 1138 315 1192 378 q 1038 184 1085 253 q 953 46 990 115 l 831 115 q 873 189 849 150 q 925 264 897 228 l 464 264 q 516 189 492 228 q 558 115 540 150 l 436 46 q 351 184 399 115 q 251 315 304 253 q 141 432 197 378 q 31 526 85 486 q 141 621 85 567 q 251 738 197 675 q 351 869 304 800 q 436 1007 399 938 l 558 938 m 358 649 q 298 580 328 610 q 240 526 268 550 q 298 473 268 503 q 358 404 328 443 l 1031 404 q 1091 473 1061 443 q 1149 526 1121 503 q 1091 580 1121 550 q 1031 649 1061 610 l 358 649 z "},"∀":{"ha":1389,"x_min":153,"x_max":1236,"o":"m 1236 1007 l 697 -22 l 692 -22 l 153 1007 l 278 1072 l 446 750 l 943 750 l 1111 1072 l 1236 1007 m 692 276 l 697 276 l 869 608 l 519 608 l 692 276 z "},"∂":{"ha":1389,"x_min":271,"x_max":1126,"o":"m 953 663 q 894 856 953 789 q 736 924 836 924 q 608 891 664 924 q 517 821 553 858 l 417 940 q 576 1036 496 1004 q 758 1068 657 1068 q 900 1042 833 1068 q 1017 963 967 1015 q 1097 834 1068 911 q 1126 657 1126 757 q 1114 513 1126 589 q 1074 361 1101 436 q 1006 218 1047 286 q 909 98 965 150 q 779 15 853 46 q 615 -15 706 -15 q 466 10 531 -15 q 358 79 401 35 q 293 184 315 124 q 271 315 271 244 q 302 467 271 399 q 385 584 333 535 q 503 660 438 633 q 639 686 569 686 q 811 647 739 686 q 936 533 883 608 l 939 533 q 949 601 946 568 q 953 663 953 635 m 439 325 q 489 188 439 238 q 618 139 539 139 q 782 200 718 139 q 879 361 846 261 q 790 501 853 457 q 654 546 726 546 q 576 531 615 546 q 507 488 538 517 q 458 419 476 460 q 439 325 439 378 z "},"∃":{"ha":1389,"x_min":263,"x_max":1122,"o":"m 1122 1038 l 1122 15 l 263 15 l 263 156 l 981 156 l 981 457 l 263 457 l 263 599 l 981 599 l 981 897 l 263 897 l 263 1038 l 1122 1038 z "},"∇":{"ha":1389,"x_min":194,"x_max":1194,"o":"m 194 886 l 194 1010 l 1194 1010 l 1194 886 l 821 -18 l 568 -18 l 194 886 m 961 838 l 422 838 l 571 456 l 686 143 l 693 143 l 808 456 l 961 838 z "},"∈":{"ha":1389,"x_min":168,"x_max":1210,"o":"m 631 832 q 521 815 572 832 q 428 766 469 797 q 359 692 388 735 q 319 597 331 649 l 1210 597 l 1210 456 l 319 456 q 359 361 331 404 q 428 287 388 318 q 521 238 469 256 q 631 221 572 221 l 1210 221 l 1210 81 l 631 81 q 449 115 533 81 q 301 208 364 149 q 203 349 239 268 q 168 526 168 431 q 203 703 168 622 q 301 844 239 785 q 449 938 364 904 q 631 972 533 972 l 1210 972 l 1210 832 l 631 832 z "},"∋":{"ha":1389,"x_min":179,"x_max":1221,"o":"m 179 832 l 179 972 l 758 972 q 941 938 857 972 q 1088 844 1025 904 q 1185 703 1150 785 q 1221 526 1221 622 q 1185 349 1221 431 q 1088 208 1150 268 q 941 115 1025 149 q 758 81 857 81 l 179 81 l 179 221 l 758 221 q 868 238 817 221 q 960 287 919 256 q 1030 361 1001 318 q 1069 456 1058 404 l 179 456 l 179 597 l 1069 597 q 1030 692 1058 649 q 960 766 1001 735 q 868 815 919 797 q 758 832 817 832 l 179 832 z "},"∏":{"ha":1389,"x_min":256,"x_max":1135,"o":"m 256 1001 l 1135 1001 l 1135 -189 l 928 -189 l 928 824 l 461 824 l 461 -189 l 256 -189 l 256 1001 z "},"∑":{"ha":1389,"x_min":276,"x_max":1113,"o":"m 543 167 l 1113 167 l 1113 0 l 276 0 l 276 113 l 621 510 l 293 897 l 293 1019 l 1071 1019 l 1071 854 l 564 854 l 564 850 l 842 517 l 543 172 l 543 167 z "},"√":{"ha":1389,"x_min":39,"x_max":1389,"o":"m 1389 1222 l 1389 1157 l 815 1157 l 368 -128 l 324 -128 l 172 258 l 78 126 l 39 156 l 240 438 l 375 93 l 768 1222 l 1389 1222 z "},"∝":{"ha":1389,"x_min":39,"x_max":1192,"o":"m 788 526 q 905 419 840 463 q 1061 376 969 376 q 1139 389 1104 376 l 1192 258 q 1058 236 1146 236 q 947 251 999 236 q 851 290 896 265 q 768 347 807 314 q 694 418 729 381 q 538 289 626 342 q 331 236 450 236 q 227 254 279 236 q 133 309 175 272 q 65 400 92 346 q 39 526 39 454 q 65 653 39 599 q 133 744 92 708 q 227 799 175 781 q 331 818 279 818 q 442 803 390 818 q 538 764 493 789 q 622 706 583 739 q 694 635 661 672 q 767 706 729 672 q 851 764 806 739 q 947 803 896 789 q 1058 818 999 818 q 1192 794 1117 818 l 1139 664 q 1061 676 1104 676 q 905 633 969 676 q 788 526 840 590 m 181 526 q 223 416 181 456 q 328 376 265 376 q 483 419 417 376 q 603 526 549 463 q 483 633 549 590 q 328 676 417 676 q 223 637 265 676 q 181 526 181 597 z "},"∞":{"ha":1389,"x_min":39,"x_max":1349,"o":"m 694 635 q 767 706 729 672 q 851 764 806 739 q 947 803 896 789 q 1058 818 999 818 q 1163 799 1111 818 q 1256 744 1214 781 q 1323 653 1297 708 q 1349 526 1349 599 q 1323 400 1349 454 q 1256 309 1297 346 q 1163 254 1214 272 q 1058 236 1111 236 q 947 251 999 236 q 851 290 896 265 q 768 347 807 314 q 694 418 729 381 q 538 289 626 342 q 331 236 450 236 q 227 254 279 236 q 133 309 175 272 q 65 400 92 346 q 39 526 39 454 q 65 653 39 599 q 133 744 92 708 q 227 799 175 781 q 331 818 279 818 q 442 803 390 818 q 538 764 493 789 q 622 706 583 739 q 694 635 661 672 m 181 526 q 223 416 181 456 q 328 376 265 376 q 483 419 417 376 q 603 526 549 463 q 483 633 549 590 q 328 676 417 676 q 223 637 265 676 q 181 526 181 597 m 788 526 q 905 419 840 463 q 1061 376 969 376 q 1166 416 1124 376 q 1208 526 1208 456 q 1166 637 1208 597 q 1061 676 1124 676 q 905 633 969 676 q 788 526 840 590 z "},"∠":{"ha":1389,"x_min":133,"x_max":1232,"o":"m 467 181 l 1232 181 l 1232 40 l 133 40 l 133 46 l 1044 961 l 1144 861 l 467 185 l 467 181 z "},"∧":{"ha":1389,"x_min":153,"x_max":1236,"o":"m 692 1081 l 697 1081 l 1236 53 l 1111 -14 l 697 782 l 692 782 l 278 -14 l 153 53 l 692 1081 z "},"∨":{"ha":1389,"x_min":153,"x_max":1236,"o":"m 697 -28 l 692 -28 l 153 1000 l 278 1067 l 692 271 l 697 271 l 1111 1067 l 1236 1000 l 697 -28 z "},"∩":{"ha":1389,"x_min":249,"x_max":1140,"o":"m 249 590 q 283 773 249 689 q 376 919 317 857 q 517 1017 436 982 q 694 1053 599 1053 q 872 1017 790 1053 q 1013 919 953 982 q 1106 773 1072 857 q 1140 590 1140 689 l 1140 11 l 1000 11 l 1000 590 q 977 717 1000 658 q 913 819 954 776 q 816 888 872 863 q 694 913 760 913 q 573 888 629 913 q 476 819 517 863 q 412 717 435 776 q 389 590 389 658 l 389 11 l 249 11 l 249 590 z "},"∪":{"ha":1389,"x_min":249,"x_max":1140,"o":"m 1140 463 q 1106 281 1140 365 q 1013 133 1072 196 q 872 35 953 71 q 694 0 790 0 q 517 35 599 0 q 376 133 436 71 q 283 281 317 196 q 249 463 249 365 l 249 1042 l 389 1042 l 389 463 q 412 335 389 394 q 476 233 435 276 q 573 166 517 190 q 694 142 629 142 q 816 166 760 142 q 913 233 872 190 q 977 335 954 276 q 1000 463 1000 394 l 1000 1042 l 1140 1042 l 1140 463 z "},"∫":{"ha":1389,"x_min":424,"x_max":965,"o":"m 608 826 q 632 1004 608 935 q 693 1113 656 1074 q 778 1168 731 1153 q 876 1183 826 1183 q 922 1181 900 1183 q 965 1174 944 1178 l 950 1014 q 893 1019 935 1019 q 844 1010 865 1019 q 808 975 822 1000 q 788 906 794 950 q 781 794 781 863 l 781 229 q 757 51 781 121 q 696 -58 733 -18 q 610 -112 658 -97 q 513 -128 563 -128 q 467 -125 489 -128 q 424 -118 444 -122 l 439 42 q 496 36 454 36 q 545 46 524 36 q 581 81 567 56 q 601 149 594 106 q 608 261 608 193 l 608 826 z "},"∬":{"ha":1389,"x_min":149,"x_max":1240,"o":"m 333 826 q 357 1004 333 935 q 418 1113 381 1074 q 503 1168 456 1153 q 601 1183 551 1183 q 647 1181 625 1183 q 690 1174 669 1178 l 675 1014 q 618 1019 660 1019 q 569 1010 590 1019 q 535 975 549 1000 q 514 906 521 950 q 507 794 507 863 l 507 229 q 483 51 507 121 q 422 -58 460 -18 q 335 -112 383 -97 q 238 -128 288 -128 q 192 -125 214 -128 q 149 -118 169 -122 l 164 42 q 222 36 176 36 q 271 46 250 36 q 306 81 292 56 q 326 149 319 106 q 333 261 333 193 l 333 826 m 882 826 q 906 1004 882 935 q 967 1113 929 1074 q 1053 1168 1006 1153 q 1151 1183 1101 1183 q 1197 1181 1175 1183 q 1240 1174 1219 1178 l 1225 1014 q 1167 1019 1213 1019 q 1118 1010 1139 1019 q 1083 975 1097 1000 q 1063 906 1069 950 q 1056 794 1056 863 l 1056 229 q 1032 51 1056 121 q 971 -58 1008 -18 q 885 -112 933 -97 q 788 -128 838 -128 q 742 -125 764 -128 q 699 -118 719 -122 l 714 42 q 771 36 729 36 q 819 46 799 36 q 854 81 840 56 q 875 149 868 106 q 882 261 882 193 l 882 826 z "},"∮":{"ha":1389,"x_min":424,"x_max":965,"o":"m 608 288 q 485 378 533 313 q 438 528 438 444 q 485 677 438 611 q 608 768 533 743 l 608 826 q 632 1004 608 935 q 693 1113 656 1074 q 778 1168 731 1153 q 876 1183 826 1183 q 922 1181 900 1183 q 965 1174 944 1178 l 950 1014 q 893 1019 935 1019 q 846 1010 867 1019 q 810 978 825 1001 q 788 915 796 956 q 781 811 781 874 l 781 768 q 903 677 856 743 q 951 528 951 611 q 903 378 951 444 q 781 288 856 313 l 781 229 q 757 51 781 121 q 696 -58 733 -18 q 610 -112 658 -97 q 513 -128 563 -128 q 467 -125 489 -128 q 424 -118 444 -122 l 439 42 q 496 36 454 36 q 543 45 522 36 q 578 77 564 54 q 601 141 593 100 q 608 244 608 182 l 608 288 m 608 688 q 537 623 564 665 q 510 528 510 581 q 537 433 510 475 q 608 368 564 390 l 608 688 m 781 368 q 852 433 825 390 q 879 528 879 475 q 852 623 879 581 q 781 688 825 665 l 781 368 z "},"∴":{"ha":1389,"x_min":235,"x_max":1154,"o":"m 574 839 q 609 924 574 889 q 694 960 644 960 q 780 924 744 960 q 815 839 815 889 q 780 754 815 790 q 694 718 744 718 q 609 754 644 718 q 574 839 574 790 m 235 214 q 270 299 235 263 q 356 335 306 335 q 440 299 404 335 q 476 214 476 263 q 440 128 476 164 q 356 93 404 93 q 270 128 306 93 q 235 214 235 164 m 914 214 q 949 299 914 263 q 1033 335 985 335 q 1119 299 1083 335 q 1154 214 1154 263 q 1119 128 1154 164 q 1033 93 1083 93 q 949 128 985 93 q 914 214 914 164 z "},"∵":{"ha":1389,"x_min":235,"x_max":1154,"o":"m 235 839 q 270 924 235 889 q 356 960 306 960 q 440 924 404 960 q 476 839 476 889 q 440 754 476 790 q 356 718 404 718 q 270 754 306 718 q 235 839 235 790 m 914 839 q 949 924 914 889 q 1033 960 985 960 q 1119 924 1083 960 q 1154 839 1154 889 q 1119 754 1154 790 q 1033 718 1083 718 q 949 754 985 718 q 914 839 914 790 m 574 214 q 609 299 574 263 q 694 335 644 335 q 780 299 744 335 q 815 214 815 263 q 780 128 815 164 q 694 93 744 93 q 609 128 644 93 q 574 214 574 164 z "},"∶":{"ha":1389,"x_min":574,"x_max":815,"o":"m 574 839 q 609 924 574 889 q 694 960 644 960 q 780 924 744 960 q 815 839 815 889 q 780 754 815 790 q 694 718 744 718 q 609 754 644 718 q 574 839 574 790 m 574 214 q 609 299 574 263 q 694 335 644 335 q 780 299 744 335 q 815 214 815 263 q 780 128 815 164 q 694 93 744 93 q 609 128 644 93 q 574 214 574 164 z "},"∽":{"ha":1389,"x_min":39,"x_max":1349,"o":"m 644 576 q 725 667 682 624 q 819 744 768 711 q 928 798 869 778 q 1058 818 988 818 q 1163 799 1111 818 q 1256 744 1214 781 q 1323 653 1297 708 q 1349 526 1349 599 q 1323 399 1349 454 q 1255 308 1297 344 q 1160 254 1213 272 q 1053 236 1107 236 q 919 258 964 236 l 972 389 q 1056 376 1008 376 q 1165 416 1122 376 q 1208 526 1208 456 q 1166 637 1208 597 q 1061 676 1124 676 q 963 660 1007 676 q 879 615 918 643 q 807 550 840 586 q 743 475 774 514 q 663 385 706 428 q 569 308 619 342 q 460 256 519 275 q 331 236 401 236 q 227 254 279 236 q 133 309 175 272 q 65 400 92 346 q 39 526 39 454 q 65 654 39 600 q 133 745 92 708 q 228 800 175 782 q 336 818 282 818 q 469 794 394 818 l 417 664 q 333 676 382 676 q 224 637 267 676 q 181 526 181 597 q 223 416 181 456 q 328 376 265 376 q 427 392 382 376 q 510 436 472 408 q 581 500 549 464 q 644 576 614 536 z "},"≒":{"ha":1389,"x_min":201,"x_max":1188,"o":"m 328 935 q 363 1020 328 985 q 449 1056 399 1056 q 533 1020 497 1056 q 568 935 568 985 q 533 851 568 886 q 449 815 497 815 q 363 851 399 815 q 328 935 328 886 m 1188 721 l 1188 601 l 201 601 l 201 721 l 1188 721 m 1188 451 l 1188 332 l 201 332 l 201 451 l 1188 451 m 821 118 q 856 202 821 167 q 940 238 892 238 q 1026 202 990 238 q 1061 118 1061 167 q 1026 33 1061 68 q 940 -3 990 -3 q 856 33 892 -3 q 821 118 821 68 z "},"≠":{"ha":1389,"x_min":201,"x_max":1188,"o":"m 801 615 l 736 436 l 1188 436 l 1188 294 l 685 294 l 593 39 l 460 88 l 536 294 l 201 294 l 201 436 l 586 436 l 651 615 l 201 615 l 201 756 l 703 756 l 796 1014 l 929 965 l 853 756 l 1188 756 l 1188 615 l 801 615 z "},"≡":{"ha":1389,"x_min":201,"x_max":1188,"o":"m 1188 896 l 1188 765 l 201 765 l 201 896 l 1188 896 m 1188 592 l 1188 461 l 201 461 l 201 592 l 1188 592 m 1188 288 l 1188 157 l 201 157 l 201 288 l 1188 288 z "},"≤":{"ha":1389,"x_min":133,"x_max":1218,"o":"m 507 658 l 1218 372 l 1165 240 l 133 658 l 133 663 l 1165 1081 l 1218 949 l 507 663 l 507 658 m 1210 118 l 1210 -12 l 179 -12 l 179 118 l 1210 118 z "},"≥":{"ha":1389,"x_min":171,"x_max":1256,"o":"m 882 658 l 882 663 l 171 949 l 225 1081 l 1256 663 l 1256 658 l 225 240 l 171 372 l 882 658 m 179 118 l 1210 118 l 1210 -12 l 179 -12 l 179 118 z "},"≪":{"ha":1389,"x_min":44,"x_max":1343,"o":"m 883 969 l 250 529 l 250 524 l 883 83 l 815 -15 l 44 524 l 44 529 l 815 1068 l 883 969 m 1343 969 l 711 529 l 711 524 l 1343 83 l 1275 -15 l 504 524 l 504 529 l 1275 1068 l 1343 969 z "},"≫":{"ha":1389,"x_min":46,"x_max":1344,"o":"m 885 529 l 885 524 l 114 -15 l 46 83 l 678 524 l 678 529 l 46 969 l 114 1068 l 885 529 m 1344 529 l 1344 524 l 574 -15 l 506 83 l 1139 524 l 1139 529 l 506 969 l 574 1068 l 1344 529 z "},"⊂":{"ha":1389,"x_min":168,"x_max":1210,"o":"m 631 81 q 449 115 533 81 q 301 208 364 149 q 203 349 239 268 q 168 526 168 431 q 203 703 168 622 q 301 844 239 785 q 449 938 364 904 q 631 972 533 972 l 1210 972 l 1210 832 l 631 832 q 503 809 563 832 q 401 745 444 786 q 334 648 358 704 q 310 526 310 592 q 334 405 310 461 q 401 308 358 349 q 503 244 444 267 q 631 221 563 221 l 1210 221 l 1210 81 l 631 81 z "},"⊃":{"ha":1389,"x_min":179,"x_max":1221,"o":"m 758 972 q 941 938 857 972 q 1088 844 1025 904 q 1185 703 1150 785 q 1221 526 1221 622 q 1185 349 1221 431 q 1088 208 1150 268 q 941 115 1025 149 q 758 81 857 81 l 179 81 l 179 221 l 758 221 q 885 244 826 221 q 988 308 944 267 q 1056 405 1031 349 q 1081 526 1081 461 q 1056 648 1081 592 q 988 745 1031 704 q 885 809 944 786 q 758 832 826 832 l 179 832 l 179 972 l 758 972 z "},"⊆":{"ha":1389,"x_min":168,"x_max":1210,"o":"m 565 926 q 460 908 507 926 q 379 857 413 889 q 328 782 346 825 q 310 690 310 739 q 328 599 310 642 q 379 524 346 556 q 460 473 413 492 q 565 454 507 454 l 1210 454 l 1210 314 l 564 314 q 405 344 478 314 q 279 424 332 374 q 197 544 226 475 q 168 690 168 613 q 197 837 168 768 q 279 957 226 906 q 405 1038 332 1008 q 564 1068 478 1068 l 1210 1068 l 1210 926 l 565 926 m 1210 126 l 1210 -15 l 179 -15 l 179 126 l 1210 126 z "},"⊇":{"ha":1389,"x_min":179,"x_max":1221,"o":"m 825 454 q 929 473 882 454 q 1010 524 976 492 q 1062 599 1043 556 q 1081 690 1081 642 q 1062 782 1081 739 q 1010 857 1043 825 q 929 908 976 889 q 825 926 882 926 l 179 926 l 179 1068 l 825 1068 q 984 1038 911 1068 q 1110 957 1057 1008 q 1192 837 1163 906 q 1221 690 1221 768 q 1192 544 1221 613 q 1110 424 1163 475 q 984 344 1057 374 q 825 314 911 314 l 179 314 l 179 454 l 825 454 m 1210 126 l 1210 -15 l 179 -15 l 179 126 l 1210 126 z "},"⊙":{"ha":1389,"x_min":181,"x_max":1208,"o":"m 694 14 q 495 54 589 14 q 331 165 401 94 q 221 328 261 235 q 181 528 181 422 q 221 728 181 635 q 331 891 261 821 q 495 1001 401 961 q 694 1042 589 1042 q 894 1001 801 1042 q 1058 891 988 961 q 1168 728 1128 821 q 1208 528 1208 635 q 1168 328 1208 422 q 1058 165 1128 235 q 894 54 988 94 q 694 14 801 14 m 322 528 q 351 383 322 451 q 431 265 381 315 q 550 185 482 214 q 694 156 618 156 q 840 185 772 156 q 958 265 907 214 q 1038 383 1008 315 q 1067 528 1067 451 q 1038 673 1067 606 q 958 791 1008 740 q 840 871 907 842 q 694 900 772 900 q 550 871 618 900 q 431 791 482 842 q 351 673 381 740 q 322 528 322 606 m 786 528 q 759 463 786 489 q 694 436 732 436 q 630 463 657 436 q 603 528 603 489 q 630 592 603 565 q 694 619 657 619 q 759 592 732 619 q 786 528 786 565 z "},"⊥":{"ha":1389,"x_min":132,"x_max":1257,"o":"m 1257 183 l 1257 42 l 132 42 l 132 183 l 624 183 l 624 1024 l 765 1024 l 765 183 l 1257 183 z "},"⌒":{"ha":1389,"x_min":28,"x_max":1361,"o":"m 28 908 q 152 1014 83 964 q 304 1101 221 1064 q 485 1160 388 1139 q 694 1182 582 1182 q 903 1160 806 1182 q 1083 1101 1000 1139 q 1236 1014 1167 1064 q 1361 908 1306 964 l 1303 775 q 1181 874 1246 828 q 1042 953 1117 919 q 881 1006 967 986 q 694 1025 794 1025 q 508 1006 594 1025 q 346 953 421 986 q 206 874 271 919 q 86 775 142 828 l 28 908 z "},"①":{"ha":1389,"x_min":39,"x_max":1350,"o":"m 694 -128 q 440 -76 560 -128 q 231 65 321 -25 q 90 274 142 154 q 39 528 39 393 q 90 783 39 664 q 231 991 142 901 q 440 1132 321 1081 q 694 1183 560 1183 q 949 1132 831 1183 q 1158 991 1068 1081 q 1299 783 1247 901 q 1350 528 1350 664 q 1298 272 1350 392 q 1156 64 1246 153 q 948 -76 1067 -25 q 694 -128 829 -128 m 694 -76 q 929 -29 819 -76 q 1122 101 1039 18 q 1251 293 1204 183 q 1299 528 1299 403 q 1251 763 1299 653 q 1122 955 1204 872 q 929 1085 1039 1038 q 694 1132 819 1132 q 458 1084 568 1132 q 267 953 349 1036 q 138 761 185 871 q 90 528 90 651 q 138 293 90 403 q 267 101 185 183 q 460 -29 350 18 q 694 -76 569 -76 m 638 719 l 486 719 l 486 831 q 595 859 549 843 q 682 899 642 875 l 815 899 l 815 169 l 638 169 l 638 719 z "},"②":{"ha":1389,"x_min":39,"x_max":1350,"o":"m 694 -128 q 440 -76 560 -128 q 231 65 321 -25 q 90 274 142 154 q 39 528 39 393 q 90 783 39 664 q 231 991 142 901 q 440 1132 321 1081 q 694 1183 560 1183 q 949 1132 831 1183 q 1158 991 1068 1081 q 1299 783 1247 901 q 1350 528 1350 664 q 1298 272 1350 392 q 1156 64 1246 153 q 948 -76 1067 -25 q 694 -128 829 -128 m 694 -76 q 929 -29 819 -76 q 1122 101 1039 18 q 1251 293 1204 183 q 1299 528 1299 403 q 1251 763 1299 653 q 1122 955 1204 872 q 929 1085 1039 1038 q 694 1132 819 1132 q 458 1084 568 1132 q 267 953 349 1036 q 138 761 185 871 q 90 528 90 651 q 138 293 90 403 q 267 101 185 183 q 460 -29 350 18 q 694 -76 569 -76 m 440 272 q 580 392 517 336 q 688 497 643 447 q 757 588 732 546 q 782 669 782 631 q 672 778 782 778 q 590 755 626 778 q 522 704 553 732 l 425 799 q 693 915 540 915 q 799 899 751 915 q 881 852 847 882 q 934 780 915 822 q 953 686 953 738 q 931 592 953 640 q 872 495 908 543 q 790 401 836 447 q 693 311 743 354 q 762 316 724 314 q 832 318 800 318 l 981 318 l 981 169 l 440 169 l 440 272 z "},"③":{"ha":1389,"x_min":39,"x_max":1350,"o":"m 694 -128 q 440 -76 560 -128 q 231 65 321 -25 q 90 274 142 154 q 39 528 39 393 q 90 783 39 664 q 231 991 142 901 q 440 1132 321 1081 q 694 1183 560 1183 q 949 1132 831 1183 q 1158 991 1068 1081 q 1299 783 1247 901 q 1350 528 1350 664 q 1298 272 1350 392 q 1156 64 1246 153 q 948 -76 1067 -25 q 694 -128 829 -128 m 694 -76 q 929 -29 819 -76 q 1122 101 1039 18 q 1251 293 1204 183 q 1299 528 1299 403 q 1251 763 1299 653 q 1122 955 1204 872 q 929 1085 1039 1038 q 694 1132 819 1132 q 458 1084 568 1132 q 267 953 349 1036 q 138 761 185 871 q 90 528 90 651 q 138 293 90 403 q 267 101 185 183 q 460 -29 350 18 q 694 -76 569 -76 m 679 153 q 518 181 590 153 q 403 258 446 210 l 485 369 q 567 315 521 338 q 676 292 614 292 q 763 315 729 292 q 797 381 797 339 q 788 423 797 404 q 753 454 778 442 q 687 474 729 467 q 578 481 644 481 l 578 604 q 730 630 688 604 q 772 700 772 656 q 671 781 772 781 q 515 714 590 781 l 428 821 q 542 890 481 865 q 675 915 604 915 q 875 863 801 915 q 949 711 949 811 q 814 551 949 603 l 814 547 q 931 483 885 528 q 976 367 976 439 q 953 276 976 315 q 889 209 929 236 q 794 167 849 182 q 679 153 740 153 z "},"④":{"ha":1389,"x_min":39,"x_max":1350,"o":"m 694 1183 q 949 1132 831 1183 q 1158 991 1068 1081 q 1299 783 1247 901 q 1350 528 1350 664 q 1298 272 1350 392 q 1156 64 1246 153 q 948 -76 1067 -25 q 694 -128 829 -128 q 440 -76 560 -128 q 231 65 321 -25 q 90 274 142 154 q 39 528 39 393 q 90 783 39 664 q 231 991 142 901 q 440 1132 321 1081 q 694 1183 560 1183 m 694 -76 q 929 -29 819 -76 q 1122 101 1039 18 q 1251 293 1204 183 q 1299 528 1299 403 q 1251 763 1299 653 q 1122 955 1204 872 q 929 1085 1039 1038 q 694 1132 819 1132 q 458 1084 568 1132 q 267 953 349 1036 q 138 761 185 871 q 90 528 90 651 q 138 293 90 403 q 267 101 185 183 q 460 -29 350 18 q 694 -76 569 -76 m 874 472 l 967 472 l 967 342 l 874 342 l 874 169 l 708 169 l 708 342 l 363 342 l 363 464 l 658 899 l 874 899 l 874 472 m 708 472 l 708 586 q 710 667 708 622 q 714 749 711 713 l 708 749 q 677 693 689 715 q 646 639 665 671 l 531 472 l 708 472 z "},"⑤":{"ha":1389,"x_min":39,"x_max":1350,"o":"m 694 -128 q 440 -76 560 -128 q 231 65 321 -25 q 90 274 142 154 q 39 528 39 393 q 90 783 39 664 q 231 991 142 901 q 440 1132 321 1081 q 694 1183 560 1183 q 949 1132 831 1183 q 1158 991 1068 1081 q 1299 783 1247 901 q 1350 528 1350 664 q 1298 272 1350 392 q 1156 64 1246 153 q 948 -76 1067 -25 q 694 -128 829 -128 m 694 -76 q 929 -29 819 -76 q 1122 101 1039 18 q 1251 293 1204 183 q 1299 528 1299 403 q 1251 763 1299 653 q 1122 955 1204 872 q 929 1085 1039 1038 q 694 1132 819 1132 q 458 1084 568 1132 q 267 953 349 1036 q 138 761 185 871 q 90 528 90 651 q 138 293 90 403 q 267 101 185 183 q 460 -29 350 18 q 694 -76 569 -76 m 689 154 q 526 183 593 154 q 413 257 460 213 l 492 369 q 572 316 528 340 q 675 292 617 292 q 770 322 735 292 q 806 407 806 353 q 770 490 806 460 q 681 519 735 519 q 617 509 642 519 q 556 476 592 499 l 476 528 l 499 899 l 946 899 l 946 753 l 644 753 l 633 618 q 729 638 694 638 q 826 624 781 638 q 907 582 872 610 q 962 511 942 554 q 982 410 982 468 q 958 302 982 350 q 894 222 935 254 q 801 172 854 189 q 689 154 747 154 z "},"⑥":{"ha":1389,"x_min":39,"x_max":1350,"o":"m 694 1183 q 949 1132 831 1183 q 1158 991 1068 1081 q 1299 783 1247 901 q 1350 528 1350 664 q 1298 272 1350 392 q 1156 64 1246 153 q 948 -76 1067 -25 q 694 -128 829 -128 q 440 -76 560 -128 q 231 65 321 -25 q 90 274 142 154 q 39 528 39 393 q 90 783 39 664 q 231 991 142 901 q 440 1132 321 1081 q 694 1183 560 1183 m 694 -76 q 929 -29 819 -76 q 1122 101 1039 18 q 1251 293 1204 183 q 1299 528 1299 403 q 1251 763 1299 653 q 1122 955 1204 872 q 929 1085 1039 1038 q 694 1132 819 1132 q 458 1084 568 1132 q 267 953 349 1036 q 138 761 185 871 q 90 528 90 651 q 138 293 90 403 q 267 101 185 183 q 460 -29 350 18 q 694 -76 569 -76 m 857 722 q 799 758 835 743 q 728 774 764 774 q 665 763 694 774 q 611 725 635 751 q 572 656 588 699 q 554 549 557 613 q 638 607 589 586 q 733 628 686 628 q 824 615 782 628 q 897 573 865 601 q 946 502 928 544 q 964 401 964 460 q 943 297 964 343 q 885 219 922 251 q 800 169 849 186 q 696 153 751 153 q 581 174 636 153 q 485 239 526 194 q 418 353 443 283 q 393 519 393 422 q 420 697 393 622 q 492 819 447 771 q 597 892 538 868 q 719 915 656 915 q 855 890 799 915 q 950 828 911 864 l 857 722 m 697 285 q 770 313 739 285 q 801 394 801 342 q 769 476 801 447 q 688 504 738 504 q 623 488 656 504 q 560 433 590 472 q 611 316 574 347 q 697 285 649 285 z "},"⑦":{"ha":1389,"x_min":39,"x_max":1350,"o":"m 694 -128 q 440 -76 560 -128 q 231 65 321 -25 q 90 274 142 154 q 39 528 39 393 q 90 783 39 664 q 231 991 142 901 q 440 1132 321 1081 q 694 1183 560 1183 q 949 1132 831 1183 q 1158 991 1068 1081 q 1299 783 1247 901 q 1350 528 1350 664 q 1298 272 1350 392 q 1156 64 1246 153 q 948 -76 1067 -25 q 694 -128 829 -128 m 694 -76 q 929 -29 819 -76 q 1122 101 1039 18 q 1251 293 1204 183 q 1299 528 1299 403 q 1251 763 1299 653 q 1122 955 1204 872 q 929 1085 1039 1038 q 694 1132 819 1132 q 458 1084 568 1132 q 267 953 349 1036 q 138 761 185 871 q 90 528 90 651 q 138 293 90 403 q 267 101 185 183 q 460 -29 350 18 q 694 -76 569 -76 m 567 169 q 585 335 572 260 q 622 480 597 411 q 683 615 646 549 q 778 753 721 682 l 432 753 l 432 899 l 969 899 l 969 792 q 858 649 900 715 q 794 511 817 582 q 761 358 771 440 q 746 169 751 276 l 567 169 z "},"⑧":{"ha":1389,"x_min":39,"x_max":1350,"o":"m 694 -128 q 440 -76 560 -128 q 231 65 321 -25 q 90 274 142 154 q 39 528 39 393 q 90 783 39 664 q 231 991 142 901 q 440 1132 321 1081 q 694 1183 560 1183 q 949 1132 831 1183 q 1158 991 1068 1081 q 1299 783 1247 901 q 1350 528 1350 664 q 1298 272 1350 392 q 1156 64 1246 153 q 948 -76 1067 -25 q 694 -128 829 -128 m 694 -76 q 929 -29 819 -76 q 1122 101 1039 18 q 1251 293 1204 183 q 1299 528 1299 403 q 1251 763 1299 653 q 1122 955 1204 872 q 929 1085 1039 1038 q 694 1132 819 1132 q 458 1084 568 1132 q 267 953 349 1036 q 138 761 185 871 q 90 528 90 651 q 138 293 90 403 q 267 101 185 183 q 460 -29 350 18 q 694 -76 569 -76 m 690 153 q 578 167 629 153 q 489 208 526 182 q 431 271 451 235 q 410 350 410 307 q 451 464 410 421 q 551 535 493 507 l 551 539 q 472 613 503 571 q 440 713 440 654 q 460 797 440 760 q 513 861 479 835 q 593 901 547 888 q 692 915 639 915 q 876 862 810 915 q 943 721 943 808 q 910 622 943 663 q 838 556 878 581 l 838 551 q 936 477 894 521 q 978 360 978 433 q 957 278 978 317 q 899 213 936 240 q 808 169 861 185 q 690 153 756 153 m 739 594 q 796 703 796 643 q 767 770 796 744 q 689 796 739 796 q 621 775 649 796 q 593 713 593 754 q 634 641 593 668 q 739 594 675 614 m 699 275 q 784 297 750 275 q 818 365 818 318 q 772 438 818 411 q 644 493 725 465 q 590 444 614 474 q 567 376 567 415 q 606 302 567 329 q 699 275 646 275 z "},"⑨":{"ha":1389,"x_min":39,"x_max":1350,"o":"m 694 1183 q 949 1132 831 1183 q 1158 991 1068 1081 q 1299 783 1247 901 q 1350 528 1350 664 q 1298 272 1350 392 q 1156 64 1246 153 q 948 -76 1067 -25 q 694 -128 829 -128 q 440 -76 560 -128 q 231 65 321 -25 q 90 274 142 154 q 39 528 39 393 q 90 783 39 664 q 231 991 142 901 q 440 1132 321 1081 q 694 1183 560 1183 m 694 -76 q 929 -29 819 -76 q 1122 101 1039 18 q 1251 293 1204 183 q 1299 528 1299 403 q 1251 763 1299 653 q 1122 955 1204 872 q 929 1085 1039 1038 q 694 1132 819 1132 q 458 1084 568 1132 q 267 953 349 1036 q 138 761 185 871 q 90 528 90 651 q 138 293 90 403 q 267 101 185 183 q 460 -29 350 18 q 694 -76 569 -76 m 531 347 q 588 310 553 326 q 664 293 624 293 q 726 305 697 293 q 778 344 756 317 q 814 414 800 371 q 831 519 828 457 q 753 463 799 483 q 663 443 707 443 q 569 456 613 443 q 494 497 526 469 q 443 568 461 525 q 425 669 425 611 q 446 772 425 726 q 503 850 467 818 q 588 899 539 882 q 690 917 636 917 q 805 896 750 917 q 902 831 860 875 q 969 718 944 788 q 994 551 994 649 q 967 374 994 449 q 895 249 940 299 q 792 176 850 200 q 669 153 733 153 q 533 179 590 153 q 438 242 475 206 l 531 347 m 699 564 q 764 581 729 564 q 826 638 799 599 q 775 753 813 722 q 692 785 738 785 q 620 758 651 785 q 589 672 589 731 q 619 589 589 614 q 699 564 650 564 z "},"⑩":{"ha":1389,"x_min":39,"x_max":1350,"o":"m 694 -128 q 440 -76 560 -128 q 231 65 321 -25 q 90 274 142 154 q 39 528 39 393 q 90 783 39 664 q 231 991 142 901 q 440 1132 321 1081 q 694 1183 560 1183 q 949 1132 831 1183 q 1158 991 1068 1081 q 1299 783 1247 901 q 1350 528 1350 664 q 1298 272 1350 392 q 1156 64 1246 153 q 948 -76 1067 -25 q 694 -128 829 -128 m 694 -76 q 929 -29 819 -76 q 1122 101 1039 18 q 1251 293 1204 183 q 1299 528 1299 403 q 1251 763 1299 653 q 1122 955 1204 872 q 929 1085 1039 1038 q 694 1132 819 1132 q 458 1084 568 1132 q 267 953 349 1036 q 138 761 185 871 q 90 528 90 651 q 138 293 90 403 q 267 101 185 183 q 460 -29 350 18 q 694 -76 569 -76 m 892 153 q 793 179 838 153 q 717 256 749 206 q 667 377 685 306 q 650 539 650 449 q 717 819 650 721 q 892 917 783 917 q 1067 817 1000 917 q 1133 539 1133 718 q 1116 377 1133 449 q 1067 256 1099 306 q 990 179 1035 206 q 892 153 946 153 m 376 719 l 254 719 l 254 831 q 344 859 307 843 q 418 899 382 875 l 540 899 l 540 169 l 376 169 l 376 719 m 892 294 q 949 349 926 294 q 971 539 971 403 q 965 653 971 607 q 948 726 958 699 q 923 766 938 754 q 892 778 908 778 q 860 766 875 778 q 835 726 846 754 q 819 653 825 699 q 814 539 814 607 q 835 349 814 403 q 892 294 857 294 z "},"⑪":{"ha":1389,"x_min":39,"x_max":1350,"o":"m 694 -128 q 440 -76 560 -128 q 231 65 321 -25 q 90 274 142 154 q 39 528 39 393 q 90 783 39 664 q 231 991 142 901 q 440 1132 321 1081 q 694 1183 560 1183 q 949 1132 831 1183 q 1158 991 1068 1081 q 1299 783 1247 901 q 1350 528 1350 664 q 1298 272 1350 392 q 1156 64 1246 153 q 948 -76 1067 -25 q 694 -128 829 -128 m 694 -76 q 929 -29 819 -76 q 1122 101 1039 18 q 1251 293 1204 183 q 1299 528 1299 403 q 1251 763 1299 653 q 1122 955 1204 872 q 929 1085 1039 1038 q 694 1132 819 1132 q 458 1084 568 1132 q 267 953 349 1036 q 138 761 185 871 q 90 528 90 651 q 138 293 90 403 q 267 101 185 183 q 460 -29 350 18 q 694 -76 569 -76 m 433 719 l 311 719 l 311 831 q 401 859 364 843 q 475 899 439 875 l 597 899 l 597 169 l 433 169 l 433 719 m 836 719 l 714 719 l 714 831 q 804 859 767 843 q 876 899 842 875 l 1000 899 l 1000 169 l 836 169 l 836 719 z "},"⑫":{"ha":1389,"x_min":39,"x_max":1350,"o":"m 694 -128 q 440 -76 560 -128 q 231 65 321 -25 q 90 274 142 154 q 39 528 39 393 q 90 783 39 664 q 231 991 142 901 q 440 1132 321 1081 q 694 1183 560 1183 q 949 1132 831 1183 q 1158 991 1068 1081 q 1299 783 1247 901 q 1350 528 1350 664 q 1298 272 1350 392 q 1156 64 1246 153 q 948 -76 1067 -25 q 694 -128 829 -128 m 694 -76 q 929 -29 819 -76 q 1122 101 1039 18 q 1251 293 1204 183 q 1299 528 1299 403 q 1251 763 1299 653 q 1122 955 1204 872 q 929 1085 1039 1038 q 694 1132 819 1132 q 458 1084 568 1132 q 267 953 349 1036 q 138 761 185 871 q 90 528 90 651 q 138 293 90 403 q 267 101 185 183 q 460 -29 350 18 q 694 -76 569 -76 m 663 272 q 840 497 771 400 q 908 669 908 594 q 833 778 908 778 q 782 760 806 778 q 738 718 758 742 l 650 813 q 747 890 696 865 q 861 915 799 915 q 1008 853 953 915 q 1064 686 1064 790 q 1047 591 1064 639 q 1003 495 1031 543 q 943 401 976 447 q 876 311 910 354 q 931 316 900 314 q 985 318 961 318 l 1085 318 l 1085 169 l 663 169 l 663 272 m 375 719 l 251 719 l 251 831 q 342 859 304 843 q 415 899 379 875 l 538 899 l 538 169 l 375 169 l 375 719 z "},"⑬":{"ha":1389,"x_min":39,"x_max":1350,"o":"m 694 -128 q 440 -76 560 -128 q 231 65 321 -25 q 90 274 142 154 q 39 528 39 393 q 90 783 39 664 q 231 991 142 901 q 440 1132 321 1081 q 694 1183 560 1183 q 949 1132 831 1183 q 1158 991 1068 1081 q 1299 783 1247 901 q 1350 528 1350 664 q 1298 272 1350 392 q 1156 64 1246 153 q 948 -76 1067 -25 q 694 -128 829 -128 m 694 -76 q 929 -29 819 -76 q 1122 101 1039 18 q 1251 293 1204 183 q 1299 528 1299 403 q 1251 763 1299 653 q 1122 955 1204 872 q 929 1085 1039 1038 q 694 1132 819 1132 q 458 1084 568 1132 q 267 953 349 1036 q 138 761 185 871 q 90 528 90 651 q 138 293 90 403 q 267 101 185 183 q 460 -29 350 18 q 694 -76 569 -76 m 856 153 q 732 176 789 153 q 642 243 675 200 l 718 353 q 776 308 746 325 q 847 292 807 292 q 906 315 883 292 q 929 381 929 339 q 923 423 929 404 q 899 454 917 442 q 852 474 882 467 q 774 481 822 481 l 774 604 q 879 630 850 604 q 908 700 908 656 q 890 760 908 739 q 840 781 871 781 q 790 769 813 781 q 740 729 768 757 l 658 835 q 853 915 743 915 q 1013 863 953 915 q 1072 711 1072 811 q 967 551 1072 603 l 967 547 q 1058 483 1022 528 q 1093 367 1093 439 q 1074 276 1093 315 q 1023 209 1056 236 q 947 167 990 182 q 856 153 904 153 m 381 719 l 258 719 l 258 831 q 349 859 311 843 q 421 899 386 875 l 544 899 l 544 169 l 381 169 l 381 719 z "},"⑭":{"ha":1389,"x_min":39,"x_max":1350,"o":"m 694 1183 q 949 1132 831 1183 q 1158 991 1068 1081 q 1299 783 1247 901 q 1350 528 1350 664 q 1298 272 1350 392 q 1156 64 1246 153 q 948 -76 1067 -25 q 694 -128 829 -128 q 440 -76 560 -128 q 231 65 321 -25 q 90 274 142 154 q 39 528 39 393 q 90 783 39 664 q 231 991 142 901 q 440 1132 321 1081 q 694 1183 560 1183 m 694 -76 q 929 -29 819 -76 q 1122 101 1039 18 q 1251 293 1204 183 q 1299 528 1299 403 q 1251 763 1299 653 q 1122 955 1204 872 q 929 1085 1039 1038 q 694 1132 819 1132 q 458 1084 568 1132 q 267 953 349 1036 q 138 761 185 871 q 90 528 90 651 q 138 293 90 403 q 267 101 185 183 q 460 -29 350 18 q 694 -76 569 -76 m 251 831 q 342 859 304 843 q 415 899 379 875 l 538 899 l 538 169 l 375 169 l 375 719 l 251 719 l 251 831 m 1047 472 l 1118 472 l 1118 342 l 1047 342 l 1047 169 l 899 169 l 899 342 l 635 342 l 635 464 l 854 899 l 1047 899 l 1047 472 m 899 472 l 899 586 q 901 667 899 622 q 904 749 903 713 l 900 749 q 876 693 885 714 q 854 639 868 672 l 779 472 l 899 472 z "},"⑮":{"ha":1389,"x_min":39,"x_max":1350,"o":"m 694 -128 q 440 -76 560 -128 q 231 65 321 -25 q 90 274 142 154 q 39 528 39 393 q 90 783 39 664 q 231 991 142 901 q 440 1132 321 1081 q 694 1183 560 1183 q 949 1132 831 1183 q 1158 991 1068 1081 q 1299 783 1247 901 q 1350 528 1350 664 q 1298 272 1350 392 q 1156 64 1246 153 q 948 -76 1067 -25 q 694 -128 829 -128 m 694 -76 q 929 -29 819 -76 q 1122 101 1039 18 q 1251 293 1204 183 q 1299 528 1299 403 q 1251 763 1299 653 q 1122 955 1204 872 q 929 1085 1039 1038 q 694 1132 819 1132 q 458 1084 568 1132 q 267 953 349 1036 q 138 761 185 871 q 90 528 90 651 q 138 293 90 403 q 267 101 185 183 q 460 -29 350 18 q 694 -76 569 -76 m 375 719 l 251 719 l 251 831 q 342 859 304 843 q 415 899 379 875 l 538 899 l 538 169 l 375 169 l 375 719 m 854 154 q 727 181 779 154 q 638 247 675 207 l 710 360 q 769 313 736 333 q 842 292 803 292 q 909 322 885 292 q 933 407 933 353 q 910 490 933 460 q 849 519 886 519 q 803 509 824 519 q 760 476 782 499 l 689 528 l 704 899 l 1068 899 l 1068 753 l 840 753 l 835 618 q 901 638 871 638 q 976 624 942 638 q 1038 582 1011 610 q 1081 511 1065 554 q 1096 410 1096 468 q 1076 302 1096 350 q 1024 222 1057 254 q 947 172 990 189 q 854 154 903 154 z "},"⑴":{"ha":1389,"x_min":39,"x_max":1350,"o":"m 210 -125 q 76 180 114 21 q 39 528 39 339 q 76 875 39 715 q 210 1181 114 1035 l 300 1158 q 185 860 215 1015 q 156 528 156 706 q 185 196 156 351 q 300 -103 215 40 l 210 -125 m 1089 -103 q 1204 195 1175 39 q 1233 528 1233 351 q 1204 860 1233 706 q 1089 1158 1175 1015 l 1179 1181 q 1313 875 1275 1035 q 1350 528 1350 715 q 1313 180 1350 339 q 1179 -125 1275 21 l 1089 -103 m 431 172 l 631 172 l 631 799 l 463 799 l 463 925 q 588 960 538 939 q 685 1013 638 981 l 835 1013 l 835 172 l 1008 172 l 1008 6 l 431 6 l 431 172 z "},"⑵":{"ha":1389,"x_min":39,"x_max":1350,"o":"m 210 -125 q 76 180 114 21 q 39 528 39 339 q 76 875 39 715 q 210 1181 114 1035 l 300 1158 q 185 860 215 1015 q 156 528 156 706 q 185 196 156 351 q 300 -103 215 40 l 210 -125 m 1089 -103 q 1204 195 1175 39 q 1233 528 1233 351 q 1204 860 1233 706 q 1089 1158 1175 1015 l 1179 1181 q 1313 875 1275 1035 q 1350 528 1350 715 q 1313 180 1350 339 q 1179 -125 1275 21 l 1089 -103 m 376 124 q 547 302 471 219 q 677 456 624 385 q 760 590 731 528 q 789 706 789 651 q 756 827 789 785 q 651 869 722 869 q 553 838 599 869 q 472 763 508 807 l 360 874 q 502 992 428 953 q 678 1031 576 1031 q 806 1008 749 1031 q 902 945 863 986 q 963 846 942 904 q 985 717 985 788 q 959 584 985 651 q 890 448 933 517 q 790 309 847 379 q 671 168 733 239 q 752 174 708 171 q 829 178 796 178 l 1024 178 l 1024 6 l 376 6 l 376 124 z "},"⑶":{"ha":1389,"x_min":39,"x_max":1350,"o":"m 210 -125 q 76 180 114 21 q 39 528 39 339 q 76 875 39 715 q 210 1181 114 1035 l 300 1158 q 185 860 215 1015 q 156 528 156 706 q 185 196 156 351 q 300 -103 215 40 l 210 -125 m 1089 -103 q 1204 195 1175 39 q 1233 528 1233 351 q 1204 860 1233 706 q 1089 1158 1175 1015 l 1179 1181 q 1313 875 1275 1035 q 1350 528 1350 715 q 1313 180 1350 339 q 1179 -125 1275 21 l 1089 -103 m 669 -12 q 469 28 551 -12 q 336 131 388 68 l 432 258 q 530 184 475 214 q 649 154 585 154 q 769 190 724 154 q 814 292 814 225 q 801 357 814 328 q 758 406 789 386 q 676 438 728 426 q 543 449 624 449 l 543 596 q 656 607 610 596 q 729 638 701 618 q 769 685 757 658 q 782 744 782 713 q 749 837 782 804 q 656 869 715 869 q 559 846 603 869 q 474 778 515 822 l 368 903 q 503 996 431 961 q 664 1031 576 1031 q 797 1013 738 1031 q 898 961 856 996 q 963 876 940 926 q 986 761 986 826 q 942 622 986 678 q 814 533 897 567 l 814 526 q 962 440 906 503 q 1018 278 1018 378 q 990 154 1018 208 q 915 63 963 100 q 804 7 868 26 q 669 -12 740 -12 z "},"⑷":{"ha":1389,"x_min":39,"x_max":1350,"o":"m 300 1158 q 185 860 215 1015 q 156 528 156 706 q 185 196 156 351 q 300 -103 215 40 l 210 -125 q 76 180 114 21 q 39 528 39 339 q 76 875 39 715 q 210 1181 114 1035 l 300 1158 m 1179 1181 q 1313 875 1275 1035 q 1350 528 1350 715 q 1313 180 1350 339 q 1179 -125 1275 21 l 1089 -103 q 1204 195 1175 39 q 1233 528 1233 351 q 1204 860 1233 706 q 1089 1158 1175 1015 l 1179 1181 m 928 414 l 1049 414 l 1049 257 l 928 257 l 928 6 l 738 6 l 738 257 l 322 257 l 322 397 l 690 1013 l 928 1013 l 928 414 m 738 414 l 738 621 q 740 724 738 667 q 744 832 742 782 l 738 832 q 702 749 718 789 q 663 667 686 710 l 515 414 l 738 414 z "},"⑸":{"ha":1389,"x_min":39,"x_max":1350,"o":"m 210 -125 q 76 180 114 21 q 39 528 39 339 q 76 875 39 715 q 210 1181 114 1035 l 300 1158 q 185 860 215 1015 q 156 528 156 706 q 185 196 156 351 q 300 -103 215 40 l 210 -125 m 1089 -103 q 1204 195 1175 39 q 1233 528 1233 351 q 1204 860 1233 706 q 1089 1158 1175 1015 l 1179 1181 q 1313 875 1275 1035 q 1350 528 1350 715 q 1313 180 1350 339 q 1179 -125 1275 21 l 1089 -103 m 669 -14 q 470 28 551 -14 q 333 128 389 69 l 429 257 q 522 183 469 213 q 642 153 575 153 q 767 199 718 153 q 815 331 815 246 q 769 459 815 414 q 653 504 724 504 q 580 492 610 504 q 508 450 550 479 l 415 510 l 444 1013 l 974 1013 l 974 840 l 621 840 l 601 619 q 660 642 632 635 q 725 649 689 649 q 840 630 786 649 q 933 573 893 611 q 997 476 974 535 q 1021 336 1021 417 q 992 188 1021 253 q 914 77 963 122 q 802 9 865 32 q 669 -14 739 -14 z "},"⑹":{"ha":1389,"x_min":39,"x_max":1350,"o":"m 300 1158 q 185 860 215 1015 q 156 528 156 706 q 185 196 156 351 q 300 -103 215 40 l 210 -125 q 76 180 114 21 q 39 528 39 339 q 76 875 39 715 q 210 1181 114 1035 l 300 1158 m 1179 1181 q 1313 875 1275 1035 q 1350 528 1350 715 q 1313 180 1350 339 q 1179 -125 1275 21 l 1089 -103 q 1160 43 1132 -31 q 1204 194 1188 117 q 1227 355 1221 272 q 1233 528 1233 438 q 1204 860 1233 706 q 1089 1158 1175 1015 l 1179 1181 m 913 792 q 846 844 888 824 q 761 864 804 864 q 683 847 719 864 q 617 789 646 829 q 572 683 589 749 q 551 521 554 617 q 649 602 594 574 q 753 631 704 631 q 866 612 814 631 q 956 555 918 593 q 1016 458 994 517 q 1038 319 1038 399 q 1013 181 1038 243 q 944 76 988 119 q 844 10 901 33 q 722 -12 788 -12 q 587 16 651 -12 q 473 105 522 44 q 394 259 424 165 q 364 482 364 353 q 396 730 364 626 q 481 900 428 833 q 603 999 533 967 q 747 1031 672 1031 q 908 997 840 1031 q 1021 914 976 963 l 913 792 m 718 143 q 810 187 772 143 q 849 319 849 231 q 812 446 849 407 q 713 485 775 485 q 635 461 676 485 q 557 378 593 438 q 615 197 571 250 q 718 143 658 143 z "},"⑺":{"ha":1389,"x_min":39,"x_max":1350,"o":"m 210 -125 q 76 180 114 21 q 39 528 39 339 q 76 875 39 715 q 210 1181 114 1035 l 300 1158 q 185 860 215 1015 q 156 528 156 706 q 185 196 156 351 q 300 -103 215 40 l 210 -125 m 1089 -103 q 1204 195 1175 39 q 1233 528 1233 351 q 1204 860 1233 706 q 1089 1158 1175 1015 l 1179 1181 q 1313 875 1275 1035 q 1350 528 1350 715 q 1313 180 1350 339 q 1179 -125 1275 21 l 1089 -103 m 538 6 q 559 245 543 136 q 605 452 575 354 q 681 644 635 550 q 794 840 728 739 l 374 840 l 374 1013 l 1013 1013 l 1013 886 q 881 682 931 778 q 801 485 831 586 q 760 268 772 383 q 742 6 747 153 l 538 6 z "},"⑻":{"ha":1389,"x_min":39,"x_max":1350,"o":"m 210 -125 q 76 180 114 21 q 39 528 39 339 q 76 875 39 715 q 210 1181 114 1035 l 300 1158 q 185 860 215 1015 q 156 528 156 706 q 185 196 156 351 q 300 -103 215 40 l 210 -125 m 1089 -103 q 1204 195 1175 39 q 1233 528 1233 351 q 1204 860 1233 706 q 1089 1158 1175 1015 l 1179 1181 q 1313 875 1275 1035 q 1350 528 1350 715 q 1313 180 1350 339 q 1179 -125 1275 21 l 1089 -103 m 694 -12 q 556 8 619 -12 q 447 65 493 28 q 376 152 401 101 q 350 263 350 203 q 365 348 350 310 q 403 417 379 386 q 458 473 426 449 q 525 517 490 497 l 525 524 q 427 624 465 568 q 389 760 389 681 q 412 872 389 822 q 476 958 435 922 q 575 1012 518 993 q 699 1031 632 1031 q 822 1011 767 1031 q 917 956 878 992 q 977 871 956 921 q 999 760 999 821 q 958 630 999 688 q 864 531 917 572 l 864 525 q 933 479 901 504 q 989 423 965 454 q 1026 352 1013 392 q 1039 263 1039 313 q 1015 153 1039 204 q 945 66 990 103 q 836 8 900 29 q 694 -12 772 -12 m 757 581 q 811 661 792 621 q 831 746 831 701 q 796 848 831 808 q 694 888 761 888 q 606 855 642 888 q 569 760 569 822 q 621 653 569 692 q 757 581 672 614 m 697 131 q 806 166 764 131 q 847 268 847 201 q 831 333 847 306 q 785 382 814 360 q 714 423 756 404 q 622 463 672 442 q 555 386 582 429 q 528 285 528 343 q 577 172 528 214 q 697 131 626 131 z "},"⑼":{"ha":1389,"x_min":39,"x_max":1350,"o":"m 300 1158 q 185 860 215 1015 q 156 528 156 706 q 185 196 156 351 q 300 -103 215 40 l 210 -125 q 76 180 114 21 q 39 528 39 339 q 76 875 39 715 q 210 1181 114 1035 l 300 1158 m 1179 1181 q 1313 875 1275 1035 q 1350 528 1350 715 q 1313 180 1350 339 q 1179 -125 1275 21 l 1089 -103 q 1204 195 1175 39 q 1233 528 1233 351 q 1204 860 1233 706 q 1089 1158 1175 1015 l 1179 1181 m 486 228 q 553 175 511 196 q 636 154 594 154 q 715 172 678 154 q 780 229 751 189 q 826 335 808 269 q 846 499 843 401 q 750 417 806 446 q 646 388 694 388 q 531 406 583 388 q 442 464 479 425 q 383 561 404 503 q 361 699 361 619 q 386 838 361 776 q 454 942 411 899 q 554 1008 497 985 q 675 1031 611 1031 q 810 1002 746 1031 q 924 913 875 974 q 1003 760 974 853 q 1033 538 1033 667 q 1001 289 1033 393 q 917 118 969 185 q 794 19 864 51 q 650 -12 725 -12 q 489 22 558 -12 q 375 106 419 57 l 486 228 m 683 533 q 764 556 722 533 q 840 642 806 579 q 783 823 826 769 q 681 876 739 876 q 587 832 625 876 q 549 699 549 788 q 586 572 549 611 q 683 533 624 533 z "},"⑽":{"ha":1389,"x_min":39,"x_max":1350,"o":"m 1089 -103 q 1204 195 1175 39 q 1233 528 1233 351 q 1204 860 1233 706 q 1089 1158 1175 1015 l 1179 1181 q 1313 875 1275 1035 q 1350 528 1350 715 q 1313 180 1350 339 q 1179 -125 1275 21 l 1089 -103 m 210 -125 q 76 180 114 21 q 39 528 39 339 q 76 875 39 715 q 210 1181 114 1035 l 300 1158 q 185 860 215 1015 q 156 528 156 706 q 185 196 156 351 q 300 -103 215 40 l 210 -125 m 892 -12 q 793 16 838 -12 q 716 108 749 44 q 665 271 683 171 q 647 514 647 371 q 665 756 647 657 q 716 915 683 854 q 793 1003 749 976 q 892 1031 838 1031 q 990 1003 946 1031 q 1067 915 1035 976 q 1117 756 1099 854 q 1135 514 1135 657 q 1117 271 1135 371 q 1067 108 1099 171 q 990 16 1035 44 q 892 -12 946 -12 m 408 819 l 276 819 l 276 925 q 387 960 343 939 q 474 1013 431 982 l 560 1013 l 560 6 l 408 6 l 408 819 m 892 132 q 930 151 913 132 q 959 213 947 169 q 978 331 971 257 q 985 514 985 404 q 978 697 985 625 q 959 810 971 768 q 930 869 947 853 q 892 886 913 886 q 856 869 872 886 q 826 810 839 853 q 807 697 814 768 q 800 514 800 625 q 807 331 800 404 q 826 213 814 257 q 856 151 839 169 q 892 132 872 132 z "},"⑾":{"ha":1389,"x_min":39,"x_max":1350,"o":"m 1089 -103 q 1204 195 1175 39 q 1233 528 1233 351 q 1204 860 1233 706 q 1089 1158 1175 1015 l 1179 1181 q 1313 875 1275 1035 q 1350 528 1350 715 q 1313 180 1350 339 q 1179 -125 1275 21 l 1089 -103 m 210 -125 q 76 180 114 21 q 39 528 39 339 q 76 875 39 715 q 210 1181 114 1035 l 300 1158 q 185 860 215 1015 q 156 528 156 706 q 185 196 156 351 q 300 -103 215 40 l 210 -125 m 861 819 l 728 819 l 728 925 q 838 960 794 939 q 926 1013 882 982 l 1011 1013 l 1011 6 l 861 6 l 861 819 m 460 819 l 326 819 l 326 925 q 437 960 393 939 q 525 1013 481 982 l 610 1013 l 610 6 l 460 6 l 460 819 z "},"⑿":{"ha":1389,"x_min":39,"x_max":1350,"o":"m 1089 -103 q 1204 195 1175 39 q 1233 528 1233 351 q 1204 860 1233 706 q 1089 1158 1175 1015 l 1179 1181 q 1313 875 1275 1035 q 1350 528 1350 715 q 1313 180 1350 339 q 1179 -125 1275 21 l 1089 -103 m 210 -125 q 76 180 114 21 q 39 528 39 339 q 76 875 39 715 q 210 1181 114 1035 l 300 1158 q 185 860 215 1015 q 156 528 156 706 q 185 196 156 351 q 300 -103 215 40 l 210 -125 m 644 124 q 870 480 792 331 q 949 738 949 629 q 923 853 949 817 q 847 890 897 890 q 778 866 811 890 q 717 806 744 842 l 628 896 q 732 994 681 957 q 858 1031 783 1031 q 1028 953 967 1031 q 1090 742 1090 876 q 1071 608 1090 679 q 1018 460 1051 536 q 940 304 985 383 q 843 146 894 225 q 913 153 875 150 q 978 156 950 156 l 1117 156 l 1117 6 l 644 6 l 644 124 m 408 819 l 276 819 l 276 925 q 387 960 343 939 q 474 1013 431 982 l 560 1013 l 560 6 l 408 6 l 408 819 z "},"⒀":{"ha":1389,"x_min":39,"x_max":1350,"o":"m 1089 -103 q 1204 195 1175 39 q 1233 528 1233 351 q 1204 860 1233 706 q 1089 1158 1175 1015 l 1179 1181 q 1313 875 1275 1035 q 1350 528 1350 715 q 1313 180 1350 339 q 1179 -125 1275 21 l 1089 -103 m 210 -125 q 76 180 114 21 q 39 528 39 339 q 76 875 39 715 q 210 1181 114 1035 l 300 1158 q 185 860 215 1015 q 156 528 156 706 q 185 196 156 351 q 300 -103 215 40 l 210 -125 m 950 526 q 1073 440 1025 503 q 1121 278 1121 378 q 1100 154 1121 208 q 1042 63 1079 100 q 957 7 1006 26 q 854 -12 908 -12 q 713 17 771 -12 q 619 93 656 47 l 704 204 q 766 153 732 174 q 844 132 800 132 q 934 169 897 132 q 971 278 971 207 q 922 408 971 361 q 760 456 874 456 l 760 589 q 903 637 861 589 q 946 760 946 685 q 919 856 946 822 q 844 890 893 890 q 788 876 813 890 q 738 832 763 861 l 644 940 q 740 1007 690 983 q 849 1031 789 1031 q 1030 961 963 1031 q 1097 761 1097 892 q 1059 622 1097 678 q 950 533 1021 565 l 950 526 m 408 819 l 276 819 l 276 925 q 387 960 343 939 q 474 1013 431 982 l 560 1013 l 560 6 l 408 6 l 408 819 z "},"⒁":{"ha":1389,"x_min":39,"x_max":1350,"o":"m 300 1158 q 185 860 215 1015 q 156 528 156 706 q 185 196 156 351 q 300 -103 215 40 l 210 -125 q 76 180 114 21 q 39 528 39 339 q 76 875 39 715 q 210 1181 114 1035 l 300 1158 m 1179 1181 q 1313 875 1275 1035 q 1350 528 1350 715 q 1313 180 1350 339 q 1179 -125 1275 21 l 1089 -103 q 1204 195 1175 39 q 1233 528 1233 351 q 1204 860 1233 706 q 1089 1158 1175 1015 l 1179 1181 m 276 925 q 387 960 343 939 q 474 1013 431 982 l 560 1013 l 560 6 l 408 6 l 408 819 l 276 819 l 276 925 m 1054 278 l 1054 6 l 918 6 l 918 278 l 625 278 l 625 397 l 897 1013 l 1054 1013 l 1054 414 l 1144 414 l 1144 278 l 1054 278 m 918 414 l 918 614 q 919 722 918 661 q 924 832 921 783 l 919 832 q 892 749 906 789 q 863 665 878 710 l 757 414 l 918 414 z "},"⒂":{"ha":1389,"x_min":39,"x_max":1350,"o":"m 1089 -103 q 1204 195 1175 39 q 1233 528 1233 351 q 1204 860 1233 706 q 1089 1158 1175 1015 l 1179 1181 q 1313 875 1275 1035 q 1350 528 1350 715 q 1313 180 1350 339 q 1179 -125 1275 21 l 1089 -103 m 210 -125 q 76 180 114 21 q 39 528 39 339 q 76 875 39 715 q 210 1181 114 1035 l 300 1158 q 185 860 215 1015 q 156 528 156 706 q 185 196 156 351 q 300 -103 215 40 l 210 -125 m 804 608 q 848 631 828 624 q 893 638 868 638 q 978 619 938 638 q 1048 565 1018 601 q 1096 471 1078 528 q 1114 336 1114 414 q 1093 188 1114 253 q 1038 77 1072 122 q 959 9 1004 32 q 864 -14 914 -14 q 717 17 776 -14 q 615 93 657 49 l 700 203 q 760 152 728 172 q 833 132 793 132 q 928 183 893 132 q 963 331 963 235 q 932 467 963 418 q 856 515 901 515 q 807 503 828 515 q 761 465 786 490 l 672 517 l 694 1013 l 1069 1013 l 1069 863 l 817 863 l 804 608 m 408 819 l 276 819 l 276 925 q 387 960 343 939 q 474 1013 431 982 l 560 1013 l 560 6 l 408 6 l 408 819 z "},"⒜":{"ha":1389,"x_min":39,"x_max":1350,"o":"m 210 -125 q 76 180 114 21 q 39 528 39 339 q 76 875 39 715 q 210 1181 114 1035 l 300 1158 q 185 860 215 1015 q 156 528 156 706 q 185 196 156 351 q 300 -103 215 40 l 210 -125 m 1089 -103 q 1204 195 1175 39 q 1233 528 1233 351 q 1204 860 1233 706 q 1089 1158 1175 1015 l 1179 1181 q 1313 875 1275 1035 q 1350 528 1350 715 q 1313 180 1350 339 q 1179 -125 1275 21 l 1089 -103 m 589 114 q 498 131 539 114 q 428 179 457 149 q 383 253 399 210 q 367 346 367 296 q 469 538 367 468 q 794 632 571 607 q 767 728 793 690 q 672 767 740 767 q 571 746 621 767 q 471 692 521 725 l 396 829 q 542 901 463 872 q 713 931 621 931 q 1001 586 1001 931 l 1001 133 l 833 133 l 818 215 l 813 215 q 708 142 764 171 q 589 114 653 114 m 656 275 q 728 294 696 275 q 794 350 761 314 l 794 507 q 615 451 665 489 q 564 361 564 414 q 590 296 564 317 q 656 275 615 275 z "},"⒝":{"ha":1389,"x_min":39,"x_max":1350,"o":"m 210 -125 q 76 180 114 21 q 39 528 39 339 q 76 875 39 715 q 210 1181 114 1035 l 300 1158 q 185 860 215 1015 q 156 528 156 706 q 185 196 156 351 q 300 -103 215 40 l 210 -125 m 1089 -103 q 1204 195 1175 39 q 1233 528 1233 351 q 1204 860 1233 706 q 1089 1158 1175 1015 l 1179 1181 q 1313 875 1275 1035 q 1350 528 1350 715 q 1313 180 1350 339 q 1179 -125 1275 21 l 1089 -103 m 769 -3 q 674 22 722 -3 q 581 97 625 47 l 575 97 l 560 15 l 397 15 l 397 1128 l 604 1128 l 604 847 l 597 721 q 690 788 640 763 q 792 814 740 814 q 913 786 860 814 q 1003 706 967 758 q 1060 582 1040 654 q 1079 419 1079 510 q 1053 241 1079 319 q 985 108 1028 163 q 886 26 942 54 q 769 -3 831 -3 m 724 165 q 827 226 786 165 q 868 415 868 286 q 838 587 868 528 q 736 646 807 646 q 604 567 671 646 l 604 224 q 665 178 635 192 q 724 165 696 165 z "},"⒞":{"ha":1389,"x_min":39,"x_max":1350,"o":"m 210 -125 q 76 180 114 21 q 39 528 39 339 q 76 875 39 715 q 210 1181 114 1035 l 300 1158 q 185 860 215 1015 q 156 528 156 706 q 185 196 156 351 q 300 -103 215 40 l 210 -125 m 1089 -103 q 1204 195 1175 39 q 1233 528 1233 351 q 1204 860 1233 706 q 1089 1158 1175 1015 l 1179 1181 q 1313 875 1275 1035 q 1350 528 1350 715 q 1313 180 1350 339 q 1179 -125 1275 21 l 1089 -103 m 753 114 q 603 142 672 114 q 482 222 533 169 q 401 350 431 274 q 372 522 372 426 q 405 697 372 621 q 493 824 438 772 q 620 903 549 876 q 771 931 692 931 q 902 905 846 931 q 999 842 958 879 l 901 714 q 843 751 872 738 q 782 765 814 765 q 637 699 690 765 q 583 522 583 632 q 598 423 583 468 q 638 347 613 378 q 698 298 663 315 q 775 281 733 281 q 858 299 821 281 q 926 343 896 318 l 1011 213 q 886 138 953 163 q 753 114 819 114 z "},"⒟":{"ha":1389,"x_min":39,"x_max":1350,"o":"m 210 -125 q 76 180 114 21 q 39 528 39 339 q 76 875 39 715 q 210 1181 114 1035 l 300 1158 q 185 860 215 1015 q 156 528 156 706 q 185 196 156 351 q 300 -103 215 40 l 210 -125 m 1089 -103 q 1204 195 1175 39 q 1233 528 1233 351 q 1204 860 1233 706 q 1089 1158 1175 1015 l 1179 1181 q 1313 875 1275 1035 q 1350 528 1350 715 q 1313 180 1350 339 q 1179 -125 1275 21 l 1089 -103 m 610 -3 q 487 25 542 -3 q 393 106 432 53 q 333 234 354 158 q 313 406 313 310 q 338 577 313 501 q 406 706 364 653 q 503 786 449 758 q 617 814 558 814 q 717 792 675 814 q 794 731 758 769 l 789 853 l 789 1128 l 994 1128 l 994 15 l 825 15 l 810 96 l 806 96 q 716 26 768 54 q 610 -3 664 -3 m 663 165 q 728 184 699 165 q 789 244 758 203 l 789 589 q 726 633 757 619 q 664 646 696 646 q 565 585 606 646 q 524 407 524 525 q 560 225 524 285 q 663 165 596 165 z "},"⒠":{"ha":1389,"x_min":39,"x_max":1350,"o":"m 210 -125 q 76 180 114 21 q 39 528 39 339 q 76 875 39 715 q 210 1181 114 1035 l 300 1158 q 185 860 215 1015 q 156 528 156 706 q 185 196 156 351 q 300 -103 215 40 l 210 -125 m 1089 -103 q 1204 195 1175 39 q 1233 528 1233 351 q 1204 860 1233 706 q 1089 1158 1175 1015 l 1179 1181 q 1313 875 1275 1035 q 1350 528 1350 715 q 1313 180 1350 339 q 1179 -125 1275 21 l 1089 -103 m 740 114 q 597 142 664 114 q 479 222 529 169 q 401 350 429 274 q 372 522 372 426 q 401 692 372 617 q 477 821 429 768 q 587 902 525 874 q 715 931 649 931 q 847 903 790 931 q 943 826 904 875 q 1001 708 982 776 q 1021 558 1021 640 q 1018 507 1021 531 q 1013 469 1015 483 l 572 469 q 636 321 585 369 q 767 272 688 272 q 848 286 811 272 q 922 325 885 300 l 992 201 q 874 137 939 160 q 740 114 808 114 m 844 596 q 815 727 844 679 q 719 775 786 775 q 622 731 664 775 q 569 596 581 688 l 844 596 z "},"⒡":{"ha":1389,"x_min":39,"x_max":1350,"o":"m 300 1158 q 185 860 215 1015 q 156 528 156 706 q 185 196 156 351 q 300 -103 215 40 l 210 -125 q 76 180 114 21 q 39 528 39 339 q 76 875 39 715 q 210 1181 114 1035 l 300 1158 m 1179 1181 q 1313 875 1275 1035 q 1350 528 1350 715 q 1313 180 1350 339 q 1179 -125 1275 21 l 1089 -103 q 1204 195 1175 39 q 1233 528 1233 351 q 1204 860 1233 706 q 1089 1158 1175 1015 l 1179 1181 m 504 858 q 519 972 504 919 q 566 1063 533 1024 q 651 1125 599 1103 q 776 1147 703 1147 q 860 1138 822 1147 q 925 1118 899 1129 l 886 967 q 806 983 847 983 q 735 956 760 983 q 710 863 710 929 l 710 796 l 857 796 l 857 633 l 710 633 l 710 15 l 504 15 l 504 633 l 400 633 l 400 788 l 504 794 l 504 858 z "},"⒢":{"ha":1389,"x_min":39,"x_max":1350,"o":"m 210 -125 q 76 180 114 21 q 39 528 39 339 q 76 875 39 715 q 210 1181 114 1035 l 300 1158 q 185 860 215 1015 q 156 528 156 706 q 185 196 156 351 q 300 -103 215 40 l 210 -125 m 1089 -103 q 1204 195 1175 39 q 1233 528 1233 351 q 1204 860 1233 706 q 1089 1158 1175 1015 l 1179 1181 q 1313 875 1275 1035 q 1350 528 1350 715 q 1313 180 1350 339 q 1179 -125 1275 21 l 1089 -103 m 663 -60 q 556 -49 606 -60 q 471 -14 507 -37 q 414 45 435 10 q 393 131 393 81 q 418 216 393 178 q 490 285 443 254 l 490 290 q 441 340 461 311 q 421 414 421 369 q 446 492 421 456 q 507 556 471 529 l 507 561 q 435 641 467 590 q 403 758 403 692 q 426 876 403 825 q 488 961 449 926 q 577 1013 526 996 q 683 1031 628 1031 q 769 1013 735 1031 l 1028 1013 l 1028 863 l 915 863 q 940 815 929 843 q 951 753 951 786 q 931 639 951 688 q 873 558 910 590 q 788 510 836 526 q 683 494 739 494 q 653 498 672 494 q 615 508 635 501 q 594 483 603 494 q 585 451 585 471 q 601 410 585 424 q 664 396 618 396 l 750 396 q 958 351 889 396 q 1026 207 1026 307 q 1001 101 1026 150 q 929 17 976 53 q 815 -40 882 -19 q 663 -60 747 -60 m 683 619 q 754 656 726 619 q 782 758 782 692 q 754 858 782 825 q 683 892 726 892 q 614 858 642 892 q 586 758 586 825 q 615 656 586 692 q 683 619 643 619 m 694 69 q 792 99 754 69 q 831 168 831 128 q 801 222 831 208 q 715 235 771 235 l 667 235 q 603 246 639 235 q 564 158 564 208 q 598 93 564 117 q 694 69 632 69 z "},"⒣":{"ha":1389,"x_min":39,"x_max":1350,"o":"m 210 -125 q 76 180 114 21 q 39 528 39 339 q 76 875 39 715 q 210 1181 114 1035 l 300 1158 q 185 860 215 1015 q 156 528 156 706 q 185 196 156 351 q 300 -103 215 40 l 210 -125 m 1089 -103 q 1204 195 1175 39 q 1233 528 1233 351 q 1204 860 1233 706 q 1089 1158 1175 1015 l 1179 1181 q 1313 875 1275 1035 q 1350 528 1350 715 q 1313 180 1350 339 q 1179 -125 1275 21 l 1089 -103 m 382 1128 l 588 1128 l 588 847 l 576 700 q 679 779 622 744 q 813 814 736 814 q 989 732 935 814 q 1043 503 1043 650 l 1043 15 l 838 15 l 838 475 q 815 603 838 567 q 739 640 792 640 q 661 617 694 640 q 588 553 628 593 l 588 15 l 382 15 l 382 1128 z "},"⒤":{"ha":1389,"x_min":39,"x_max":1350,"o":"m 210 -125 q 76 180 114 21 q 39 528 39 339 q 76 875 39 715 q 210 1181 114 1035 l 300 1158 q 185 860 215 1015 q 156 528 156 706 q 185 196 156 351 q 300 -103 215 40 l 210 -125 m 1089 -103 q 1204 195 1175 39 q 1233 528 1233 351 q 1204 860 1233 706 q 1089 1158 1175 1015 l 1179 1181 q 1313 875 1275 1035 q 1350 528 1350 715 q 1313 180 1350 339 q 1179 -125 1275 21 l 1089 -103 m 694 922 q 607 953 642 922 q 572 1033 572 985 q 607 1113 572 1082 q 694 1144 642 1144 q 783 1113 747 1144 q 818 1033 818 1082 q 783 953 818 985 q 694 922 747 922 m 592 796 l 799 796 l 799 15 l 592 15 l 592 796 z "},"⒥":{"ha":1389,"x_min":39,"x_max":1350,"o":"m 724 1007 q 635 1038 669 1007 q 600 1118 600 1069 q 635 1198 600 1167 q 724 1229 669 1229 q 810 1198 776 1229 q 844 1118 844 1167 q 810 1038 844 1069 q 724 1007 776 1007 m 210 -125 q 76 180 114 21 q 39 528 39 339 q 76 875 39 715 q 210 1181 114 1035 l 300 1158 q 185 860 215 1015 q 156 528 156 706 q 185 196 156 351 q 300 -103 215 40 l 210 -125 m 1089 -103 q 1204 195 1175 39 q 1233 528 1233 351 q 1204 860 1233 706 q 1089 1158 1175 1015 l 1179 1181 q 1313 875 1275 1035 q 1350 528 1350 715 q 1313 180 1350 339 q 1179 -125 1275 21 l 1089 -103 m 565 -218 q 488 -212 519 -218 q 432 -197 456 -206 l 468 -44 q 533 -56 504 -56 q 602 -22 583 -56 q 621 78 621 11 l 621 881 l 825 881 l 825 82 q 812 -35 825 19 q 769 -131 799 -90 q 689 -195 739 -172 q 565 -218 639 -218 z "},"⒦":{"ha":1389,"x_min":39,"x_max":1350,"o":"m 210 -125 q 76 180 114 21 q 39 528 39 339 q 76 875 39 715 q 210 1181 114 1035 l 300 1158 q 185 860 215 1015 q 156 528 156 706 q 185 196 156 351 q 300 -103 215 40 l 210 -125 m 1089 -103 q 1204 195 1175 39 q 1233 528 1233 351 q 1204 860 1233 706 q 1089 1158 1175 1015 l 1179 1181 q 1313 875 1275 1035 q 1350 528 1350 715 q 1313 180 1350 339 q 1179 -125 1275 21 l 1089 -103 m 378 1128 l 579 1128 l 579 460 l 585 460 l 813 796 l 1036 796 l 797 476 l 1060 15 l 836 15 l 679 339 l 579 210 l 579 15 l 378 15 l 378 1128 z "},"⒧":{"ha":1389,"x_min":39,"x_max":1350,"o":"m 210 -125 q 76 180 114 21 q 39 528 39 339 q 76 875 39 715 q 210 1181 114 1035 l 300 1158 q 185 860 215 1015 q 156 528 156 706 q 185 196 156 351 q 300 -103 215 40 l 210 -125 m 1089 -103 q 1204 195 1175 39 q 1233 528 1233 351 q 1204 860 1233 706 q 1089 1158 1175 1015 l 1179 1181 q 1313 875 1275 1035 q 1350 528 1350 715 q 1313 180 1350 339 q 1179 -125 1275 21 l 1089 -103 m 779 -3 q 628 62 672 -3 q 585 236 585 126 l 585 1128 l 792 1128 l 792 226 q 804 177 792 190 q 832 164 817 164 q 843 164 838 164 q 860 167 849 164 l 885 14 q 841 2 867 7 q 779 -3 815 -3 z "},"⒨":{"ha":1389,"x_min":39,"x_max":1350,"o":"m 210 -125 q 76 180 114 21 q 39 528 39 339 q 76 875 39 715 q 210 1181 114 1035 l 300 1158 q 185 860 215 1015 q 156 528 156 706 q 185 196 156 351 q 300 -103 215 40 l 210 -125 m 1089 -103 q 1204 195 1175 39 q 1233 528 1233 351 q 1204 860 1233 706 q 1089 1158 1175 1015 l 1179 1181 q 1313 875 1275 1035 q 1350 528 1350 715 q 1313 180 1350 339 q 1179 -125 1275 21 l 1089 -103 m 275 913 l 411 913 l 428 838 l 433 838 q 509 903 469 876 q 604 931 549 931 q 697 903 663 931 q 754 824 731 876 q 838 899 794 868 q 939 931 881 931 q 1076 863 1032 931 q 1121 668 1121 794 l 1121 133 l 949 133 l 949 642 q 933 731 949 706 q 885 757 917 757 q 781 697 836 757 l 781 133 l 617 133 l 617 642 q 601 731 617 706 q 553 757 585 757 q 502 743 526 757 q 450 697 478 729 l 450 133 l 275 133 l 275 913 z "},"⒩":{"ha":1389,"x_min":39,"x_max":1350,"o":"m 210 -125 q 76 180 114 21 q 39 528 39 339 q 76 875 39 715 q 210 1181 114 1035 l 300 1158 q 185 860 215 1015 q 156 528 156 706 q 185 196 156 351 q 300 -103 215 40 l 210 -125 m 1089 -103 q 1204 195 1175 39 q 1233 528 1233 351 q 1204 860 1233 706 q 1089 1158 1175 1015 l 1179 1181 q 1313 875 1275 1035 q 1350 528 1350 715 q 1313 180 1350 339 q 1179 -125 1275 21 l 1089 -103 m 368 913 l 536 913 l 551 815 l 558 815 q 664 897 607 864 q 800 931 721 931 q 976 851 922 931 q 1031 625 1031 771 l 1031 133 l 825 133 l 825 599 q 801 722 825 686 q 725 757 778 757 q 648 736 681 757 q 575 675 615 715 l 575 133 l 368 133 l 368 913 z "},"⒪":{"ha":1389,"x_min":39,"x_max":1350,"o":"m 210 -125 q 76 180 114 21 q 39 528 39 339 q 76 875 39 715 q 210 1181 114 1035 l 300 1158 q 185 860 215 1015 q 156 528 156 706 q 185 196 156 351 q 300 -103 215 40 l 210 -125 m 1089 -103 q 1204 195 1175 39 q 1233 528 1233 351 q 1204 860 1233 706 q 1089 1158 1175 1015 l 1179 1181 q 1313 875 1275 1035 q 1350 528 1350 715 q 1313 180 1350 339 q 1179 -125 1275 21 l 1089 -103 m 694 114 q 558 142 624 114 q 441 222 492 169 q 360 350 390 274 q 331 522 331 426 q 360 697 331 621 q 441 824 390 772 q 558 903 492 876 q 694 931 624 931 q 831 903 765 931 q 948 824 897 876 q 1028 697 999 772 q 1058 522 1058 621 q 1028 350 1058 426 q 948 222 999 274 q 831 142 897 169 q 694 114 765 114 m 694 281 q 808 347 769 281 q 847 522 847 413 q 808 699 847 632 q 694 765 769 765 q 580 699 619 765 q 540 522 540 632 q 580 347 540 413 q 694 281 619 281 z "},"⒫":{"ha":1389,"x_min":39,"x_max":1350,"o":"m 210 -125 q 76 180 114 21 q 39 528 39 339 q 76 875 39 715 q 210 1181 114 1035 l 300 1158 q 185 860 215 1015 q 156 528 156 706 q 185 196 156 351 q 300 -103 215 40 l 210 -125 m 1089 -103 q 1204 195 1175 39 q 1233 528 1233 351 q 1204 860 1233 706 q 1089 1158 1175 1015 l 1179 1181 q 1313 875 1275 1035 q 1350 528 1350 715 q 1313 180 1350 339 q 1179 -125 1275 21 l 1089 -103 m 388 1013 l 554 1013 l 571 932 l 576 932 q 678 1002 622 974 q 793 1031 735 1031 q 918 1003 863 1031 q 1012 923 974 975 q 1070 799 1050 871 q 1090 636 1090 726 q 1063 458 1090 536 q 992 325 1036 379 q 890 242 947 271 q 769 214 832 214 q 676 235 721 214 q 586 297 631 257 l 593 172 l 593 -11 l 388 -11 l 388 1013 m 724 383 q 834 444 790 383 q 878 633 878 504 q 844 804 878 746 q 736 863 811 863 q 666 842 699 863 q 593 783 633 822 l 593 442 q 660 397 628 410 q 724 383 693 383 z "},"⒬":{"ha":1389,"x_min":39,"x_max":1350,"o":"m 210 -125 q 76 180 114 21 q 39 528 39 339 q 76 875 39 715 q 210 1181 114 1035 l 300 1158 q 185 860 215 1015 q 156 528 156 706 q 185 196 156 351 q 300 -103 215 40 l 210 -125 m 1089 -103 q 1204 195 1175 39 q 1233 528 1233 351 q 1204 860 1233 706 q 1089 1158 1175 1015 l 1179 1181 q 1313 875 1275 1035 q 1350 528 1350 715 q 1313 180 1350 339 q 1179 -125 1275 21 l 1089 -103 m 797 182 l 803 306 q 713 240 764 267 q 608 214 663 214 q 481 242 538 214 q 383 322 424 269 q 321 451 343 375 q 299 622 299 526 q 326 794 299 718 q 397 922 353 869 q 498 1003 440 975 q 615 1031 556 1031 q 724 1008 678 1031 q 818 936 769 985 l 824 936 l 840 1013 l 1001 1013 l 1001 -11 l 797 -11 l 797 182 m 660 383 q 731 402 699 383 q 797 461 763 421 l 797 806 q 728 849 763 836 q 661 863 694 863 q 555 802 599 863 q 511 624 511 742 q 550 442 511 501 q 660 383 589 383 z "},"⒭":{"ha":1389,"x_min":39,"x_max":1350,"o":"m 210 -125 q 76 180 114 21 q 39 528 39 339 q 76 875 39 715 q 210 1181 114 1035 l 300 1158 q 185 860 215 1015 q 156 528 156 706 q 185 196 156 351 q 300 -103 215 40 l 210 -125 m 1089 -103 q 1204 195 1175 39 q 1233 528 1233 351 q 1204 860 1233 706 q 1089 1158 1175 1015 l 1179 1181 q 1313 875 1275 1035 q 1350 528 1350 715 q 1313 180 1350 339 q 1179 -125 1275 21 l 1089 -103 m 474 913 l 640 913 l 657 775 l 663 775 q 763 892 704 854 q 883 931 821 931 q 974 915 931 931 l 939 739 q 900 747 918 743 q 857 751 882 751 q 760 717 808 751 q 679 597 713 682 l 679 133 l 474 133 l 474 913 z "},"⒮":{"ha":1389,"x_min":39,"x_max":1350,"o":"m 210 -125 q 76 180 114 21 q 39 528 39 339 q 76 875 39 715 q 210 1181 114 1035 l 300 1158 q 185 860 215 1015 q 156 528 156 706 q 185 196 156 351 q 300 -103 215 40 l 210 -125 m 1089 -103 q 1204 195 1175 39 q 1233 528 1233 351 q 1204 860 1233 706 q 1089 1158 1175 1015 l 1179 1181 q 1313 875 1275 1035 q 1350 528 1350 715 q 1313 180 1350 339 q 1179 -125 1275 21 l 1089 -103 m 683 114 q 524 144 604 114 q 386 224 444 175 l 479 353 q 583 290 532 313 q 688 267 633 267 q 774 290 747 267 q 801 349 801 313 q 788 387 801 371 q 751 416 774 403 q 699 441 728 429 q 639 465 669 453 q 563 499 601 479 q 494 545 525 518 q 444 609 464 572 q 425 693 425 646 q 445 790 425 746 q 503 865 465 833 q 596 913 542 896 q 717 931 650 931 q 867 902 801 931 q 981 836 933 874 l 889 711 q 807 760 849 742 q 721 778 765 778 q 643 756 668 778 q 618 703 618 735 q 631 667 618 682 q 667 640 644 651 q 717 617 689 628 q 776 596 746 607 q 854 563 815 582 q 924 517 893 544 q 975 452 956 490 q 994 360 994 414 q 974 264 994 308 q 915 186 954 219 q 817 133 875 153 q 683 114 760 114 z "},"⒯":{"ha":1389,"x_min":39,"x_max":1350,"o":"m 210 -125 q 76 180 114 21 q 39 528 39 339 q 76 875 39 715 q 210 1181 114 1035 l 300 1158 q 185 860 215 1015 q 156 528 156 706 q 185 196 156 351 q 300 -103 215 40 l 210 -125 m 1089 -103 q 1204 195 1175 39 q 1233 528 1233 351 q 1204 860 1233 706 q 1089 1158 1175 1015 l 1179 1181 q 1313 875 1275 1035 q 1350 528 1350 715 q 1313 180 1350 339 q 1179 -125 1275 21 l 1089 -103 m 797 47 q 678 69 728 47 q 598 128 629 90 q 553 221 567 167 q 539 340 539 275 l 539 683 l 431 683 l 431 839 l 551 846 l 575 1057 l 744 1057 l 744 846 l 938 846 l 938 683 l 744 683 l 744 340 q 772 240 744 272 q 851 208 800 208 q 892 214 871 208 q 929 226 913 219 l 963 76 q 890 56 931 65 q 797 47 849 47 z "},"⒰":{"ha":1389,"x_min":39,"x_max":1350,"o":"m 210 -125 q 76 180 114 21 q 39 528 39 339 q 76 875 39 715 q 210 1181 114 1035 l 300 1158 q 185 860 215 1015 q 156 528 156 706 q 185 196 156 351 q 300 -103 215 40 l 210 -125 m 1089 -103 q 1204 195 1175 39 q 1233 528 1233 351 q 1204 860 1233 706 q 1089 1158 1175 1015 l 1179 1181 q 1313 875 1275 1035 q 1350 528 1350 715 q 1313 180 1350 339 q 1179 -125 1275 21 l 1089 -103 m 593 114 q 417 194 471 114 q 363 418 363 275 l 363 913 l 567 913 l 567 446 q 591 324 567 358 q 667 289 615 289 q 743 310 711 289 q 813 381 775 332 l 813 913 l 1018 913 l 1018 133 l 850 133 l 836 239 l 829 239 q 725 147 781 181 q 593 114 669 114 z "},"⒱":{"ha":1389,"x_min":39,"x_max":1350,"o":"m 210 -125 q 76 180 114 21 q 39 528 39 339 q 76 875 39 715 q 210 1181 114 1035 l 300 1158 q 185 860 215 1015 q 156 528 156 706 q 185 196 156 351 q 300 -103 215 40 l 210 -125 m 1089 -103 q 1204 195 1175 39 q 1233 528 1233 351 q 1204 860 1233 706 q 1089 1158 1175 1015 l 1179 1181 q 1313 875 1275 1035 q 1350 528 1350 715 q 1313 180 1350 339 q 1179 -125 1275 21 l 1089 -103 m 313 913 l 519 913 l 633 525 q 665 407 649 467 q 697 288 681 347 l 703 288 q 735 407 718 347 q 767 525 751 467 l 879 913 l 1078 913 l 818 133 l 581 133 l 313 913 z "},"⒲":{"ha":1389,"x_min":39,"x_max":1350,"o":"m 210 -125 q 76 180 114 21 q 39 528 39 339 q 76 875 39 715 q 210 1181 114 1035 l 300 1158 q 185 860 215 1015 q 156 528 156 706 q 185 196 156 351 q 300 -103 215 40 l 210 -125 m 1089 -103 q 1204 195 1175 39 q 1233 528 1233 351 q 1204 860 1233 706 q 1089 1158 1175 1015 l 1179 1181 q 1313 875 1275 1035 q 1350 528 1350 715 q 1313 180 1350 339 q 1179 -125 1275 21 l 1089 -103 m 229 913 l 413 913 l 467 529 q 481 415 474 471 q 496 300 488 358 l 501 300 q 520 415 513 358 q 538 529 528 471 l 608 913 l 790 913 l 864 529 q 883 415 875 471 q 903 300 890 358 l 908 300 q 924 415 917 358 q 938 529 931 471 l 989 913 l 1160 913 l 1031 133 l 789 133 l 729 474 q 712 582 719 528 q 697 699 704 636 l 690 699 q 675 581 682 636 q 658 471 668 525 l 604 133 l 367 133 l 229 913 z "},"⒳":{"ha":1389,"x_min":39,"x_max":1350,"o":"m 210 -125 q 76 180 114 21 q 39 528 39 339 q 76 875 39 715 q 210 1181 114 1035 l 300 1158 q 185 860 215 1015 q 156 528 156 706 q 185 196 156 351 q 300 -103 215 40 l 210 -125 m 1089 -103 q 1204 195 1175 39 q 1233 528 1233 351 q 1204 860 1233 706 q 1089 1158 1175 1015 l 1179 1181 q 1313 875 1275 1035 q 1350 528 1350 715 q 1313 180 1350 339 q 1179 -125 1275 21 l 1089 -103 m 569 539 l 340 913 l 561 913 l 639 775 q 674 709 657 743 q 710 642 692 675 l 715 642 q 744 709 729 675 q 772 775 758 743 l 836 913 l 1050 913 l 822 515 l 1064 133 l 844 133 l 757 275 q 719 343 738 308 q 682 413 701 378 l 675 413 q 642 344 658 378 q 610 275 626 310 l 538 133 l 325 133 l 569 539 z "},"⒴":{"ha":1389,"x_min":39,"x_max":1350,"o":"m 210 -125 q 76 180 114 21 q 39 528 39 339 q 76 875 39 715 q 210 1181 114 1035 l 300 1158 q 185 860 215 1015 q 156 528 156 706 q 185 196 156 351 q 300 -103 215 40 l 210 -125 m 1089 -103 q 1204 195 1175 39 q 1233 528 1233 351 q 1204 860 1233 706 q 1089 1158 1175 1015 l 1179 1181 q 1313 875 1275 1035 q 1350 528 1350 715 q 1313 180 1350 339 q 1179 -125 1275 21 l 1089 -103 m 497 -24 q 436 -19 461 -24 q 388 -8 411 -15 l 425 150 q 452 142 436 146 q 482 139 468 139 q 607 213 588 139 l 617 247 l 317 1013 l 524 1013 l 643 653 q 678 545 663 600 q 710 432 693 490 l 715 432 q 744 543 731 488 q 774 653 758 599 l 875 1013 l 1071 1013 l 804 221 q 692 38 763 100 q 497 -24 622 -24 z "},"⒵":{"ha":1389,"x_min":39,"x_max":1350,"o":"m 210 -125 q 76 180 114 21 q 39 528 39 339 q 76 875 39 715 q 210 1181 114 1035 l 300 1158 q 185 860 215 1015 q 156 528 156 706 q 185 196 156 351 q 300 -103 215 40 l 210 -125 m 1089 -103 q 1204 195 1175 39 q 1233 528 1233 351 q 1204 860 1233 706 q 1089 1158 1175 1015 l 1179 1181 q 1313 875 1275 1035 q 1350 528 1350 715 q 1313 180 1350 339 q 1179 -125 1275 21 l 1089 -103 m 394 242 l 744 750 l 435 750 l 435 913 l 1001 913 l 1001 801 l 651 294 l 1011 294 l 1011 133 l 394 133 l 394 242 z "},"ⓐ":{"ha":1389,"x_min":39,"x_max":1350,"o":"m 694 -128 q 440 -76 560 -128 q 231 65 321 -25 q 90 274 142 154 q 39 528 39 393 q 90 783 39 664 q 231 991 142 901 q 440 1132 321 1081 q 694 1183 560 1183 q 949 1132 831 1183 q 1158 991 1068 1081 q 1299 783 1247 901 q 1350 528 1350 664 q 1298 272 1350 392 q 1156 64 1246 153 q 948 -76 1067 -25 q 694 -128 829 -128 m 694 -76 q 929 -29 819 -76 q 1122 101 1039 18 q 1251 293 1204 183 q 1299 528 1299 403 q 1251 763 1299 653 q 1122 955 1204 872 q 929 1085 1039 1038 q 694 1132 819 1132 q 458 1084 568 1132 q 267 953 349 1036 q 138 761 185 871 q 90 528 90 651 q 138 293 90 403 q 267 101 185 183 q 460 -29 350 18 q 694 -76 569 -76 m 628 254 q 513 299 556 254 q 471 410 471 343 q 540 538 471 493 q 769 599 610 583 q 750 658 768 636 q 689 679 732 679 q 615 665 653 679 q 542 631 578 651 l 489 728 q 594 776 538 756 q 714 796 651 796 q 917 568 917 796 l 917 267 l 800 267 l 788 321 l 781 321 q 713 273 750 292 q 628 254 675 254 m 678 367 q 725 378 704 367 q 769 413 746 389 l 769 513 q 647 478 681 503 q 613 421 613 453 q 678 367 613 367 z "},"ⓑ":{"ha":1389,"x_min":39,"x_max":1350,"o":"m 694 -128 q 440 -76 560 -128 q 231 65 321 -25 q 90 274 142 154 q 39 528 39 393 q 90 783 39 664 q 231 991 142 901 q 440 1132 321 1081 q 694 1183 560 1183 q 949 1132 831 1183 q 1158 991 1068 1081 q 1299 783 1247 901 q 1350 528 1350 664 q 1298 272 1350 392 q 1156 64 1246 153 q 948 -76 1067 -25 q 694 -128 829 -128 m 694 -76 q 929 -29 819 -76 q 1122 101 1039 18 q 1251 293 1204 183 q 1299 528 1299 403 q 1251 763 1299 653 q 1122 955 1204 872 q 929 1085 1039 1038 q 694 1132 819 1132 q 458 1084 568 1132 q 267 953 349 1036 q 138 761 185 871 q 90 528 90 651 q 138 293 90 403 q 267 101 185 183 q 460 -29 350 18 q 694 -76 569 -76 m 769 188 q 697 204 733 188 q 632 253 660 221 l 625 253 l 613 200 l 500 200 l 500 933 l 646 933 l 646 750 l 640 667 q 708 712 672 694 q 783 729 744 729 q 934 658 879 729 q 989 468 989 586 q 971 349 989 401 q 922 260 953 296 q 852 206 892 225 q 769 188 813 188 m 738 304 q 809 342 779 304 q 839 464 839 381 q 743 611 839 611 q 646 561 692 611 l 646 339 q 738 304 693 304 z "},"ⓒ":{"ha":1389,"x_min":39,"x_max":1350,"o":"m 694 -128 q 440 -76 560 -128 q 231 65 321 -25 q 90 274 142 154 q 39 528 39 393 q 90 783 39 664 q 231 991 142 901 q 440 1132 321 1081 q 694 1183 560 1183 q 949 1132 831 1183 q 1158 991 1068 1081 q 1299 783 1247 901 q 1350 528 1350 664 q 1298 272 1350 392 q 1156 64 1246 153 q 948 -76 1067 -25 q 694 -128 829 -128 m 694 -76 q 929 -29 819 -76 q 1122 101 1039 18 q 1251 293 1204 183 q 1299 528 1299 403 q 1251 763 1299 653 q 1122 955 1204 872 q 929 1085 1039 1038 q 694 1132 819 1132 q 458 1084 568 1132 q 267 953 349 1036 q 138 761 185 871 q 90 528 90 651 q 138 293 90 403 q 267 101 185 183 q 460 -29 350 18 q 694 -76 569 -76 m 713 254 q 612 272 658 254 q 531 325 565 290 q 478 410 497 360 q 458 525 458 461 q 480 639 458 589 q 538 724 501 689 q 622 777 574 758 q 721 796 669 796 q 820 778 781 796 q 883 742 860 761 l 815 647 q 777 671 796 663 q 732 679 758 679 q 644 638 679 679 q 610 525 610 596 q 643 413 610 454 q 731 371 676 371 q 790 381 767 371 q 829 407 813 392 l 889 314 q 819 273 863 292 q 713 254 775 254 z "},"ⓓ":{"ha":1389,"x_min":39,"x_max":1350,"o":"m 694 -128 q 440 -76 560 -128 q 231 65 321 -25 q 90 274 142 154 q 39 528 39 393 q 90 783 39 664 q 231 991 142 901 q 440 1132 321 1081 q 694 1183 560 1183 q 949 1132 831 1183 q 1158 991 1068 1081 q 1299 783 1247 901 q 1350 528 1350 664 q 1298 272 1350 392 q 1156 64 1246 153 q 948 -76 1067 -25 q 694 -128 829 -128 m 694 -76 q 929 -29 819 -76 q 1122 101 1039 18 q 1251 293 1204 183 q 1299 528 1299 403 q 1251 763 1299 653 q 1122 955 1204 872 q 929 1085 1039 1038 q 694 1132 819 1132 q 458 1084 568 1132 q 267 953 349 1036 q 138 761 185 871 q 90 528 90 651 q 138 293 90 403 q 267 101 185 183 q 460 -29 350 18 q 694 -76 569 -76 m 643 188 q 485 260 543 188 q 428 468 428 333 q 447 578 428 529 q 497 660 465 626 q 567 711 528 693 q 644 729 606 729 q 718 714 686 729 q 778 675 750 699 l 769 760 l 769 933 l 915 933 l 915 200 l 797 200 l 785 251 l 781 251 q 718 206 753 224 q 643 188 683 188 m 682 304 q 769 354 728 304 l 769 575 q 724 604 746 596 q 678 613 701 613 q 608 576 638 613 q 578 468 578 539 q 604 344 578 383 q 682 304 631 304 z "},"ⓔ":{"ha":1389,"x_min":39,"x_max":1350,"o":"m 694 -128 q 440 -76 560 -128 q 231 65 321 -25 q 90 274 142 154 q 39 528 39 393 q 90 783 39 664 q 231 991 142 901 q 440 1132 321 1081 q 694 1183 560 1183 q 949 1132 831 1183 q 1158 991 1068 1081 q 1299 783 1247 901 q 1350 528 1350 664 q 1298 272 1350 392 q 1156 64 1246 153 q 948 -76 1067 -25 q 694 -128 829 -128 m 694 -76 q 929 -29 819 -76 q 1122 101 1039 18 q 1251 293 1204 183 q 1299 528 1299 403 q 1251 763 1299 653 q 1122 955 1204 872 q 929 1085 1039 1038 q 694 1132 819 1132 q 458 1084 568 1132 q 267 953 349 1036 q 138 761 185 871 q 90 528 90 651 q 138 293 90 403 q 267 101 185 183 q 460 -29 350 18 q 694 -76 569 -76 m 725 254 q 623 272 671 254 q 540 325 575 290 q 483 410 504 360 q 463 525 463 461 q 483 638 463 588 q 537 723 503 688 q 615 777 571 758 q 710 796 660 796 q 810 775 768 796 q 879 719 853 754 q 918 640 906 685 q 931 550 931 596 q 928 518 931 531 q 924 489 926 506 l 604 489 q 651 396 613 425 q 744 367 689 367 q 863 400 807 367 l 913 313 q 823 269 872 285 q 725 254 774 254 m 806 574 q 785 650 806 615 q 713 685 764 685 q 639 657 668 685 q 601 574 610 629 l 806 574 z "},"ⓕ":{"ha":1389,"x_min":39,"x_max":1350,"o":"m 694 1183 q 949 1132 831 1183 q 1158 991 1068 1081 q 1299 783 1247 901 q 1350 528 1350 664 q 1298 272 1350 392 q 1156 64 1246 153 q 948 -76 1067 -25 q 694 -128 829 -128 q 440 -76 560 -128 q 231 65 321 -25 q 90 274 142 154 q 39 528 39 393 q 90 783 39 664 q 231 991 142 901 q 440 1132 321 1081 q 694 1183 560 1183 m 694 -76 q 929 -29 819 -76 q 1122 101 1039 18 q 1251 293 1204 183 q 1299 528 1299 403 q 1251 763 1299 653 q 1122 955 1204 872 q 929 1085 1039 1038 q 694 1132 819 1132 q 458 1084 568 1132 q 267 953 349 1036 q 138 761 185 871 q 90 528 90 651 q 138 293 90 403 q 267 101 185 183 q 460 -29 350 18 q 694 -76 569 -76 m 586 747 q 597 827 586 789 q 629 894 607 865 q 687 939 651 922 q 774 956 722 956 q 831 950 806 956 q 878 938 857 944 l 849 832 q 794 840 828 840 q 733 754 733 840 l 733 717 l 831 717 l 831 603 l 733 603 l 733 200 l 586 200 l 586 603 l 517 603 l 517 713 l 586 717 l 586 747 z "},"ⓖ":{"ha":1389,"x_min":39,"x_max":1350,"o":"m 694 -128 q 440 -76 560 -128 q 231 65 321 -25 q 90 274 142 154 q 39 528 39 393 q 90 783 39 664 q 231 991 142 901 q 440 1132 321 1081 q 694 1183 560 1183 q 949 1132 831 1183 q 1158 991 1068 1081 q 1299 783 1247 901 q 1350 528 1350 664 q 1298 272 1350 392 q 1156 64 1246 153 q 948 -76 1067 -25 q 694 -128 829 -128 m 694 -76 q 929 -29 819 -76 q 1122 101 1039 18 q 1251 293 1204 183 q 1299 528 1299 403 q 1251 763 1299 653 q 1122 955 1204 872 q 929 1085 1039 1038 q 694 1132 819 1132 q 458 1084 568 1132 q 267 953 349 1036 q 138 761 185 871 q 90 528 90 651 q 138 293 90 403 q 267 101 185 183 q 460 -29 350 18 q 694 -76 569 -76 m 671 115 q 585 123 625 115 q 515 147 544 131 q 469 189 486 164 q 453 249 453 214 q 526 351 453 314 l 526 358 q 492 393 504 372 q 479 446 479 414 q 496 499 479 474 q 538 540 513 524 l 538 547 q 488 600 508 565 q 467 681 467 635 q 484 762 467 726 q 531 821 501 797 q 600 856 561 844 q 682 868 639 868 q 724 865 703 868 q 764 856 744 863 l 951 856 l 951 747 l 867 747 q 881 716 875 736 q 886 676 886 696 q 869 599 886 632 q 825 544 853 565 q 760 511 797 522 q 682 500 724 500 q 651 502 667 500 q 617 511 636 504 q 600 493 606 501 q 594 471 594 485 q 612 441 594 450 q 674 432 629 432 l 764 432 q 910 402 861 432 q 958 301 958 372 q 938 228 958 263 q 881 169 918 194 q 791 130 844 144 q 671 115 738 115 m 682 590 q 736 614 714 590 q 758 681 758 638 q 736 747 758 725 q 682 769 714 769 q 625 747 646 769 q 604 681 604 725 q 625 614 604 638 q 682 590 646 590 m 694 208 q 785 229 750 208 q 819 278 819 250 q 799 311 819 301 q 738 321 778 321 l 676 321 q 641 322 660 321 q 606 328 622 322 q 574 274 574 300 q 605 225 574 242 q 694 208 636 208 z "},"ⓗ":{"ha":1389,"x_min":39,"x_max":1350,"o":"m 694 -128 q 440 -76 560 -128 q 231 65 321 -25 q 90 274 142 154 q 39 528 39 393 q 90 783 39 664 q 231 991 142 901 q 440 1132 321 1081 q 694 1183 560 1183 q 949 1132 831 1183 q 1158 991 1068 1081 q 1299 783 1247 901 q 1350 528 1350 664 q 1298 272 1350 392 q 1156 64 1246 153 q 948 -76 1067 -25 q 694 -128 829 -128 m 694 -76 q 929 -29 819 -76 q 1122 101 1039 18 q 1251 293 1204 183 q 1299 528 1299 403 q 1251 763 1299 653 q 1122 955 1204 872 q 929 1085 1039 1038 q 694 1132 819 1132 q 458 1084 568 1132 q 267 953 349 1036 q 138 761 185 871 q 90 528 90 651 q 138 293 90 403 q 267 101 185 183 q 460 -29 350 18 q 694 -76 569 -76 m 481 933 l 626 933 l 626 750 l 618 653 q 688 705 647 681 q 782 729 729 729 q 908 672 872 729 q 944 519 944 615 l 944 200 l 799 200 l 799 501 q 785 580 799 553 q 726 607 772 607 q 677 593 700 607 q 626 551 654 579 l 626 200 l 481 200 l 481 933 z "},"ⓘ":{"ha":1389,"x_min":39,"x_max":1350,"o":"m 694 -128 q 440 -76 560 -128 q 231 65 321 -25 q 90 274 142 154 q 39 528 39 393 q 90 783 39 664 q 231 991 142 901 q 440 1132 321 1081 q 694 1183 560 1183 q 949 1132 831 1183 q 1158 991 1068 1081 q 1299 783 1247 901 q 1350 528 1350 664 q 1298 272 1350 392 q 1156 64 1246 153 q 948 -76 1067 -25 q 694 -128 829 -128 m 694 -76 q 929 -29 819 -76 q 1122 101 1039 18 q 1251 293 1204 183 q 1299 528 1299 403 q 1251 763 1299 653 q 1122 955 1204 872 q 929 1085 1039 1038 q 694 1132 819 1132 q 458 1084 568 1132 q 267 953 349 1036 q 138 761 185 871 q 90 528 90 651 q 138 293 90 403 q 267 101 185 183 q 460 -29 350 18 q 694 -76 569 -76 m 694 796 q 633 817 657 796 q 610 872 610 838 q 633 928 610 907 q 694 950 657 950 q 759 928 735 950 q 783 872 783 907 q 759 817 783 838 q 694 796 735 796 m 622 717 l 768 717 l 768 200 l 622 200 l 622 717 z "},"ⓙ":{"ha":1389,"x_min":39,"x_max":1350,"o":"m 694 -128 q 440 -76 560 -128 q 231 65 321 -25 q 90 274 142 154 q 39 528 39 393 q 90 783 39 664 q 231 991 142 901 q 440 1132 321 1081 q 694 1183 560 1183 q 949 1132 831 1183 q 1158 991 1068 1081 q 1299 783 1247 901 q 1350 528 1350 664 q 1298 272 1350 392 q 1156 64 1246 153 q 948 -76 1067 -25 q 694 -128 829 -128 m 694 -76 q 929 -29 819 -76 q 1122 101 1039 18 q 1251 293 1204 183 q 1299 528 1299 403 q 1251 763 1299 653 q 1122 955 1204 872 q 929 1085 1039 1038 q 694 1132 819 1132 q 458 1084 568 1132 q 267 953 349 1036 q 138 761 185 871 q 90 528 90 651 q 138 293 90 403 q 267 101 185 183 q 460 -29 350 18 q 694 -76 569 -76 m 711 851 q 649 872 672 851 q 625 928 625 893 q 649 984 625 963 q 711 1006 672 1006 q 774 984 749 1006 q 799 928 799 963 q 774 872 799 893 q 711 851 749 851 m 604 38 q 551 42 572 38 q 514 50 531 46 l 540 160 q 558 155 549 157 q 583 153 568 153 q 626 173 615 153 q 636 238 636 193 l 636 772 l 783 772 l 783 243 q 774 163 783 200 q 744 97 765 125 q 689 53 724 69 q 604 38 654 38 z "},"ⓚ":{"ha":1389,"x_min":39,"x_max":1350,"o":"m 694 -128 q 440 -76 560 -128 q 231 65 321 -25 q 90 274 142 154 q 39 528 39 393 q 90 783 39 664 q 231 991 142 901 q 440 1132 321 1081 q 694 1183 560 1183 q 949 1132 831 1183 q 1158 991 1068 1081 q 1299 783 1247 901 q 1350 528 1350 664 q 1298 272 1350 392 q 1156 64 1246 153 q 948 -76 1067 -25 q 694 -128 829 -128 m 694 -76 q 929 -29 819 -76 q 1122 101 1039 18 q 1251 293 1204 183 q 1299 528 1299 403 q 1251 763 1299 653 q 1122 955 1204 872 q 929 1085 1039 1038 q 694 1132 819 1132 q 458 1084 568 1132 q 267 953 349 1036 q 138 761 185 871 q 90 528 90 651 q 138 293 90 403 q 267 101 185 183 q 460 -29 350 18 q 694 -76 569 -76 m 492 933 l 638 933 l 638 501 l 644 501 l 810 717 l 969 717 l 783 500 l 985 200 l 826 200 l 701 406 l 638 326 l 638 200 l 492 200 l 492 933 z "},"ⓛ":{"ha":1389,"x_min":39,"x_max":1350,"o":"m 694 -128 q 440 -76 560 -128 q 231 65 321 -25 q 90 274 142 154 q 39 528 39 393 q 90 783 39 664 q 231 991 142 901 q 440 1132 321 1081 q 694 1183 560 1183 q 949 1132 831 1183 q 1158 991 1068 1081 q 1299 783 1247 901 q 1350 528 1350 664 q 1298 272 1350 392 q 1156 64 1246 153 q 948 -76 1067 -25 q 694 -128 829 -128 m 694 -76 q 929 -29 819 -76 q 1122 101 1039 18 q 1251 293 1204 183 q 1299 528 1299 403 q 1251 763 1299 653 q 1122 955 1204 872 q 929 1085 1039 1038 q 694 1132 819 1132 q 458 1084 568 1132 q 267 953 349 1036 q 138 761 185 871 q 90 528 90 651 q 138 293 90 403 q 267 101 185 183 q 460 -29 350 18 q 694 -76 569 -76 m 742 188 q 634 232 663 188 q 606 356 606 276 l 606 933 l 751 933 l 751 347 q 778 304 751 304 q 788 304 783 304 q 799 307 792 304 l 818 199 q 786 191 803 194 q 742 188 769 188 z "},"ⓜ":{"ha":1389,"x_min":39,"x_max":1350,"o":"m 694 -128 q 440 -76 560 -128 q 231 65 321 -25 q 90 274 142 154 q 39 528 39 393 q 90 783 39 664 q 231 991 142 901 q 440 1132 321 1081 q 694 1183 560 1183 q 949 1132 831 1183 q 1158 991 1068 1081 q 1299 783 1247 901 q 1350 528 1350 664 q 1298 272 1350 392 q 1156 64 1246 153 q 948 -76 1067 -25 q 694 -128 829 -128 m 694 -76 q 929 -29 819 -76 q 1122 101 1039 18 q 1251 293 1204 183 q 1299 528 1299 403 q 1251 763 1299 653 q 1122 955 1204 872 q 929 1085 1039 1038 q 694 1132 819 1132 q 458 1084 568 1132 q 267 953 349 1036 q 138 761 185 871 q 90 528 90 651 q 138 293 90 403 q 267 101 185 183 q 460 -29 350 18 q 694 -76 569 -76 m 314 783 l 432 783 l 443 715 l 447 715 q 516 772 479 747 q 607 796 553 796 q 751 707 708 796 q 824 769 785 742 q 917 796 864 796 q 1044 739 1004 796 q 1083 586 1083 682 l 1083 267 l 936 267 l 936 568 q 922 646 936 619 q 864 672 907 672 q 771 618 825 672 l 771 267 l 625 267 l 625 568 q 610 646 625 619 q 551 672 594 672 q 460 618 510 672 l 460 267 l 314 267 l 314 783 z "},"ⓝ":{"ha":1389,"x_min":39,"x_max":1350,"o":"m 694 -128 q 440 -76 560 -128 q 231 65 321 -25 q 90 274 142 154 q 39 528 39 393 q 90 783 39 664 q 231 991 142 901 q 440 1132 321 1081 q 694 1183 560 1183 q 949 1132 831 1183 q 1158 991 1068 1081 q 1299 783 1247 901 q 1350 528 1350 664 q 1298 272 1350 392 q 1156 64 1246 153 q 948 -76 1067 -25 q 694 -128 829 -128 m 694 -76 q 929 -29 819 -76 q 1122 101 1039 18 q 1251 293 1204 183 q 1299 528 1299 403 q 1251 763 1299 653 q 1122 955 1204 872 q 929 1085 1039 1038 q 694 1132 819 1132 q 458 1084 568 1132 q 267 953 349 1036 q 138 761 185 871 q 90 528 90 651 q 138 293 90 403 q 267 101 185 183 q 460 -29 350 18 q 694 -76 569 -76 m 465 783 l 582 783 l 596 715 l 599 715 q 673 772 631 747 q 768 796 715 796 q 894 739 857 796 q 931 586 931 682 l 931 267 l 785 267 l 785 568 q 771 646 785 619 q 713 672 757 672 q 663 658 686 672 q 611 617 639 644 l 611 267 l 465 267 l 465 783 z "},"ⓞ":{"ha":1389,"x_min":39,"x_max":1350,"o":"m 694 -128 q 440 -76 560 -128 q 231 65 321 -25 q 90 274 142 154 q 39 528 39 393 q 90 783 39 664 q 231 991 142 901 q 440 1132 321 1081 q 694 1183 560 1183 q 949 1132 831 1183 q 1158 991 1068 1081 q 1299 783 1247 901 q 1350 528 1350 664 q 1298 272 1350 392 q 1156 64 1246 153 q 948 -76 1067 -25 q 694 -128 829 -128 m 694 -76 q 929 -29 819 -76 q 1122 101 1039 18 q 1251 293 1204 183 q 1299 528 1299 403 q 1251 763 1299 653 q 1122 955 1204 872 q 929 1085 1039 1038 q 694 1132 819 1132 q 458 1084 568 1132 q 267 953 349 1036 q 138 761 185 871 q 90 528 90 651 q 138 293 90 403 q 267 101 185 183 q 460 -29 350 18 q 694 -76 569 -76 m 694 254 q 599 272 644 254 q 518 325 553 290 q 463 410 483 360 q 442 524 442 460 q 463 639 442 589 q 518 724 483 689 q 599 778 553 760 q 694 796 644 796 q 790 778 744 796 q 870 724 836 760 q 925 639 904 689 q 946 524 946 589 q 925 410 946 460 q 870 325 904 360 q 790 272 836 290 q 694 254 744 254 m 694 371 q 771 412 746 371 q 796 524 796 453 q 771 637 796 594 q 694 679 746 679 q 617 637 642 679 q 592 524 592 594 q 617 412 592 453 q 694 371 642 371 z "},"ⓟ":{"ha":1389,"x_min":39,"x_max":1350,"o":"m 694 -128 q 440 -76 560 -128 q 231 65 321 -25 q 90 274 142 154 q 39 528 39 393 q 90 783 39 664 q 231 991 142 901 q 440 1132 321 1081 q 694 1183 560 1183 q 949 1132 831 1183 q 1158 991 1068 1081 q 1299 783 1247 901 q 1350 528 1350 664 q 1298 272 1350 392 q 1156 64 1246 153 q 948 -76 1067 -25 q 694 -128 829 -128 m 694 -76 q 929 -29 819 -76 q 1122 101 1039 18 q 1251 293 1204 183 q 1299 528 1299 403 q 1251 763 1299 653 q 1122 955 1204 872 q 929 1085 1039 1038 q 694 1132 819 1132 q 458 1084 568 1132 q 267 953 349 1036 q 138 761 185 871 q 90 528 90 651 q 138 293 90 403 q 267 101 185 183 q 460 -29 350 18 q 694 -76 569 -76 m 481 856 l 597 856 l 610 801 l 614 801 q 683 849 642 829 q 765 868 724 868 q 915 797 861 868 q 969 607 969 725 q 951 488 969 540 q 903 399 933 435 q 833 345 872 364 q 750 326 793 326 q 683 340 717 326 q 621 382 649 354 l 626 279 l 626 149 l 481 149 l 481 856 m 719 443 q 790 481 761 443 q 819 603 819 519 q 724 750 819 750 q 626 700 675 750 l 626 478 q 719 443 674 443 z "},"ⓠ":{"ha":1389,"x_min":39,"x_max":1350,"o":"m 694 -128 q 440 -76 560 -128 q 231 65 321 -25 q 90 274 142 154 q 39 528 39 393 q 90 783 39 664 q 231 991 142 901 q 440 1132 321 1081 q 694 1183 560 1183 q 949 1132 831 1183 q 1158 991 1068 1081 q 1299 783 1247 901 q 1350 528 1350 664 q 1298 272 1350 392 q 1156 64 1246 153 q 948 -76 1067 -25 q 694 -128 829 -128 m 694 -76 q 929 -29 819 -76 q 1122 101 1039 18 q 1251 293 1204 183 q 1299 528 1299 403 q 1251 763 1299 653 q 1122 955 1204 872 q 929 1085 1039 1038 q 694 1132 819 1132 q 458 1084 568 1132 q 267 953 349 1036 q 138 761 185 871 q 90 528 90 651 q 138 293 90 403 q 267 101 185 183 q 460 -29 350 18 q 694 -76 569 -76 m 774 297 l 781 385 q 722 342 757 358 q 650 326 686 326 q 490 399 549 326 q 432 597 432 471 q 451 711 432 661 q 501 796 469 761 q 572 849 532 831 q 654 868 613 868 q 792 801 732 868 l 794 801 l 808 856 l 921 856 l 921 149 l 774 149 l 774 297 m 686 446 q 731 456 710 446 q 774 492 751 465 l 774 713 q 683 750 731 750 q 613 713 644 750 q 582 600 582 675 q 686 446 582 446 z "},"ⓡ":{"ha":1389,"x_min":39,"x_max":1350,"o":"m 694 -128 q 440 -76 560 -128 q 231 65 321 -25 q 90 274 142 154 q 39 528 39 393 q 90 783 39 664 q 231 991 142 901 q 440 1132 321 1081 q 694 1183 560 1183 q 949 1132 831 1183 q 1158 991 1068 1081 q 1299 783 1247 901 q 1350 528 1350 664 q 1298 272 1350 392 q 1156 64 1246 153 q 948 -76 1067 -25 q 694 -128 829 -128 m 694 -76 q 929 -29 819 -76 q 1122 101 1039 18 q 1251 293 1204 183 q 1299 528 1299 403 q 1251 763 1299 653 q 1122 955 1204 872 q 929 1085 1039 1038 q 694 1132 819 1132 q 458 1084 568 1132 q 267 953 349 1036 q 138 761 185 871 q 90 528 90 651 q 138 293 90 403 q 267 101 185 183 q 460 -29 350 18 q 694 -76 569 -76 m 553 783 l 669 783 l 682 693 l 688 693 q 755 771 717 746 q 833 796 793 796 q 897 786 879 796 l 872 658 q 847 664 861 661 q 817 667 832 667 q 753 644 785 667 q 699 569 722 622 l 699 267 l 553 267 l 553 783 z "},"ⓢ":{"ha":1389,"x_min":39,"x_max":1350,"o":"m 694 -128 q 440 -76 560 -128 q 231 65 321 -25 q 90 274 142 154 q 39 528 39 393 q 90 783 39 664 q 231 991 142 901 q 440 1132 321 1081 q 694 1183 560 1183 q 949 1132 831 1183 q 1158 991 1068 1081 q 1299 783 1247 901 q 1350 528 1350 664 q 1298 272 1350 392 q 1156 64 1246 153 q 948 -76 1067 -25 q 694 -128 829 -128 m 694 -76 q 929 -29 819 -76 q 1122 101 1039 18 q 1251 293 1204 183 q 1299 528 1299 403 q 1251 763 1299 653 q 1122 955 1204 872 q 929 1085 1039 1038 q 694 1132 819 1132 q 458 1084 568 1132 q 267 953 349 1036 q 138 761 185 871 q 90 528 90 651 q 138 293 90 403 q 267 101 185 183 q 460 -29 350 18 q 694 -76 569 -76 m 689 254 q 583 274 636 254 q 489 324 529 293 l 553 417 q 693 361 625 361 q 747 375 729 361 q 764 410 764 389 q 731 451 764 438 q 657 482 699 465 q 606 504 631 492 q 560 535 581 517 q 528 579 540 554 q 515 638 515 604 q 567 751 515 706 q 710 796 618 796 q 815 776 772 796 q 892 733 858 757 l 826 643 q 770 676 797 664 q 714 688 743 688 q 667 675 682 688 q 651 643 651 663 q 685 603 651 617 q 758 574 718 590 q 807 553 782 565 q 852 524 832 542 q 885 481 872 506 q 899 419 899 456 q 844 301 899 349 q 689 254 790 254 z "},"ⓣ":{"ha":1389,"x_min":39,"x_max":1350,"o":"m 694 -128 q 440 -76 560 -128 q 231 65 321 -25 q 90 274 142 154 q 39 528 39 393 q 90 783 39 664 q 231 991 142 901 q 440 1132 321 1081 q 694 1183 560 1183 q 949 1132 831 1183 q 1158 991 1068 1081 q 1299 783 1247 901 q 1350 528 1350 664 q 1298 272 1350 392 q 1156 64 1246 153 q 948 -76 1067 -25 q 694 -128 829 -128 m 694 -76 q 929 -29 819 -76 q 1122 101 1039 18 q 1251 293 1204 183 q 1299 528 1299 403 q 1251 763 1299 653 q 1122 955 1204 872 q 929 1085 1039 1038 q 694 1132 819 1132 q 458 1084 568 1132 q 267 953 349 1036 q 138 761 185 871 q 90 528 90 651 q 138 293 90 403 q 267 101 185 183 q 460 -29 350 18 q 694 -76 569 -76 m 754 221 q 619 276 660 221 q 579 419 579 331 l 579 636 l 507 636 l 507 746 l 586 751 l 604 888 l 726 888 l 726 751 l 854 751 l 854 636 l 726 636 l 726 422 q 794 336 726 336 q 846 344 819 336 l 871 240 q 819 227 849 233 q 754 221 790 221 z "},"ⓤ":{"ha":1389,"x_min":39,"x_max":1350,"o":"m 694 -128 q 440 -76 560 -128 q 231 65 321 -25 q 90 274 142 154 q 39 528 39 393 q 90 783 39 664 q 231 991 142 901 q 440 1132 321 1081 q 694 1183 560 1183 q 949 1132 831 1183 q 1158 991 1068 1081 q 1299 783 1247 901 q 1350 528 1350 664 q 1298 272 1350 392 q 1156 64 1246 153 q 948 -76 1067 -25 q 694 -128 829 -128 m 694 -76 q 929 -29 819 -76 q 1122 101 1039 18 q 1251 293 1204 183 q 1299 528 1299 403 q 1251 763 1299 653 q 1122 955 1204 872 q 929 1085 1039 1038 q 694 1132 819 1132 q 458 1084 568 1132 q 267 953 349 1036 q 138 761 185 871 q 90 528 90 651 q 138 293 90 403 q 267 101 185 183 q 460 -29 350 18 q 694 -76 569 -76 m 625 254 q 499 310 538 254 q 461 460 461 367 l 461 783 l 607 783 l 607 479 q 620 403 607 428 q 681 378 633 378 q 781 432 729 378 l 781 783 l 928 783 l 928 267 l 810 267 l 794 333 l 790 333 q 719 279 761 304 q 625 254 678 254 z "},"ⓥ":{"ha":1389,"x_min":39,"x_max":1350,"o":"m 694 -128 q 440 -76 560 -128 q 231 65 321 -25 q 90 274 142 154 q 39 528 39 393 q 90 783 39 664 q 231 991 142 901 q 440 1132 321 1081 q 694 1183 560 1183 q 949 1132 831 1183 q 1158 991 1068 1081 q 1299 783 1247 901 q 1350 528 1350 664 q 1298 272 1350 392 q 1156 64 1246 153 q 948 -76 1067 -25 q 694 -128 829 -128 m 694 -76 q 929 -29 819 -76 q 1122 101 1039 18 q 1251 293 1204 183 q 1299 528 1299 403 q 1251 763 1299 653 q 1122 955 1204 872 q 929 1085 1039 1038 q 694 1132 819 1132 q 458 1084 568 1132 q 267 953 349 1036 q 138 761 185 871 q 90 528 90 651 q 138 293 90 403 q 267 101 185 183 q 460 -29 350 18 q 694 -76 569 -76 m 435 783 l 579 783 l 696 375 l 700 375 l 815 783 l 957 783 l 781 267 l 611 267 l 435 783 z "},"ⓦ":{"ha":1389,"x_min":39,"x_max":1350,"o":"m 694 -128 q 440 -76 560 -128 q 231 65 321 -25 q 90 274 142 154 q 39 528 39 393 q 90 783 39 664 q 231 991 142 901 q 440 1132 321 1081 q 694 1183 560 1183 q 949 1132 831 1183 q 1158 991 1068 1081 q 1299 783 1247 901 q 1350 528 1350 664 q 1298 272 1350 392 q 1156 64 1246 153 q 948 -76 1067 -25 q 694 -128 829 -128 m 694 -76 q 929 -29 819 -76 q 1122 101 1039 18 q 1251 293 1204 183 q 1299 528 1299 403 q 1251 763 1299 653 q 1122 955 1204 872 q 929 1085 1039 1038 q 694 1132 819 1132 q 458 1084 568 1132 q 267 953 349 1036 q 138 761 185 871 q 90 528 90 651 q 138 293 90 403 q 267 101 185 183 q 460 -29 350 18 q 694 -76 569 -76 m 314 783 l 461 783 l 514 536 l 538 383 l 543 383 l 574 536 l 638 783 l 757 783 l 825 536 l 857 383 l 861 383 l 888 536 l 940 783 l 1076 783 l 947 267 l 776 267 l 725 482 l 697 625 l 693 625 l 667 482 l 617 267 l 449 267 l 314 783 z "},"ⓧ":{"ha":1389,"x_min":39,"x_max":1350,"o":"m 694 -128 q 440 -76 560 -128 q 231 65 321 -25 q 90 274 142 154 q 39 528 39 393 q 90 783 39 664 q 231 991 142 901 q 440 1132 321 1081 q 694 1183 560 1183 q 949 1132 831 1183 q 1158 991 1068 1081 q 1299 783 1247 901 q 1350 528 1350 664 q 1298 272 1350 392 q 1156 64 1246 153 q 948 -76 1067 -25 q 694 -128 829 -128 m 694 -76 q 929 -29 819 -76 q 1122 101 1039 18 q 1251 293 1204 183 q 1299 528 1299 403 q 1251 763 1299 653 q 1122 955 1204 872 q 929 1085 1039 1038 q 694 1132 819 1132 q 458 1084 568 1132 q 267 953 349 1036 q 138 761 185 871 q 90 528 90 651 q 138 293 90 403 q 267 101 185 183 q 460 -29 350 18 q 694 -76 569 -76 m 607 535 l 451 783 l 610 783 l 704 617 l 710 617 l 744 696 l 788 783 l 939 783 l 786 519 l 949 267 l 792 267 l 689 438 l 682 438 l 638 354 l 593 267 l 440 267 l 607 535 z "},"ⓨ":{"ha":1389,"x_min":39,"x_max":1350,"o":"m 694 -128 q 440 -76 560 -128 q 231 65 321 -25 q 90 274 142 154 q 39 528 39 393 q 90 783 39 664 q 231 991 142 901 q 440 1132 321 1081 q 694 1183 560 1183 q 949 1132 831 1183 q 1158 991 1068 1081 q 1299 783 1247 901 q 1350 528 1350 664 q 1298 272 1350 392 q 1156 64 1246 153 q 948 -76 1067 -25 q 694 -128 829 -128 m 694 -76 q 929 -29 819 -76 q 1122 101 1039 18 q 1251 293 1204 183 q 1299 528 1299 403 q 1251 763 1299 653 q 1122 955 1204 872 q 929 1085 1039 1038 q 694 1132 819 1132 q 458 1084 568 1132 q 267 953 349 1036 q 138 761 185 871 q 90 528 90 651 q 138 293 90 403 q 267 101 185 183 q 460 -29 350 18 q 694 -76 569 -76 m 561 140 q 522 142 538 140 q 486 150 506 144 l 514 260 q 534 253 526 254 q 549 251 542 251 q 611 273 588 251 q 646 326 635 294 l 653 353 l 450 856 l 597 856 l 676 626 q 697 554 688 589 q 718 479 707 519 l 724 479 q 742 553 732 518 q 764 626 753 589 l 828 856 l 968 856 l 788 332 q 703 190 753 239 q 561 140 654 140 z "},"ⓩ":{"ha":1389,"x_min":39,"x_max":1350,"o":"m 694 -128 q 440 -76 560 -128 q 231 65 321 -25 q 90 274 142 154 q 39 528 39 393 q 90 783 39 664 q 231 991 142 901 q 440 1132 321 1081 q 694 1183 560 1183 q 949 1132 831 1183 q 1158 991 1068 1081 q 1299 783 1247 901 q 1350 528 1350 664 q 1298 272 1350 392 q 1156 64 1246 153 q 948 -76 1067 -25 q 694 -128 829 -128 m 694 -76 q 929 -29 819 -76 q 1122 101 1039 18 q 1251 293 1204 183 q 1299 528 1299 403 q 1251 763 1299 653 q 1122 955 1204 872 q 929 1085 1039 1038 q 694 1132 819 1132 q 458 1084 568 1132 q 267 953 349 1036 q 138 761 185 871 q 90 528 90 651 q 138 293 90 403 q 267 101 185 183 q 460 -29 350 18 q 694 -76 569 -76 m 492 344 l 721 669 l 519 669 l 519 783 l 904 783 l 904 704 l 675 381 l 911 381 l 911 267 l 492 267 l 492 344 z "},"▒":{"ha":1389,"x_min":0,"x_max":1389,"o":"m 1042 1222 l 1111 1222 l 1389 944 l 1389 875 l 1042 1222 m 694 1222 l 764 1222 l 1389 597 l 1389 528 l 694 1222 m 347 1222 l 417 1222 l 1389 250 l 1389 181 l 347 1222 m 0 1222 l 69 1222 l 1389 -97 l 1389 -167 l 0 1222 m 0 875 l 0 944 l 1111 -167 l 1042 -167 l 0 875 m 0 528 l 0 597 l 764 -167 l 694 -167 l 0 528 m 0 181 l 0 250 l 417 -167 l 347 -167 l 0 181 m 0 -97 l 69 -167 l 0 -167 l 0 -97 z "},"■":{"ha":1389,"x_min":139,"x_max":1250,"o":"m 1250 1083 l 1250 -28 l 139 -28 l 139 1083 l 1250 1083 z "},"□":{"ha":1389,"x_min":139,"x_max":1250,"o":"m 1250 1083 l 1250 -28 l 139 -28 l 139 1083 l 1250 1083 m 200 33 l 1189 33 l 1189 1022 l 200 1022 l 200 33 z "},"▣":{"ha":1389,"x_min":139,"x_max":1250,"o":"m 1250 1083 l 1250 -28 l 139 -28 l 139 1083 l 1250 1083 m 200 33 l 1189 33 l 1189 1022 l 200 1022 l 200 33 m 443 779 l 946 779 l 946 276 l 443 276 l 443 779 z "},"▤":{"ha":1389,"x_min":139,"x_max":1250,"o":"m 1250 1083 l 1250 -28 l 139 -28 l 139 1083 l 1250 1083 m 200 1022 l 200 821 l 1189 821 l 1189 1022 l 200 1022 m 1189 558 l 1189 760 l 200 760 l 200 558 l 1189 558 m 200 497 l 200 296 l 1189 296 l 1189 497 l 200 497 m 1189 33 l 1189 235 l 200 235 l 200 33 l 1189 33 z "},"▥":{"ha":1389,"x_min":139,"x_max":1250,"o":"m 1250 1083 l 1250 -28 l 139 -28 l 139 1083 l 1250 1083 m 1189 1022 l 988 1022 l 988 33 l 1189 33 l 1189 1022 m 200 33 l 401 33 l 401 1022 l 200 1022 l 200 33 m 664 1022 l 463 1022 l 463 33 l 664 33 l 664 1022 m 725 33 l 926 33 l 926 1022 l 725 1022 l 725 33 z "},"▦":{"ha":1389,"x_min":139,"x_max":1250,"o":"m 1250 1083 l 1250 -28 l 139 -28 l 139 1083 l 1250 1083 m 200 1022 l 200 821 l 401 821 l 401 1022 l 200 1022 m 664 1022 l 463 1022 l 463 821 l 664 821 l 664 1022 m 926 821 l 926 1022 l 725 1022 l 725 821 l 926 821 m 1189 1022 l 988 1022 l 988 821 l 1189 821 l 1189 1022 m 1189 558 l 1189 760 l 988 760 l 988 558 l 1189 558 m 401 760 l 200 760 l 200 558 l 401 558 l 401 760 m 463 760 l 463 558 l 664 558 l 664 760 l 463 760 m 725 760 l 725 558 l 926 558 l 926 760 l 725 760 m 988 296 l 1189 296 l 1189 497 l 988 497 l 988 296 m 926 296 l 926 497 l 725 497 l 725 296 l 926 296 m 463 296 l 664 296 l 664 497 l 463 497 l 463 296 m 200 497 l 200 296 l 401 296 l 401 497 l 200 497 m 1189 33 l 1189 235 l 988 235 l 988 33 l 1189 33 m 200 33 l 401 33 l 401 235 l 200 235 l 200 33 m 725 33 l 926 33 l 926 235 l 725 235 l 725 33 m 463 235 l 463 33 l 664 33 l 664 235 l 463 235 z "},"▧":{"ha":1389,"x_min":139,"x_max":1250,"o":"m 1250 1083 l 1250 -28 l 139 -28 l 139 1083 l 1250 1083 m 1189 1022 l 1033 1022 l 1189 867 l 1189 1022 m 1189 606 l 1189 778 l 944 1022 l 772 1022 l 1189 606 m 1189 518 l 683 1022 l 506 1022 l 1189 339 l 1189 518 m 1189 75 l 1189 256 l 421 1022 l 242 1022 l 1189 75 m 965 33 l 1146 33 l 200 979 l 200 799 l 965 33 m 701 33 l 879 33 l 200 713 l 200 533 l 701 33 m 200 272 l 440 33 l 615 33 l 200 449 l 200 272 m 200 33 l 354 33 l 200 188 l 200 33 z "},"▨":{"ha":1389,"x_min":139,"x_max":1250,"o":"m 1250 1083 l 1250 -28 l 139 -28 l 139 1083 l 1250 1083 m 200 1022 l 200 861 l 361 1022 l 200 1022 m 200 250 l 200 71 l 1153 1022 l 971 1022 l 200 250 m 622 1022 l 446 1022 l 200 775 l 200 600 l 622 1022 m 200 514 l 200 336 l 886 1022 l 707 1022 l 200 514 m 1189 793 l 1189 975 l 249 33 l 429 33 l 1189 793 m 1189 531 l 1189 708 l 514 33 l 692 33 l 1189 531 m 779 33 l 951 33 l 1189 269 l 1189 442 l 779 33 m 1189 33 l 1189 181 l 1040 33 l 1189 33 z "},"▩":{"ha":1389,"x_min":139,"x_max":1250,"o":"m 1250 1083 l 1250 -28 l 139 -28 l 139 1083 l 1250 1083 m 1093 963 l 1153 1022 l 1033 1022 l 1093 963 m 886 1022 l 772 1022 l 829 965 l 886 1022 m 622 1022 l 506 1022 l 564 964 l 622 1022 m 361 1022 l 242 1022 l 301 963 l 361 1022 m 785 921 l 696 1011 l 607 921 l 696 832 l 785 921 m 522 922 l 433 1010 l 344 919 l 432 832 l 522 922 m 1049 918 l 958 1008 l 872 922 l 963 832 l 1049 918 m 200 979 l 200 861 l 260 921 l 200 979 m 1189 975 l 1135 921 l 1189 867 l 1189 975 m 564 879 l 475 789 l 564 700 l 654 790 l 564 879 m 918 788 l 828 879 l 739 789 l 829 699 l 918 788 m 301 878 l 211 788 l 300 700 l 390 790 l 301 878 m 1182 786 l 1090 876 l 1004 790 l 1096 700 l 1182 786 m 432 568 l 522 658 l 432 747 l 342 657 l 432 568 m 697 567 l 788 657 l 696 747 l 607 657 l 697 567 m 1051 656 l 960 746 l 871 657 l 963 567 l 1051 656 m 200 600 l 257 657 l 200 713 l 200 600 m 1189 606 l 1189 708 l 1138 657 l 1189 606 m 564 435 l 654 525 l 564 615 l 474 525 l 564 435 m 831 435 l 919 524 l 829 615 l 739 525 l 831 435 m 299 614 l 210 524 l 299 435 l 389 525 l 299 614 m 1093 435 l 1182 524 l 1093 613 l 1004 524 l 1093 435 m 342 392 l 432 303 l 521 392 l 431 482 l 342 392 m 607 392 l 697 301 l 788 392 l 697 482 l 607 392 m 872 392 l 961 303 l 1051 393 l 963 482 l 872 392 m 200 336 l 257 393 l 200 449 l 200 336 m 1189 339 l 1189 442 l 1138 390 l 1189 339 m 829 171 l 919 261 l 831 350 l 740 260 l 829 171 m 211 261 l 301 172 l 389 260 l 299 350 l 211 261 m 565 169 l 654 258 l 564 349 l 475 260 l 565 169 m 1092 172 l 1182 263 l 1096 349 l 1006 258 l 1092 172 m 344 129 l 435 39 l 522 126 l 432 217 l 344 129 m 607 126 l 696 38 l 786 128 l 697 217 l 607 126 m 872 126 l 958 40 l 1049 131 l 963 217 l 872 126 m 200 71 l 258 129 l 200 188 l 200 71 m 1189 75 l 1189 181 l 1136 128 l 1189 75 m 1040 33 l 1146 33 l 1093 86 l 1040 33 m 249 33 l 354 33 l 301 86 l 249 33 m 514 33 l 615 33 l 565 85 l 514 33 m 779 33 l 879 33 l 829 83 l 779 33 z "},"▲":{"ha":1389,"x_min":42,"x_max":1347,"o":"m 1347 17 l 42 17 l 694 1147 l 1347 17 z "},"△":{"ha":1389,"x_min":42,"x_max":1347,"o":"m 1347 17 l 42 17 l 694 1147 l 1347 17 m 147 78 l 1242 78 l 694 1025 l 147 78 z "},"▶":{"ha":1389,"x_min":169,"x_max":1300,"o":"m 169 -129 l 169 1176 l 1300 524 l 169 -129 z "},"▷":{"ha":1389,"x_min":169,"x_max":1300,"o":"m 169 -129 l 169 1176 l 1300 524 l 169 -129 m 231 1071 l 231 -24 l 1178 524 l 231 1071 z "},"▼":{"ha":1389,"x_min":42,"x_max":1347,"o":"m 1347 1039 l 694 -92 l 42 1039 l 1347 1039 z "},"▽":{"ha":1389,"x_min":42,"x_max":1347,"o":"m 1347 1039 l 694 -92 l 42 1039 l 1347 1039 m 147 978 l 694 31 l 1242 978 l 147 978 z "},"◀":{"ha":1389,"x_min":89,"x_max":1219,"o":"m 1219 -129 l 89 524 l 1219 1176 l 1219 -129 z "},"◁":{"ha":1389,"x_min":89,"x_max":1219,"o":"m 1219 -129 l 89 524 l 1219 1176 l 1219 -129 m 1158 1071 l 211 524 l 1158 -24 l 1158 1071 z "},"◆":{"ha":1389,"x_min":17,"x_max":1372,"o":"m 1372 528 l 694 -150 l 17 528 l 694 1206 l 1372 528 z "},"◇":{"ha":1389,"x_min":17,"x_max":1372,"o":"m 1372 528 l 694 -150 l 17 528 l 694 1206 l 1372 528 m 104 528 l 694 -64 l 1286 528 l 694 1119 l 104 528 z "},"◈":{"ha":1389,"x_min":17,"x_max":1372,"o":"m 1372 528 l 694 -150 l 17 528 l 694 1206 l 1372 528 m 104 528 l 694 -64 l 1286 528 l 694 1119 l 104 528 m 694 986 l 1153 528 l 694 69 l 236 528 l 694 986 z "},"○":{"ha":1389,"x_min":69,"x_max":1319,"o":"m 694 -97 q 451 -48 565 -97 q 253 86 338 1 q 119 285 168 171 q 69 528 69 399 q 119 771 69 657 q 253 969 168 885 q 451 1103 338 1054 q 694 1153 565 1153 q 938 1103 824 1153 q 1136 969 1051 1054 q 1270 771 1221 885 q 1319 528 1319 657 q 1270 285 1319 399 q 1136 86 1221 171 q 938 -48 1051 1 q 694 -97 824 -97 m 131 528 q 175 308 131 411 q 296 129 219 206 q 475 8 372 53 q 694 -36 578 -36 q 914 8 811 -36 q 1093 129 1017 53 q 1214 308 1169 206 q 1258 528 1258 411 q 1214 747 1258 644 q 1093 926 1169 850 q 914 1047 1017 1003 q 694 1092 811 1092 q 475 1047 578 1092 q 296 926 372 1003 q 175 747 219 850 q 131 528 131 644 z "},"◎":{"ha":1389,"x_min":69,"x_max":1319,"o":"m 69 528 q 119 771 69 657 q 253 969 168 885 q 451 1103 338 1054 q 694 1153 565 1153 q 938 1103 824 1153 q 1136 969 1051 1054 q 1270 771 1221 885 q 1319 528 1319 657 q 1270 285 1319 399 q 1136 86 1221 171 q 938 -48 1051 1 q 694 -97 824 -97 q 451 -48 565 -97 q 253 86 338 1 q 119 285 168 171 q 69 528 69 399 m 1258 528 q 1214 747 1258 644 q 1093 926 1169 850 q 914 1047 1017 1003 q 694 1092 811 1092 q 475 1047 578 1092 q 296 926 372 1003 q 175 747 219 850 q 131 528 131 644 q 175 308 131 411 q 296 129 219 206 q 475 8 372 53 q 694 -36 578 -36 q 914 8 811 -36 q 1093 129 1017 53 q 1214 308 1169 206 q 1258 528 1258 411 m 286 528 q 318 687 286 613 q 406 817 350 761 q 535 904 461 872 q 694 936 610 936 q 853 904 779 936 q 983 817 928 872 q 1071 687 1039 761 q 1103 528 1103 613 q 1071 369 1103 443 q 983 239 1039 294 q 853 151 928 183 q 694 119 779 119 q 535 151 610 119 q 406 239 461 183 q 318 369 350 294 q 286 528 286 443 m 1051 528 q 1024 667 1051 601 q 947 781 996 732 q 833 857 899 829 q 694 885 768 885 q 556 857 621 885 q 442 781 490 829 q 365 667 393 732 q 338 528 338 601 q 365 389 338 454 q 442 275 393 324 q 556 199 490 226 q 694 171 621 171 q 833 199 768 171 q 947 275 899 226 q 1024 389 996 324 q 1051 528 1051 454 z "},"●":{"ha":1389,"x_min":69,"x_max":1319,"o":"m 694 -97 q 451 -48 565 -97 q 253 86 338 1 q 119 285 168 171 q 69 528 69 399 q 119 771 69 657 q 253 969 168 885 q 451 1103 338 1054 q 694 1153 565 1153 q 938 1103 824 1153 q 1136 969 1051 1054 q 1270 771 1221 885 q 1319 528 1319 657 q 1270 285 1319 399 q 1136 86 1221 171 q 938 -48 1051 1 q 694 -97 824 -97 z "},"◐":{"ha":1389,"x_min":83,"x_max":1306,"o":"m 1306 528 q 1258 290 1306 401 q 1126 96 1210 179 q 932 -35 1043 13 q 694 -83 821 -83 q 457 -35 568 -83 q 263 96 346 13 q 131 290 179 179 q 83 528 83 401 q 131 765 83 654 q 263 960 179 876 q 457 1091 346 1043 q 694 1139 568 1139 q 932 1091 821 1139 q 1126 960 1043 1043 q 1258 765 1210 876 q 1306 528 1306 654 m 694 -37 q 915 7 811 -37 q 1094 128 1018 51 q 1215 308 1171 204 q 1260 528 1260 411 q 1215 748 1260 644 q 1094 928 1171 851 q 915 1049 1018 1004 q 694 1093 811 1093 l 694 -37 z "},"◑":{"ha":1389,"x_min":83,"x_max":1306,"o":"m 1306 528 q 1258 290 1306 401 q 1126 96 1210 179 q 932 -35 1043 13 q 694 -83 821 -83 q 457 -35 568 -83 q 263 96 346 13 q 131 290 179 179 q 83 528 83 401 q 131 765 83 654 q 263 960 179 876 q 457 1091 346 1043 q 694 1139 568 1139 q 932 1091 821 1139 q 1126 960 1043 1043 q 1258 765 1210 876 q 1306 528 1306 654 m 694 1093 q 474 1049 578 1093 q 294 928 371 1004 q 174 748 218 851 q 129 528 129 644 q 174 308 129 411 q 294 128 218 204 q 474 7 371 51 q 694 -37 578 -37 l 694 1093 z "},"★":{"ha":1389,"x_min":53,"x_max":1336,"o":"m 1336 675 l 1336 667 l 944 382 l 1099 -86 l 1093 -89 l 694 200 l 296 -89 l 290 -86 l 444 382 l 53 667 l 53 675 l 538 675 l 690 1140 l 699 1140 l 851 675 l 1336 675 z "},"☆":{"ha":1389,"x_min":50,"x_max":1339,"o":"m 688 1140 l 701 1140 l 851 675 l 1335 675 l 1339 661 l 944 382 l 1101 -83 l 1092 -92 l 694 200 l 297 -92 l 288 -83 l 444 382 l 50 661 l 54 675 l 538 675 l 688 1140 m 364 614 l 201 624 l 201 621 l 339 532 l 517 406 l 447 203 l 383 42 l 386 39 l 524 151 l 694 276 l 865 151 l 1003 39 l 1006 42 l 942 203 l 872 406 l 1050 532 l 1188 621 l 1188 624 l 1025 614 l 807 614 l 736 828 l 696 983 l 693 983 l 651 828 l 582 614 l 364 614 z "},"☎":{"ha":1389,"x_min":56,"x_max":1333,"o":"m 308 792 l 365 644 q 371 613 372 628 q 347 593 369 597 l 94 550 q 56 589 56 546 q 58 647 56 613 q 68 716 60 681 q 91 783 76 751 q 131 835 106 815 q 227 894 175 868 q 346 938 279 919 q 498 965 413 956 q 694 974 583 974 q 891 965 806 974 q 1043 938 976 956 q 1162 894 1110 919 q 1258 835 1214 868 q 1298 783 1283 815 q 1321 716 1313 751 q 1331 647 1329 681 q 1333 589 1333 613 q 1294 550 1333 546 l 1042 593 q 1018 612 1019 596 q 1024 644 1017 628 l 1081 792 l 932 792 l 932 703 q 975 569 932 631 q 1097 433 1018 508 q 1197 278 1169 363 q 1225 103 1225 194 q 1211 53 1225 69 q 1161 38 1197 38 l 228 38 q 178 53 192 38 q 164 103 164 69 q 192 278 164 194 q 292 433 219 363 q 414 569 371 508 q 457 703 457 631 l 457 792 l 308 792 m 576 792 l 576 658 l 813 658 l 813 792 l 576 792 m 461 347 q 479 256 461 299 q 529 182 497 214 q 603 132 561 150 q 694 114 646 114 q 785 132 743 114 q 860 182 828 150 q 910 256 892 214 q 928 347 928 299 q 910 438 928 396 q 860 513 892 481 q 785 563 828 544 q 694 581 743 581 q 603 563 646 581 q 529 513 561 544 q 479 438 497 481 q 461 347 461 396 z "},"☏":{"ha":1389,"x_min":36,"x_max":1353,"o":"m 336 772 l 383 651 l 383 653 q 388 607 392 632 q 350 574 383 582 l 97 531 q 53 544 71 528 q 36 589 36 561 q 39 648 36 613 q 51 722 42 683 q 76 794 60 760 q 118 850 92 829 q 217 912 163 885 q 340 957 271 939 q 496 984 408 975 q 694 993 583 993 q 893 984 806 993 q 1049 957 981 975 q 1172 912 1118 939 q 1271 850 1226 885 q 1315 794 1299 829 q 1339 722 1331 760 q 1350 647 1347 683 q 1353 589 1353 611 q 1335 544 1353 561 q 1292 531 1318 528 l 1038 574 q 1001 608 1006 582 q 1006 653 997 633 l 1006 651 l 1053 772 l 951 772 l 951 703 q 992 578 951 635 q 1111 447 1033 522 q 1215 285 1186 372 q 1244 103 1244 199 q 1224 41 1244 64 q 1161 18 1204 18 l 228 18 q 165 41 185 18 q 144 103 144 64 q 174 285 144 199 q 278 447 203 372 q 397 578 356 522 q 438 703 438 635 l 438 772 l 336 772 m 281 811 l 476 811 l 476 703 q 431 559 476 624 q 306 419 385 494 q 209 274 235 353 q 183 103 183 194 q 192 67 183 76 q 228 57 201 57 l 1161 57 q 1197 67 1188 57 q 1206 103 1206 76 q 1180 274 1206 194 q 1083 419 1154 353 q 959 560 1006 494 q 913 703 913 625 l 913 811 l 1108 811 l 1042 638 l 1042 636 q 1044 613 1031 614 l 1297 569 q 1314 589 1314 568 q 1312 644 1314 611 q 1302 710 1310 676 q 1281 773 1294 743 q 1246 819 1268 803 q 1153 878 1203 853 q 1037 919 1103 903 q 888 945 971 936 q 694 954 804 954 q 501 945 585 954 q 352 919 418 936 q 236 878 286 903 q 143 819 186 853 q 108 773 121 803 q 87 710 94 743 q 77 644 79 676 q 75 589 75 611 q 92 569 75 568 l 343 613 q 347 636 357 614 l 347 638 l 281 811 m 557 811 l 832 811 l 832 639 l 557 639 l 557 811 m 596 772 l 596 678 l 793 678 l 793 772 l 596 772 m 947 347 q 927 250 947 296 q 872 169 907 204 q 792 115 838 135 q 694 94 746 94 q 597 115 643 94 q 517 169 551 135 q 462 250 482 204 q 442 347 442 296 q 462 444 442 399 q 517 525 482 490 q 597 580 551 560 q 694 600 643 600 q 792 580 746 600 q 872 525 838 560 q 927 444 907 490 q 947 347 947 399 m 481 347 q 497 264 481 303 q 543 196 514 225 q 611 150 572 167 q 694 133 650 133 q 778 150 739 133 q 846 196 817 167 q 892 264 875 225 q 908 347 908 303 q 892 431 908 392 q 846 499 875 469 q 778 544 817 528 q 694 561 739 561 q 611 544 650 561 q 543 499 572 528 q 497 431 514 469 q 481 347 481 392 z "},"☜":{"ha":1389,"x_min":39,"x_max":1340,"o":"m 1210 267 q 1181 263 1196 269 q 972 188 1081 217 q 754 158 863 158 q 718 160 738 158 q 680 163 699 161 q 647 168 661 165 q 624 174 632 171 l 613 174 l 600 172 q 497 201 540 172 q 450 294 454 231 q 446 300 450 299 l 444 300 q 443 301 443 301 l 436 303 l 435 304 l 433 304 q 375 415 379 338 q 369 425 375 424 q 324 468 336 442 q 313 528 308 496 q 338 581 317 560 l 342 583 q 343 585 342 585 q 344 590 346 588 q 339 592 342 592 q 237 590 289 592 q 157 592 185 589 q 63 623 88 597 q 39 679 39 649 q 50 721 39 704 q 78 748 61 738 q 117 765 96 758 q 157 775 138 771 q 227 785 182 779 q 327 795 272 790 q 442 806 382 800 q 559 815 503 811 q 663 821 615 818 q 742 824 711 824 q 944 792 826 824 q 1204 700 1061 760 q 1217 699 1215 697 l 1319 711 q 1335 706 1331 713 q 1340 692 1340 700 l 1340 274 q 1340 274 1340 276 q 1338 264 1339 271 q 1319 254 1332 254 l 1210 267 m 1214 660 q 1205 660 1210 660 q 1196 663 1200 660 q 1074 711 1135 689 q 958 749 1013 733 q 859 773 904 764 q 783 782 814 782 q 698 773 731 782 q 629 740 665 764 q 574 700 610 726 q 514 646 539 674 q 490 613 494 625 q 489 593 485 600 q 539 569 501 569 q 590 578 564 569 q 682 606 635 590 q 757 631 729 621 q 773 636 767 633 q 782 640 779 639 q 794 642 788 643 q 804 635 801 640 q 843 598 815 619 q 915 553 871 576 q 1007 517 960 529 q 1096 504 1054 504 q 1111 500 1103 504 q 1119 489 1119 496 q 1104 471 1119 478 q 1069 460 1089 464 q 1029 456 1049 457 q 1003 454 1010 454 q 926 458 971 454 q 865 437 883 463 q 846 379 846 411 q 837 315 846 342 q 811 267 828 288 q 769 232 794 247 q 713 201 744 217 q 710 199 710 201 q 713 197 711 197 q 788 196 749 194 q 869 204 828 197 q 1022 241 946 217 q 1181 304 1097 265 q 1190 307 1185 307 q 1199 307 1194 307 l 1286 296 q 1303 310 1303 296 l 1303 658 q 1289 669 1303 669 l 1214 660 m 374 631 q 432 636 400 631 q 482 664 464 642 q 532 708 503 686 q 582 750 561 731 l 582 751 l 583 753 q 583 775 586 764 q 579 779 583 779 q 460 770 522 775 q 341 760 399 765 q 237 749 283 754 q 164 738 190 743 q 113 723 131 731 q 88 707 96 715 q 78 692 79 699 q 76 679 76 685 q 91 648 76 663 q 160 629 106 633 q 201 628 175 628 q 256 628 226 628 q 317 630 286 629 q 374 631 347 631 m 418 450 q 472 444 446 444 q 508 447 497 444 q 557 455 529 450 q 613 468 585 460 q 665 488 640 476 q 706 515 690 500 q 719 537 717 526 q 718 558 721 547 q 697 568 714 572 q 651 556 678 563 q 601 542 625 549 q 556 534 576 536 q 515 536 535 532 q 477 551 492 540 q 451 588 463 563 q 442 596 449 594 q 429 594 435 597 q 364 554 390 581 q 349 520 349 540 q 357 485 350 500 q 383 460 364 468 q 418 450 401 453 m 544 322 q 604 332 565 322 q 681 359 643 342 q 747 399 718 376 q 775 449 775 422 q 763 483 775 469 q 749 489 757 488 q 733 485 742 490 q 692 464 714 475 q 651 444 671 453 q 566 418 613 428 q 467 408 519 408 q 444 408 456 408 q 421 411 433 408 q 414 404 414 411 q 431 359 419 375 q 458 335 442 343 q 497 324 475 326 q 544 322 518 322 m 593 210 q 694 233 642 210 q 781 292 747 256 q 797 322 796 307 q 794 344 797 338 q 772 364 786 364 q 747 354 761 364 q 698 326 725 339 q 643 304 671 314 q 590 290 615 294 q 544 285 564 285 q 519 285 532 285 q 494 288 506 286 q 489 283 489 288 q 526 227 497 244 q 593 210 556 210 z "},"☞":{"ha":1389,"x_min":46,"x_max":1347,"o":"m 644 824 q 723 821 675 824 q 827 815 771 818 q 944 806 883 811 q 1059 795 1004 800 q 1159 785 1114 790 q 1229 775 1204 779 q 1269 765 1249 771 q 1308 748 1290 758 q 1336 721 1325 738 q 1347 679 1347 704 q 1323 623 1347 649 q 1229 592 1299 597 q 1149 590 1201 589 q 1047 592 1097 592 q 1042 590 1044 592 q 1043 585 1040 588 l 1049 581 q 1074 528 1069 560 q 1063 468 1078 496 q 1017 425 1050 442 q 1011 415 1011 424 q 953 304 1007 338 l 951 304 q 950 303 950 303 l 943 301 l 942 300 l 940 300 q 936 294 936 299 q 889 200 932 228 q 786 172 846 172 l 774 174 l 763 174 q 740 168 754 171 q 706 163 725 165 q 668 160 688 161 q 632 158 649 158 q 415 188 524 158 q 206 263 306 217 q 176 267 192 269 l 67 254 q 49 264 54 254 q 47 274 47 271 q 46 274 46 276 l 46 692 q 51 706 46 700 q 67 711 56 713 l 169 699 q 182 700 171 697 q 442 792 325 760 q 644 824 560 824 m 206 304 q 365 241 289 265 q 517 204 440 217 q 598 196 558 197 q 674 197 638 194 q 676 199 675 197 q 674 201 676 201 q 617 232 642 217 q 575 267 592 247 q 549 315 558 288 q 540 379 540 342 q 522 437 540 411 q 460 458 503 463 q 383 454 417 454 q 357 456 376 454 q 317 460 338 457 q 282 471 297 464 q 267 489 267 478 q 275 500 267 496 q 290 504 283 504 q 379 517 332 504 q 471 553 426 529 q 543 598 515 576 q 582 635 571 619 q 592 642 585 640 q 604 640 599 643 q 613 636 607 639 q 629 631 619 633 q 704 606 657 621 q 796 578 751 590 q 847 569 824 569 q 897 593 886 569 q 897 613 901 600 q 872 646 892 625 q 812 700 847 674 q 757 740 776 726 q 688 773 721 764 q 603 782 656 782 q 527 773 572 782 q 428 749 482 764 q 313 711 374 733 q 190 663 251 689 q 181 660 186 660 q 172 660 176 660 l 97 669 q 83 658 83 669 l 83 310 q 100 296 83 296 l 188 307 q 197 307 192 307 q 206 304 201 307 m 1013 631 q 1069 630 1039 631 q 1130 628 1100 629 q 1185 628 1160 628 q 1226 629 1211 628 q 1295 648 1281 633 q 1310 679 1310 663 q 1308 692 1310 685 q 1299 707 1307 699 q 1273 723 1290 715 q 1222 738 1256 731 q 1149 749 1196 743 q 1045 760 1103 754 q 926 770 988 765 q 807 779 864 775 q 803 775 803 779 q 803 753 800 764 l 804 751 l 804 750 q 854 708 825 731 q 904 664 883 686 q 954 636 922 642 q 1013 631 986 631 m 968 450 q 1003 460 985 453 q 1029 485 1022 468 q 1037 520 1036 500 q 1022 554 1038 540 q 957 594 1000 579 q 944 596 951 597 q 935 588 938 594 q 909 551 924 563 q 871 536 894 540 q 831 534 851 532 q 785 542 810 536 q 735 556 761 549 q 689 568 708 563 q 668 558 672 572 q 667 537 665 547 q 681 515 669 526 q 721 488 696 500 q 774 468 746 476 q 829 455 801 460 q 878 447 857 450 q 915 444 889 444 q 968 450 940 444 m 842 322 q 890 324 868 322 q 928 335 911 326 q 956 359 944 343 q 972 404 967 375 q 965 411 972 411 q 942 408 953 408 q 919 408 931 408 q 820 418 867 408 q 735 444 774 428 q 694 464 715 453 q 653 485 672 475 q 637 489 644 490 q 624 483 629 488 q 611 449 611 469 q 640 399 611 422 q 706 359 668 376 q 782 332 743 342 q 842 322 821 322 m 793 210 q 860 227 831 210 q 897 283 889 244 q 892 288 897 288 q 867 285 881 286 q 842 285 854 285 q 797 290 822 285 q 743 304 771 294 q 688 326 715 314 q 639 354 661 339 q 614 364 625 364 q 592 344 600 364 q 590 322 589 338 q 606 292 590 307 q 692 233 640 257 q 793 210 744 210 z "},"♀":{"ha":1389,"x_min":244,"x_max":1144,"o":"m 374 818 q 399 943 374 885 q 467 1045 424 1001 q 569 1114 511 1089 q 694 1139 628 1139 q 819 1114 761 1139 q 922 1045 878 1089 q 990 943 965 1001 q 1015 818 1015 885 q 997 710 1015 761 q 944 617 978 658 q 865 547 911 576 q 765 506 819 518 l 765 392 l 1144 392 l 1144 250 l 765 250 l 765 -83 l 624 -83 l 624 250 l 244 250 l 244 392 l 624 392 l 624 506 q 524 547 569 518 q 444 617 478 576 q 392 710 411 658 q 374 818 374 761 m 875 818 q 861 888 875 856 q 822 945 847 921 q 765 983 797 969 q 694 997 732 997 q 624 983 657 997 q 567 945 592 969 q 528 888 543 921 q 514 818 514 856 q 528 748 514 781 q 567 690 543 715 q 624 651 592 665 q 694 638 657 638 q 765 651 732 638 q 822 690 797 665 q 861 748 847 715 q 875 818 875 781 z "},"♂":{"ha":1389,"x_min":156,"x_max":1219,"o":"m 797 310 q 772 185 797 243 q 703 83 747 126 q 601 14 660 39 q 476 -11 543 -11 q 351 14 410 -11 q 249 83 293 39 q 181 185 206 126 q 156 310 156 243 q 181 435 156 376 q 249 537 206 493 q 351 606 293 581 q 476 631 410 631 q 644 582 567 631 l 975 913 l 676 913 l 676 1053 l 1219 1053 l 1219 510 l 1079 510 l 1079 818 l 744 485 q 783 402 769 446 q 797 310 797 358 m 296 310 q 310 240 296 272 q 349 182 324 207 q 406 143 374 157 q 476 129 439 129 q 547 143 514 129 q 603 182 579 157 q 642 240 628 207 q 657 310 657 272 q 642 380 657 347 q 603 437 628 413 q 547 476 579 461 q 476 490 514 490 q 406 476 439 490 q 349 437 374 461 q 310 380 324 413 q 296 310 296 347 z "},"♠":{"ha":1389,"x_min":115,"x_max":1274,"o":"m 1010 832 q 1094 751 1047 796 q 1180 651 1140 706 q 1247 533 1219 597 q 1274 394 1274 469 q 1253 278 1274 333 q 1197 182 1233 224 q 1110 116 1161 140 q 996 92 1058 92 q 855 129 917 92 q 767 226 793 167 q 756 249 760 242 q 744 257 753 257 q 737 246 738 257 q 736 232 736 235 q 751 135 740 178 q 780 59 763 93 q 821 -2 797 25 q 874 -54 844 -29 q 881 -74 885 -65 q 874 -82 878 -82 l 515 -82 q 507 -74 511 -82 q 515 -54 503 -65 q 568 -2 544 -29 q 609 59 592 25 q 638 135 626 93 q 653 232 649 178 q 652 246 653 235 q 644 257 651 257 q 633 249 636 257 q 622 226 629 242 q 534 129 596 167 q 393 92 472 92 q 280 116 331 92 q 192 182 229 140 q 135 278 156 224 q 115 394 115 333 q 142 533 115 469 q 209 651 169 597 q 295 751 249 706 q 379 832 342 796 q 472 926 425 876 q 562 1022 519 975 q 638 1112 604 1069 q 692 1183 672 1154 q 694 1190 693 1190 q 697 1183 696 1190 q 749 1112 715 1154 q 826 1022 783 1069 q 916 926 868 975 q 1010 832 964 876 z "},"♡":{"ha":1389,"x_min":106,"x_max":1286,"o":"m 699 910 q 760 1008 725 969 q 835 1070 796 1047 q 915 1102 874 1093 q 993 1111 956 1111 q 1106 1085 1053 1111 q 1199 1014 1160 1060 q 1263 906 1239 968 q 1286 774 1286 844 q 1258 628 1286 696 q 1190 504 1231 561 q 1101 400 1149 447 q 1014 315 1054 353 q 919 218 967 269 q 828 116 871 167 q 752 20 786 65 q 699 -57 718 -25 q 696 -64 697 -64 q 693 -57 694 -64 q 640 20 674 -25 q 563 116 606 65 q 473 218 521 167 q 378 315 425 269 q 292 401 339 353 q 203 506 244 449 q 133 630 161 563 q 106 774 106 697 q 129 906 106 844 q 192 1014 153 968 q 285 1085 232 1060 q 399 1111 339 1111 q 476 1102 436 1111 q 556 1070 517 1093 q 630 1008 594 1047 q 693 910 665 969 q 696 903 694 903 q 699 910 697 903 m 1225 774 q 1206 884 1225 833 q 1156 972 1188 935 q 1081 1029 1124 1008 q 993 1050 1039 1050 q 846 1004 906 1050 q 739 857 786 958 q 722 827 732 839 q 696 815 711 815 q 670 827 681 815 q 653 857 660 839 q 545 1004 604 958 q 399 1050 486 1050 q 310 1029 353 1050 q 236 972 268 1008 q 185 884 204 935 q 167 774 167 833 q 193 648 167 708 q 258 535 219 588 q 340 438 296 482 q 421 358 385 393 q 583 191 513 275 q 693 47 654 107 q 696 40 694 40 q 699 47 697 40 q 809 192 739 107 q 971 360 879 276 q 1051 440 1007 396 q 1135 536 1096 485 q 1199 647 1174 588 q 1225 774 1225 707 z "},"♣":{"ha":1389,"x_min":89,"x_max":1300,"o":"m 644 257 q 634 249 636 257 q 622 226 632 242 q 517 123 583 164 q 368 82 451 82 q 258 103 310 82 q 169 161 207 124 q 110 250 132 199 q 89 364 89 301 q 110 475 89 424 q 168 565 131 526 q 257 625 206 603 q 369 647 308 647 q 433 638 401 647 q 489 615 465 628 q 493 614 490 614 q 499 618 497 614 q 499 626 501 622 q 432 719 456 669 q 408 831 408 768 q 431 942 408 890 q 492 1034 453 994 q 583 1097 531 1074 q 694 1119 635 1119 q 806 1097 754 1119 q 897 1035 858 1074 q 958 944 936 996 q 981 832 981 892 q 957 719 981 769 q 890 626 933 669 q 890 618 889 621 q 896 614 893 614 q 900 615 899 614 q 956 638 924 628 q 1018 647 989 647 q 1132 625 1081 647 q 1221 565 1183 603 q 1279 475 1258 526 q 1300 364 1300 424 q 1278 250 1300 301 q 1219 161 1257 199 q 1131 103 1182 124 q 1021 82 1079 82 q 876 121 942 82 q 767 226 810 160 q 755 249 757 242 q 744 257 753 257 q 737 246 738 257 q 736 232 736 235 q 751 135 740 178 q 780 59 763 93 q 821 -2 797 25 q 874 -54 844 -29 q 882 -74 886 -65 q 874 -82 878 -82 l 517 -82 q 508 -74 511 -82 q 515 -54 504 -65 q 568 -2 544 -29 q 609 59 592 25 q 638 135 626 93 q 653 232 649 178 q 652 246 653 235 q 644 257 651 257 z "},"♤":{"ha":1389,"x_min":107,"x_max":1282,"o":"m 489 -87 q 481 -78 485 -87 q 489 -57 478 -68 q 533 -9 514 -32 q 565 38 551 14 q 588 89 578 61 q 607 151 599 117 q 614 185 611 169 q 615 201 617 201 l 614 200 l 614 199 q 606 186 610 190 q 513 111 572 138 q 389 85 453 85 q 273 110 325 85 q 184 177 221 135 q 127 275 147 219 q 107 392 107 331 q 134 533 107 468 q 201 653 161 599 q 288 754 242 708 q 374 836 335 800 q 469 932 421 882 q 561 1030 518 982 q 638 1120 604 1078 q 692 1193 672 1163 q 694 1200 693 1200 q 697 1193 696 1200 q 751 1120 717 1163 q 828 1030 785 1078 q 919 932 871 982 q 1015 836 968 882 q 1101 754 1054 800 q 1188 653 1147 708 q 1255 533 1228 599 q 1282 392 1282 468 q 1262 275 1282 331 q 1204 177 1242 219 q 1115 110 1167 135 q 1000 85 1063 85 q 876 111 936 85 q 783 186 817 138 q 778 195 781 192 q 774 201 776 199 q 775 185 772 201 q 782 151 778 169 q 801 89 790 117 q 824 38 811 61 q 856 -9 838 14 q 900 -57 875 -32 q 908 -78 913 -68 q 900 -87 904 -87 l 489 -87 m 788 -26 q 786 -19 792 -26 q 774 -1 781 -12 q 732 87 750 33 q 714 211 714 140 q 721 268 714 239 q 750 297 728 297 q 778 283 765 297 q 807 249 790 269 q 890 175 843 204 q 1003 146 936 146 q 1093 165 1053 146 q 1162 218 1133 185 q 1206 297 1190 251 q 1221 393 1221 342 q 1195 517 1221 458 q 1132 626 1169 576 q 1052 718 1094 676 q 976 792 1010 760 q 892 873 935 831 q 813 956 850 915 q 745 1032 775 996 q 699 1094 715 1068 q 696 1101 697 1101 q 693 1094 694 1101 q 647 1033 676 1068 q 579 956 617 997 q 499 873 542 915 q 414 792 456 831 q 338 718 381 760 q 257 626 294 676 q 194 518 219 576 q 168 393 168 460 q 183 297 168 342 q 227 218 199 251 q 296 165 256 185 q 386 146 336 146 q 499 175 453 146 q 582 249 546 204 q 611 283 599 269 q 639 297 624 297 q 668 269 661 297 q 675 211 675 240 q 657 87 675 140 q 615 -1 639 33 q 603 -19 608 -12 q 601 -26 597 -26 l 788 -26 z "},"♥":{"ha":1389,"x_min":110,"x_max":1279,"o":"m 701 883 q 811 1052 732 999 q 989 1106 890 1106 q 1101 1080 1049 1106 q 1194 1009 1154 1054 q 1256 903 1233 964 q 1279 771 1279 842 q 1251 628 1279 694 q 1183 505 1224 561 q 1096 402 1143 449 q 1010 318 1049 356 q 915 220 963 272 q 826 118 868 168 q 751 24 785 68 q 697 -51 717 -21 q 694 -58 696 -58 q 692 -51 693 -58 q 638 24 672 -21 q 563 118 604 68 q 474 220 521 168 q 379 318 426 272 q 293 402 340 356 q 206 505 246 449 q 138 628 165 561 q 110 771 110 694 q 133 903 110 842 q 195 1009 156 964 q 288 1080 235 1054 q 400 1106 340 1106 q 494 1092 449 1106 q 577 1052 539 1079 q 644 983 615 1025 q 688 883 672 942 q 694 874 689 874 q 701 883 700 874 z "},"♧":{"ha":1389,"x_min":82,"x_max":1307,"o":"m 82 367 q 103 480 82 428 q 161 572 124 532 q 251 633 199 611 q 365 656 303 656 q 430 648 400 656 q 475 633 460 640 q 478 633 478 632 q 476 636 479 633 q 427 715 451 664 q 403 836 403 765 q 426 949 403 896 q 488 1041 449 1001 q 581 1103 528 1081 q 694 1126 635 1126 q 808 1103 756 1126 q 901 1041 861 1081 q 963 949 940 1001 q 986 836 986 896 q 962 715 986 765 q 913 636 938 664 q 914 633 908 632 q 959 648 929 640 q 1024 656 989 656 q 1138 633 1086 656 q 1228 572 1190 611 q 1286 480 1265 532 q 1307 367 1307 428 q 1285 251 1307 304 q 1226 160 1264 199 q 1136 99 1188 121 q 1025 78 1085 78 q 891 106 954 78 q 786 190 828 135 q 780 199 782 194 q 775 207 778 204 q 775 187 774 207 q 779 151 776 167 q 826 35 796 79 q 900 -57 856 -10 q 908 -78 911 -68 q 900 -87 904 -87 l 489 -87 q 481 -78 485 -87 q 489 -57 476 -68 q 563 35 533 -10 q 610 151 593 79 q 614 187 613 167 q 614 207 615 207 q 609 199 611 204 q 603 190 607 194 q 498 106 561 135 q 364 78 435 78 q 253 99 304 78 q 163 160 201 121 q 103 251 125 199 q 82 367 82 304 m 478 572 q 429 587 457 579 q 365 594 401 594 q 273 577 314 594 q 203 528 232 560 q 158 456 174 497 q 143 367 143 415 q 161 276 143 318 q 209 204 179 235 q 279 156 239 174 q 364 139 319 139 q 485 169 432 139 q 581 253 539 200 q 602 282 590 267 q 632 297 614 297 q 664 272 654 297 q 674 211 674 246 q 660 92 674 140 q 615 -3 646 44 q 602 -20 607 -14 q 601 -26 597 -26 l 788 -26 q 787 -20 792 -26 q 774 -3 782 -14 q 728 92 742 44 q 715 211 715 140 q 725 272 715 246 q 757 297 735 297 q 788 281 775 297 q 813 247 800 264 q 904 168 851 197 q 1025 139 957 139 q 1110 156 1069 139 q 1180 204 1150 174 q 1228 276 1210 235 q 1246 367 1246 318 q 1231 456 1246 415 q 1186 528 1215 497 q 1116 577 1157 560 q 1024 594 1075 594 q 960 587 988 594 q 911 572 932 579 q 869 564 886 564 q 838 579 849 564 q 837 624 824 603 q 867 669 850 644 q 905 733 885 693 q 925 836 925 774 q 906 925 925 883 q 856 998 888 967 q 783 1047 825 1029 q 694 1065 742 1065 q 606 1047 647 1065 q 533 998 564 1029 q 483 925 501 967 q 464 836 464 883 q 484 733 464 774 q 522 669 504 693 q 552 624 539 646 q 551 579 565 601 q 519 564 540 564 q 478 572 503 564 z "},"♨":{"ha":1389,"x_min":101,"x_max":1288,"o":"m 635 635 q 589 744 603 689 q 575 839 575 799 q 604 986 575 918 q 708 1107 633 1054 l 767 1083 q 678 893 678 994 q 693 793 678 846 q 740 685 708 740 q 786 576 772 631 q 800 481 800 521 q 771 333 800 401 q 667 213 742 265 l 608 236 q 697 426 697 325 q 635 635 697 525 m 394 638 q 350 734 363 686 q 338 818 338 782 q 362 943 338 881 q 458 1056 386 1006 l 514 1032 q 452 949 468 992 q 436 867 436 907 q 451 778 436 826 q 499 682 467 731 q 543 585 531 633 q 556 501 556 538 q 531 376 556 438 q 435 264 507 314 l 378 288 q 440 370 424 328 q 457 453 457 413 q 441 541 457 493 q 394 638 425 589 m 881 638 q 837 734 850 686 q 824 818 824 782 q 848 943 824 881 q 944 1056 872 1006 l 1001 1032 q 939 949 956 992 q 922 867 922 907 q 938 778 922 826 q 985 682 954 731 q 1029 585 1017 633 q 1042 501 1042 538 q 1018 376 1042 438 q 922 264 994 314 l 865 288 q 927 370 911 328 q 943 453 943 413 q 928 541 943 493 q 881 638 913 589 m 1288 318 q 1242 180 1288 243 q 1116 71 1196 117 q 928 -1 1036 25 q 694 -28 819 -28 q 461 -1 569 -28 q 273 71 353 25 q 147 180 193 117 q 101 318 101 243 q 156 464 101 406 q 304 543 211 522 l 338 503 q 244 448 278 485 q 211 356 211 411 q 248 263 211 306 q 349 188 285 219 q 502 137 414 156 q 694 118 590 118 q 887 137 799 118 q 1040 188 975 156 q 1141 263 1104 219 q 1178 356 1178 306 q 1144 448 1178 411 q 1051 503 1111 485 l 1085 543 q 1233 464 1178 522 q 1288 318 1288 406 z "},"♩":{"ha":1389,"x_min":392,"x_max":775,"o":"m 775 1167 l 775 125 q 754 27 775 71 q 698 -47 733 -17 q 617 -94 663 -78 q 521 -111 571 -111 q 474 -105 497 -111 q 432 -85 450 -99 q 403 -53 414 -72 q 392 -8 392 -33 q 413 63 392 29 q 469 124 435 97 q 546 167 503 151 q 632 183 589 183 q 680 178 656 183 q 719 165 704 174 l 719 1167 l 775 1167 z "},"♪":{"ha":1389,"x_min":347,"x_max":1050,"o":"m 710 1167 q 723 1073 710 1117 q 758 992 736 1029 q 810 922 781 954 q 871 861 839 889 q 935 799 903 833 q 992 726 967 765 q 1034 642 1018 686 q 1050 549 1050 597 q 1017 376 1050 461 q 933 210 983 290 l 897 210 q 924 267 908 233 q 953 338 939 300 q 976 418 967 376 q 985 501 985 460 q 965 615 985 563 q 912 710 946 668 q 831 781 878 751 q 731 822 785 810 l 731 125 q 710 27 731 71 q 653 -47 689 -17 q 572 -94 618 -78 q 476 -111 526 -111 q 429 -105 453 -111 q 388 -85 406 -99 q 358 -53 369 -72 q 347 -8 347 -33 q 369 63 347 29 q 424 124 390 97 q 501 167 458 151 q 588 183 544 183 q 635 178 611 183 q 675 165 660 174 l 675 1167 l 710 1167 z "},"♬":{"ha":1389,"x_min":33,"x_max":1174,"o":"m 1174 1188 l 1174 282 q 1153 184 1174 228 q 1097 110 1132 140 q 1015 63 1061 79 q 919 46 969 46 q 872 52 896 46 q 831 72 849 58 q 801 104 813 85 q 790 149 790 124 q 812 220 790 186 q 867 281 833 254 q 944 324 901 308 q 1031 340 988 340 q 1078 335 1054 340 q 1118 322 1103 331 l 1118 797 l 417 644 l 417 104 q 396 6 417 50 q 340 -68 375 -37 q 258 -115 304 -99 q 163 -132 213 -132 q 115 -126 139 -132 q 74 -106 92 -119 q 44 -74 56 -93 q 33 -29 33 -54 q 55 42 33 8 q 110 103 76 76 q 188 147 144 131 q 274 163 231 163 q 322 158 297 163 q 361 144 346 153 l 361 1010 l 1174 1188 m 1118 1036 l 417 883 l 417 783 l 1118 936 l 1118 1036 z "},"♭":{"ha":1389,"x_min":478,"x_max":1038,"o":"m 833 647 q 917 633 879 647 q 981 594 954 619 q 1023 536 1008 569 q 1038 464 1038 503 q 1010 340 1038 393 q 938 244 983 288 q 835 163 893 200 q 717 87 778 125 q 597 5 656 49 q 490 -94 538 -39 l 478 -94 l 478 1151 l 533 1151 l 533 454 q 660 594 582 542 q 833 647 738 647 m 533 3 q 636 108 582 60 q 736 205 690 156 q 813 310 782 254 q 843 436 843 365 q 816 526 843 500 q 746 553 789 553 q 641 511 697 553 q 533 382 585 469 l 533 3 z "},"　":{"ha":1389,"x_min":0,"x_max":0,"o":""},"、":{"ha":1389,"x_min":56,"x_max":503,"o":"m 354 -96 q 285 -16 322 -57 q 209 65 249 25 q 131 142 169 104 q 56 211 92 179 l 200 336 q 279 267 238 306 q 362 186 321 228 q 440 104 403 144 q 503 32 476 64 l 354 -96 z "},"。":{"ha":1389,"x_min":44,"x_max":493,"o":"m 268 344 q 356 326 315 344 q 428 278 397 308 q 476 206 458 247 q 493 119 493 165 q 476 33 493 74 q 428 -39 458 -8 q 356 -87 397 -69 q 268 -106 315 -106 q 181 -87 222 -106 q 110 -39 140 -69 q 63 33 81 -8 q 44 119 44 74 q 63 206 44 165 q 110 278 81 247 q 181 326 140 308 q 268 344 222 344 m 268 -4 q 357 31 321 -4 q 393 119 393 67 q 357 208 393 172 q 268 244 321 244 q 181 208 218 244 q 144 119 144 172 q 181 31 144 67 q 268 -4 218 -4 z "},"〃":{"ha":1389,"x_min":268,"x_max":1119,"o":"m 689 775 l 374 157 l 268 204 l 497 860 l 689 775 m 1119 775 l 804 157 l 699 204 l 926 860 l 1119 775 z "},"〈":{"ha":764,"x_min":114,"x_max":650,"o":"m 650 -68 l 513 -128 l 114 528 l 513 1183 l 650 1124 l 288 528 l 650 -68 z "},"〉":{"ha":764,"x_min":114,"x_max":650,"o":"m 114 -68 l 476 528 l 114 1124 l 251 1183 l 650 528 l 251 -128 l 114 -68 z "},"《":{"ha":764,"x_min":65,"x_max":697,"o":"m 457 -92 l 342 -128 l 65 528 l 342 1183 l 457 1147 l 194 528 l 457 -92 m 697 -92 l 581 -128 l 306 528 l 581 1183 l 697 1147 l 433 528 l 697 -92 z "},"》":{"ha":764,"x_min":65,"x_max":697,"o":"m 306 -92 l 568 528 l 306 1147 l 421 1183 l 697 528 l 421 -128 l 306 -92 m 65 -92 l 329 528 l 65 1147 l 182 1183 l 457 528 l 182 -128 l 65 -92 z "},"「":{"ha":764,"x_min":263,"x_max":722,"o":"m 263 1183 l 722 1183 l 722 1033 l 426 1033 l 426 296 l 263 296 l 263 1183 z "},"」":{"ha":764,"x_min":43,"x_max":504,"o":"m 504 -128 l 43 -128 l 43 22 l 339 22 l 339 760 l 504 760 l 504 -128 z "},"『":{"ha":764,"x_min":197,"x_max":721,"o":"m 471 929 l 471 265 l 197 265 l 197 1183 l 721 1183 l 721 929 l 471 929 m 292 1093 l 292 342 l 381 342 l 381 1015 l 635 1015 l 635 1093 l 292 1093 z "},"』":{"ha":764,"x_min":40,"x_max":564,"o":"m 290 126 l 290 790 l 564 790 l 564 -128 l 40 -128 l 40 126 l 290 126 m 469 -37 l 469 714 l 381 714 l 381 40 l 126 40 l 126 -37 l 469 -37 z "},"【":{"ha":1389,"x_min":917,"x_max":1350,"o":"m 1350 1183 l 1350 1176 q 1243 1060 1293 1128 q 1156 910 1193 993 q 1097 731 1118 828 q 1075 528 1075 635 q 1097 324 1075 421 q 1156 145 1118 228 q 1243 -5 1193 63 q 1350 -121 1293 -72 l 1350 -128 l 917 -128 l 917 1183 l 1350 1183 z "},"】":{"ha":1389,"x_min":39,"x_max":472,"o":"m 472 -128 l 39 -128 l 39 -121 q 146 -5 96 -72 q 233 145 196 63 q 292 324 271 228 q 314 528 314 421 q 292 731 314 635 q 233 910 271 828 q 146 1060 196 993 q 39 1176 96 1128 l 39 1183 l 472 1183 l 472 -128 z "},"〓":{"ha":1389,"x_min":139,"x_max":1250,"o":"m 1250 667 l 139 667 l 139 1083 l 1250 1083 l 1250 667 m 1250 -28 l 139 -28 l 139 389 l 1250 389 l 1250 -28 z "},"〔":{"ha":1389,"x_min":963,"x_max":1354,"o":"m 963 64 l 963 992 l 1288 1200 l 1354 1090 l 1115 938 l 1115 118 l 1354 -35 l 1288 -144 l 963 64 z "},"〕":{"ha":1389,"x_min":35,"x_max":426,"o":"m 101 -144 l 35 -35 l 274 118 l 274 938 l 35 1090 l 101 1200 l 426 992 l 426 64 l 101 -144 z "},"ㄱ":{"ha":1278,"x_min":235,"x_max":1043,"o":"m 1043 871 l 1043 182 l 863 182 l 863 725 l 235 725 l 235 871 l 1043 871 z "},"ㄲ":{"ha":1278,"x_min":151,"x_max":1129,"o":"m 1129 872 l 1129 183 l 949 183 l 949 725 l 682 725 l 682 872 l 1129 872 m 622 871 l 622 182 l 442 182 l 442 725 l 151 725 l 151 871 l 622 871 z "},"ㄳ":{"ha":1278,"x_min":157,"x_max":1188,"o":"m 961 651 q 973 542 961 596 q 1011 442 985 488 q 1081 359 1038 396 q 1188 300 1125 322 l 1094 169 q 959 256 1011 201 q 875 381 907 310 q 791 256 843 310 q 656 169 739 201 l 589 263 l 589 182 l 408 182 l 408 721 l 157 721 l 157 867 l 589 867 l 589 311 q 683 372 644 336 q 744 453 721 408 q 778 548 768 497 q 789 651 789 599 l 789 879 l 961 879 l 961 651 z "},"ㄴ":{"ha":1278,"x_min":235,"x_max":1057,"o":"m 1057 339 l 1057 193 l 235 193 l 235 861 l 419 861 l 419 339 l 1057 339 z "},"ㄵ":{"ha":1278,"x_min":169,"x_max":1151,"o":"m 928 703 q 939 578 928 639 q 976 466 950 518 q 1044 372 1001 414 q 1151 304 1088 331 l 1053 171 q 923 264 974 207 q 842 396 872 321 q 763 265 813 321 q 636 172 713 208 l 583 242 l 588 207 q 425 183 506 188 q 242 179 344 179 l 169 179 l 169 885 l 353 885 l 353 326 q 464 335 411 329 q 571 353 517 340 l 575 324 q 660 394 626 353 q 715 484 694 435 q 745 589 736 533 q 754 703 754 644 l 754 736 l 582 736 l 582 883 l 1101 883 l 1101 736 l 928 736 l 928 703 z "},"ㄶ":{"ha":1278,"x_min":167,"x_max":1111,"o":"m 1111 793 l 1111 647 l 563 647 l 563 793 l 758 793 l 758 903 l 935 903 l 935 793 l 1111 793 m 347 336 q 460 344 407 339 q 569 363 514 350 l 588 217 q 424 193 504 197 q 239 189 343 189 l 167 189 l 167 867 l 347 867 l 347 336 m 840 614 q 932 597 889 614 q 1006 549 975 579 q 1056 477 1038 519 q 1074 385 1074 435 q 1056 292 1074 335 q 1006 219 1038 250 q 932 172 975 189 q 840 154 889 154 q 749 172 792 154 q 674 219 706 189 q 625 292 643 250 q 607 385 607 335 q 625 477 607 435 q 674 549 643 519 q 749 597 706 579 q 840 614 792 614 m 840 294 q 897 317 875 294 q 919 385 919 340 q 897 451 919 429 q 840 474 875 474 q 783 451 806 474 q 761 385 761 429 q 783 317 761 340 q 840 294 806 294 z "},"ㄷ":{"ha":1278,"x_min":240,"x_max":1047,"o":"m 1047 329 l 1047 182 l 240 182 l 240 875 l 1036 875 l 1036 729 l 424 729 l 424 329 l 1047 329 z "},"ㄸ":{"ha":1278,"x_min":185,"x_max":1099,"o":"m 365 340 q 490 347 432 342 q 610 367 547 353 l 626 217 q 539 201 582 207 q 452 193 496 196 q 361 190 408 190 q 260 189 314 189 l 185 189 l 185 865 l 604 865 l 604 719 l 365 719 l 365 340 m 1099 335 l 1099 189 l 676 189 l 676 865 l 1092 865 l 1092 719 l 857 719 l 857 335 l 1099 335 z "},"ㄹ":{"ha":1278,"x_min":226,"x_max":1058,"o":"m 1058 324 l 1058 175 l 228 175 l 228 606 l 865 606 l 865 736 l 226 736 l 226 881 l 1039 881 l 1039 461 l 401 461 l 401 324 l 1058 324 z "},"ㄺ":{"ha":1278,"x_min":167,"x_max":1099,"o":"m 350 328 q 516 337 442 331 q 671 358 590 343 l 686 213 q 585 195 635 201 q 484 186 536 189 q 376 183 432 183 q 254 182 319 182 l 169 182 l 169 608 l 428 608 l 428 735 l 167 735 l 167 881 l 608 881 l 608 461 l 350 461 l 350 328 m 1099 881 l 1099 185 l 919 185 l 919 735 l 653 735 l 653 881 l 1099 881 z "},"ㄻ":{"ha":1278,"x_min":163,"x_max":1129,"o":"m 1129 882 l 1129 185 l 668 185 l 668 882 l 1129 882 m 346 329 q 486 336 421 331 q 622 356 551 342 l 638 210 q 543 194 589 200 q 451 186 497 189 q 353 183 404 183 q 244 182 303 182 l 165 182 l 165 608 l 422 608 l 422 733 l 163 733 l 163 881 l 601 881 l 601 461 l 346 461 l 346 329 m 971 736 l 828 736 l 828 331 l 971 331 l 971 736 z "},"ㄼ":{"ha":1278,"x_min":163,"x_max":1128,"o":"m 1128 882 l 1128 181 l 661 181 l 661 882 l 831 882 l 831 681 l 958 681 l 958 882 l 1128 882 m 346 328 q 485 335 421 329 q 621 356 550 342 l 638 210 q 543 194 589 200 q 450 185 497 189 q 352 181 403 182 q 243 181 301 181 l 165 181 l 165 608 l 422 608 l 422 733 l 163 733 l 163 881 l 601 881 l 601 461 l 346 461 l 346 328 m 958 532 l 831 532 l 831 329 l 958 329 l 958 532 z "},"ㄽ":{"ha":1278,"x_min":160,"x_max":1185,"o":"m 971 660 q 982 551 971 604 q 1018 451 993 497 q 1084 367 1043 404 q 1185 307 1125 331 l 1090 178 q 965 262 1015 210 q 885 385 914 314 q 805 262 856 314 q 678 178 754 210 l 635 238 l 638 213 q 451 188 543 193 q 242 182 358 182 l 163 182 l 163 608 l 418 608 l 418 733 l 160 733 l 160 881 l 599 881 l 599 461 l 343 461 l 343 329 q 485 337 419 331 q 621 358 550 343 l 624 326 q 760 468 721 379 q 799 660 799 557 l 799 886 l 971 886 l 971 660 z "},"ㄾ":{"ha":1278,"x_min":164,"x_max":1121,"o":"m 346 331 q 490 338 425 332 q 624 358 556 343 l 642 214 q 443 188 542 192 q 244 183 344 183 l 165 183 l 165 608 l 422 608 l 422 733 l 164 733 l 164 881 l 603 881 l 603 461 l 346 461 l 346 331 m 1121 328 l 1121 182 l 671 182 l 671 881 l 1110 881 l 1110 735 l 850 735 l 850 607 l 1096 607 l 1096 460 l 850 460 l 850 328 l 1121 328 z "},"ㄿ":{"ha":1278,"x_min":164,"x_max":1153,"o":"m 346 329 q 484 337 421 331 q 615 358 547 343 l 632 211 q 451 187 540 192 q 244 182 361 182 l 167 182 l 167 206 l 165 206 l 165 608 l 410 608 l 410 733 l 164 733 l 164 881 l 590 881 l 590 461 l 346 461 l 346 329 m 1153 328 l 1153 182 l 642 182 l 642 328 l 703 328 l 703 733 l 643 733 l 643 879 l 1150 879 l 1150 733 l 1089 733 l 1089 328 l 1153 328 m 861 328 l 931 328 l 931 733 l 861 733 l 861 328 z "}}}
